STARTFONT 2.1
FONT -FontForge-Helvetica-Book-R-Normal--42-400-75-75-P-234-ISO10646-1
SIZE 40 75 75
FONTBOUNDINGBOX 100 67 -39 -20
COMMENT "Generated by fontforge, http://fontforge.sourceforge.net"
COMMENT "(c) 1990-2006 Apple Computer Inc. (c) 1981 Linotype AG (c) 1990-91 Type Solutions Inc."
STARTPROPERTIES 41
FOUNDRY "FontForge"
FAMILY_NAME "Helvetica"
WEIGHT_NAME "Book"
SLANT "R"
SETWIDTH_NAME "Normal"
ADD_STYLE_NAME ""
PIXEL_SIZE 42
POINT_SIZE 400
RESOLUTION_X 75
RESOLUTION_Y 75
SPACING "P"
AVERAGE_WIDTH 234
CHARSET_REGISTRY "ISO10646"
CHARSET_ENCODING "1"
FONTNAME_REGISTRY ""
CHARSET_COLLECTIONS "ISO8859-2 ISO8859-5 ISO8859-7 ISO8859-9 ISO8859-4 ISO10646-1"
FONT_NAME "Helvetica"
FACE_NAME "Helvetica"
COPYRIGHT "(c) 1990-2006 Apple Computer Inc. (c) 1981 Linotype AG (c) 1990-91 Type Solutions Inc."
FONT_VERSION "17.0d1e1"
FONT_ASCENT 34
FONT_DESCENT 8
UNDERLINE_POSITION -4
UNDERLINE_THICKNESS 3
X_HEIGHT 21
CAP_HEIGHT 30
DEFAULT_CHAR 1
RAW_ASCENT 799
RAW_DESCENT 200
NORM_SPACE 12
RELATIVE_WEIGHT 40
RELATIVE_SETWIDTH 50
SUPERSCRIPT_X 0
SUPERSCRIPT_Y 20
SUPERSCRIPT_SIZE 27
SUBSCRIPT_X 0
SUBSCRIPT_Y 5
SUBSCRIPT_SIZE 27
FIGURE_WIDTH 23
AVG_LOWERCASE_WIDTH 230
AVG_UPPERCASE_WIDTH 301
ENDPROPERTIES
CHARS 2256
STARTCHAR .null.dup1
ENCODING 0
SWIDTH 0 0
DWIDTH 0 0
BBX 1 1 0 0
BITMAP
00
ENDCHAR
STARTCHAR .null
ENCODING 8
SWIDTH 0 0
DWIDTH 0 0
BBX 1 1 0 0
BITMAP
00
ENDCHAR
STARTCHAR nonmarkingreturn
ENCODING 9
SWIDTH 277 0
DWIDTH 12 0
BBX 1 1 0 0
BITMAP
00
ENDCHAR
STARTCHAR nonmarkingreturn.dup2
ENCODING 10
SWIDTH 277 0
DWIDTH 12 0
BBX 1 1 0 0
BITMAP
00
ENDCHAR
STARTCHAR nonmarkingreturn.dup3
ENCODING 13
SWIDTH 277 0
DWIDTH 12 0
BBX 1 1 0 0
BITMAP
00
ENDCHAR
STARTCHAR .null.dup4
ENCODING 29
SWIDTH 0 0
DWIDTH 0 0
BBX 1 1 0 0
BITMAP
00
ENDCHAR
STARTCHAR space
ENCODING 32
SWIDTH 277 0
DWIDTH 12 0
BBX 1 1 0 0
BITMAP
00
ENDCHAR
STARTCHAR exclam
ENCODING 33
SWIDTH 277 0
DWIDTH 12 0
BBX 4 31 6 0
BITMAP
F0
F0
F0
F0
F0
F0
F0
F0
F0
F0
F0
F0
F0
F0
F0
F0
E0
E0
E0
E0
E0
60
60
00
00
00
F0
F0
F0
F0
F0
ENDCHAR
STARTCHAR quotedbl
ENCODING 34
SWIDTH 354 0
DWIDTH 15 0
BBX 11 12 2 19
BITMAP
F1E0
F1E0
F1E0
F1E0
F1E0
70E0
70E0
70E0
70E0
70E0
70E0
70E0
ENDCHAR
STARTCHAR numbersign
ENCODING 35
SWIDTH 556 0
DWIDTH 23 0
BBX 22 31 1 0
BITMAP
003870
003870
007070
007070
0070E0
0070E0
00E0E0
00F0E0
00E1C0
01C1E0
3FFFFC
3FFFFC
01C380
038380
038380
038700
038700
070700
070700
FFFFF8
FFFFF0
0E0E00
0E0E00
0E1C00
1C3C00
1C1C00
1C3800
1C3800
383800
383800
387000
ENDCHAR
STARTCHAR dollar
ENCODING 36
SWIDTH 556 0
DWIDTH 23 0
BBX 21 37 1 -4
BITMAP
003000
003000
003000
003000
0FFF80
1FFFC0
1FFFE0
3C30F0
7830F0
7830F0
7830F0
783000
783000
3C3000
7C3000
1FF000
1FF000
07FF80
01FFC0
003FF0
003FF0
0031F0
003078
003078
F03078
F03078
783078
783078
7830F0
3E31F0
1FFFE0
0FFFC0
07FF80
003000
003000
003000
003000
ENDCHAR
STARTCHAR percent
ENCODING 37
SWIDTH 889 0
DWIDTH 37 0
BBX 35 30 1 0
BITMAP
0000006000
010000C000
1FF000C000
1FF8018000
3FFC018000
783C038000
700E030000
E00E0E0000
E00E0C0000
700E0C0000
F01C180000
701C180000
3FFC300000
1FF8300000
0FE0700000
0000601000
0000E0FF00
000181FF80
000383FFC0
00030783C0
00030700E0
00060700E0
00060700E0
000C0700E0
000C0F01C0
001C0703C0
001803E7C0
003801FF80
006000FE00
00E0001000
ENDCHAR
STARTCHAR ampersand
ENCODING 38
SWIDTH 666 0
DWIDTH 28 0
BBX 26 31 2 0
BITMAP
00100000
01FE0000
03FF0000
07FF8000
07FFC000
0F03C000
0F01C000
0F01C000
0F03C000
0F03C000
07C78000
07DF0000
03FF0000
01FC0000
03F00000
07FC0000
1FFC0E00
1F3E1E00
7C1F1E00
780F9E00
7807FC00
F003FC00
F003F800
F001F000
7800F800
7800F800
7C03FC00
3C07FE00
1FFF9F00
1FFF0F80
07FE07C0
ENDCHAR
STARTCHAR quotesingle
ENCODING 39
SWIDTH 190 0
DWIDTH 8 0
BBX 4 12 3 19
BITMAP
F0
F0
F0
F0
70
70
70
70
70
70
70
60
ENDCHAR
STARTCHAR parenleft
ENCODING 40
SWIDTH 333 0
DWIDTH 14 0
BBX 10 39 3 -8
BITMAP
01C0
0380
0380
0700
0700
0E00
0E00
1C00
3C00
1C00
3C00
7800
7800
7800
7800
7800
7800
F000
F000
F000
F000
F000
7800
7800
7800
7800
7800
7800
3C00
1C00
3C00
1C00
0E00
0F00
0700
0700
0380
0380
01C0
ENDCHAR
STARTCHAR parenright
ENCODING 41
SWIDTH 333 0
DWIDTH 14 0
BBX 9 39 2 -8
BITMAP
C000
E000
7000
7000
3800
3800
1C00
1C00
0E00
1E00
0F00
0F00
0F00
0780
0780
0780
0780
0780
0780
0780
0780
0780
0780
0780
0780
0780
0F00
0F00
0F00
0F00
1E00
1C00
1C00
3800
3800
7000
7000
E000
E000
ENDCHAR
STARTCHAR asterisk
ENCODING 42
SWIDTH 389 0
DWIDTH 16 0
BBX 13 12 2 19
BITMAP
0700
0700
0700
4708
7F38
FFF8
3FE0
0F80
0FC0
1CE0
1CE0
1860
ENDCHAR
STARTCHAR plus
ENCODING 43
SWIDTH 583 0
DWIDTH 25 0
BBX 21 22 3 0
BITMAP
007000
007000
007000
007000
007000
007000
007000
007000
007000
FFFFF8
FFFFF8
FFFFF8
FFFFF8
007000
007000
007000
007000
007000
007000
007000
007000
007000
ENDCHAR
STARTCHAR comma
ENCODING 44
SWIDTH 277 0
DWIDTH 12 0
BBX 5 11 3 -6
BITMAP
78
78
78
78
78
18
18
30
70
E0
80
ENDCHAR
STARTCHAR hyphen
ENCODING 45
SWIDTH 333 0
DWIDTH 14 0
BBX 10 4 3 10
BITMAP
FFC0
FFC0
FFC0
FFC0
ENDCHAR
STARTCHAR period
ENCODING 46
SWIDTH 277 0
DWIDTH 12 0
BBX 4 5 5 0
BITMAP
F0
F0
F0
F0
F0
ENDCHAR
STARTCHAR slash
ENCODING 47
SWIDTH 277 0
DWIDTH 12 0
BBX 12 31 1 0
BITMAP
0070
0070
00E0
00E0
00E0
01C0
01C0
01C0
01C0
0380
0380
0380
0700
0F00
0700
0E00
1E00
0E00
1C00
1E00
1C00
3800
3800
3800
7000
7000
7000
7000
E000
E000
E000
ENDCHAR
STARTCHAR zero
ENCODING 48
SWIDTH 556 0
DWIDTH 23 0
BBX 21 30 1 0
BITMAP
002000
03FF00
07FF80
0FFFC0
1FFFE0
1E01E0
7C01E0
3C00F0
7800F0
7800F0
7800F0
780078
780078
780078
780078
F00078
780078
780078
780078
7800F0
7800F0
7800F0
7800F0
3C01E0
3C01E0
3E03E0
1F87C0
0FFFC0
07FF80
01FE00
ENDCHAR
STARTCHAR one
ENCODING 49
SWIDTH 556 0
DWIDTH 23 0
BBX 12 30 4 0
BITMAP
00E0
00E0
00F0
01E0
03E0
03E0
FFE0
FFE0
FFE0
01E0
01E0
01E0
01E0
01E0
01E0
01E0
01E0
01E0
01E0
01E0
01E0
01E0
01E0
01E0
01E0
01E0
01E0
01E0
01E0
01E0
ENDCHAR
STARTCHAR two
ENCODING 50
SWIDTH 556 0
DWIDTH 23 0
BBX 20 30 2 0
BITMAP
002000
0FFF00
1FFF80
3FFF80
7C03E0
7803E0
7801E0
F000F0
F000F0
F000F0
F000F0
0001E0
0003E0
0003C0
001FC0
003F80
00FE00
01FC00
03F000
0FE000
1FC000
3E0000
7C0000
780000
F00000
F00000
FFFFF0
FFFFF0
FFFFF0
FFFFF0
ENDCHAR
STARTCHAR three
ENCODING 51
SWIDTH 556 0
DWIDTH 23 0
BBX 21 30 1 0
BITMAP
002000
07FF00
0FFFC0
1FFFE0
1FFFF0
3E01F0
3C00F0
7800F0
7800F0
7800F0
0001E0
0001E0
0003E0
007F80
00FF00
007FE0
003FF0
0001F0
000078
000078
F00078
F00078
780078
780078
7800F0
7801F0
3F07E0
1FFFE0
0FFFE0
07FE00
ENDCHAR
STARTCHAR four
ENCODING 52
SWIDTH 556 0
DWIDTH 23 0
BBX 21 30 1 0
BITMAP
000780
000F80
000F80
001F80
003F80
003F80
007F80
00F780
00F780
01E780
03C780
03C780
078780
0F0780
1E0780
1E0780
3C0780
780780
780780
FFFFF8
FFFFF8
FFFFF8
000780
000780
000780
000780
000780
000780
000780
000780
ENDCHAR
STARTCHAR five
ENCODING 53
SWIDTH 556 0
DWIDTH 23 0
BBX 21 29 1 0
BITMAP
1FFFE0
1FFFE0
1FFFE0
1C0000
1C0000
1E0000
3C0000
1C0000
1C0000
1C0000
39E000
3FFF80
3FFFC0
7FFFE0
7E01F0
3803F0
0000F0
000078
000078
000078
000078
F000F0
7800F8
7C00F0
7C01E0
3F07C0
3FFFC0
0FFF80
03FE00
ENDCHAR
STARTCHAR six
ENCODING 54
SWIDTH 556 0
DWIDTH 23 0
BBX 21 30 2 0
BITMAP
001000
03FF80
07FFC0
0FFFC0
1F03E0
1E01E0
3C00F0
3C00F0
780000
780000
780000
781000
7BFF80
F7FFC0
7FFFE0
7E01F0
7E01F0
F800F0
7800F0
780078
780078
780078
7800F0
7800F0
3C00F0
3C01E0
1F87C0
1FFFC0
07FF80
01FE00
ENDCHAR
STARTCHAR seven
ENCODING 55
SWIDTH 556 0
DWIDTH 23 0
BBX 20 29 3 0
BITMAP
FFFFF0
FFFFF0
FFFFF0
0000F0
0001E0
0003C0
000780
000F00
001F00
001E00
003C00
003C00
003C00
007800
00F000
00F000
01E000
01E000
01E000
03C000
03C000
078000
078000
078000
078000
0F0000
0F0000
0F0000
0F0000
ENDCHAR
STARTCHAR eight
ENCODING 56
SWIDTH 556 0
DWIDTH 23 0
BBX 20 30 2 0
BITMAP
004000
0FFE00
1FFF80
3FFF80
7C07C0
7C07C0
7801E0
F001E0
F001E0
7803C0
7C07C0
3C0780
3FFF80
0FFF00
07FE00
3FFFC0
7FFFC0
F803E0
F801E0
F001E0
F000F0
F000F0
F000F0
F001E0
F801F0
F803C0
7E03C0
3FFFC0
3FFF80
07FC00
ENDCHAR
STARTCHAR nine
ENCODING 57
SWIDTH 556 0
DWIDTH 23 0
BBX 21 30 1 0
BITMAP
002000
07FF00
0FFF80
1FFFC0
3FFFC0
3C01E0
7801E0
7800F0
7800F0
F000F0
F000F8
F000F8
7801F0
7801F0
7803F0
3C03F0
1FFFF0
1FFFF0
07FEF0
00FCF0
0000F0
0001E0
7801E0
7801E0
7803C0
7803C0
3E0F80
3FFF00
1FFE00
07F800
ENDCHAR
STARTCHAR colon
ENCODING 58
SWIDTH 277 0
DWIDTH 12 0
BBX 4 22 6 0
BITMAP
F0
F0
F0
F0
00
00
00
00
00
00
00
00
00
00
00
00
00
F0
F0
F0
F0
F0
ENDCHAR
STARTCHAR semicolon
ENCODING 59
SWIDTH 277 0
DWIDTH 12 0
BBX 5 28 5 -6
BITMAP
78
78
78
78
00
00
00
00
00
00
00
00
00
00
00
00
00
78
78
78
78
78
18
18
30
70
E0
80
ENDCHAR
STARTCHAR less
ENCODING 60
SWIDTH 583 0
DWIDTH 25 0
BBX 25 22 1 0
BITMAP
00000300
00000F80
0001FF00
0003FF00
000FF800
003FE000
01FF0000
07FC0000
3FE00000
FF000000
7C000000
7E000000
FF800000
1FF00000
03FE0000
00FF8000
001FF000
0007FC00
0000FF80
00003F00
00000780
00000100
ENDCHAR
STARTCHAR equal
ENCODING 61
SWIDTH 583 0
DWIDTH 25 0
BBX 21 12 3 5
BITMAP
FFFFF8
FFFFF8
FFFFF8
000000
000000
000000
000000
000000
FFFFF8
FFFFF8
FFFFF8
FFFFF8
ENDCHAR
STARTCHAR greater
ENCODING 62
SWIDTH 583 0
DWIDTH 25 0
BBX 25 22 1 0
BITMAP
C0000000
F8000000
7F000000
FFC00000
0FF80000
03FE0000
007FC000
001FF000
0003FE00
00007F80
00001F00
00003F00
0003FF00
0007FC00
003FE000
00FF8000
07FC0000
1FF00000
FF800000
7E000000
F0000000
80000000
ENDCHAR
STARTCHAR question
ENCODING 63
SWIDTH 556 0
DWIDTH 23 0
BBX 19 31 3 0
BITMAP
004000
0FFE00
1FFF00
1FFFC0
3C03C0
7807C0
7801E0
7801E0
F001E0
F001E0
0003C0
0003C0
0007C0
000F80
001E00
003E00
007C00
007800
00F000
00F000
01E000
01E000
01E000
000000
000000
000000
01E000
01E000
01E000
01E000
01E000
ENDCHAR
STARTCHAR at
ENCODING 64
SWIDTH 1015 0
DWIDTH 43 0
BBX 34 31 5 0
BITMAP
0000200000
007FFFE000
00FFFFF800
03E0003C00
0780001E00
0700000F00
0E00000700
1E01C1C380
3807F9C380
380FFDC1C0
701E0DC1C0
703C0781C0
703C0381C0
70780701C0
70780701C0
E0700F01C0
E070070380
E0700E0380
70700F0700
70381F0E00
703C371E00
703FE7FC00
381FE3F800
3807C3C000
1C00000000
0E00000400
0F00003E00
07C0007E00
01FC00F000
007FFFE000
001FFF8000
ENDCHAR
STARTCHAR A
ENCODING 65
SWIDTH 666 0
DWIDTH 28 0
BBX 28 31 1 0
BITMAP
000F8000
000F8000
001F8000
001FC000
003FC000
003FC000
0079E000
0079E000
0079E000
00F0F000
00F1F000
00F0F000
01E07800
01E07C00
03C07800
03C03C00
03C03E00
07803C00
07FFFE00
0FFFFE00
0FFFFE00
0F001F00
0F000F00
1E000780
1E000F80
3C000780
3C0003C0
3C0003E0
780003C0
F80001E0
780001F0
ENDCHAR
STARTCHAR B
ENCODING 66
SWIDTH 666 0
DWIDTH 28 0
BBX 24 31 3 0
BITMAP
FFF800
FFFFC0
7FFFF0
7FFFF8
F000F8
F0007C
F0007C
F0003C
F0003C
F0003C
F0003C
F00078
F000F8
7FFFF8
FFFFC0
7FFFF8
F007FC
F0007E
F0003E
F0001E
F0000F
F0000F
F0000F
F0001E
F0001F
F0001E
F000FC
7FFFFC
FFFFF0
7FFFE0
FFF800
ENDCHAR
STARTCHAR C
ENCODING 67
SWIDTH 722 0
DWIDTH 30 0
BBX 27 31 2 0
BITMAP
00020000
01FFFC00
07FFFE00
07FFFE00
0F801F80
1F000F80
3E0007C0
3E0003C0
3C0001E0
78000000
7C000000
F8000000
78000000
78000000
78000000
78000000
78000000
78000000
78000000
780001E0
780003E0
780001E0
3C0003C0
3E0007C0
3E0003C0
1F800F80
0FC03F00
0FF07F00
07FFFC00
01FFF800
007FE000
ENDCHAR
STARTCHAR D
ENCODING 68
SWIDTH 722 0
DWIDTH 30 0
BBX 26 31 3 0
BITMAP
7FF80000
FFFFC000
7FFFF000
FFFFF800
781FFC00
78007C00
78003E00
78001F00
78000F80
78000F00
78000780
78000F80
780007C0
78000780
78000780
78000780
78000780
78000780
780007C0
78000780
78000780
78000F00
78001F00
78001E00
78001E00
78007C00
7800FC00
7FFFF800
7FFFF000
7FFFC000
7FF80000
ENDCHAR
STARTCHAR E
ENCODING 69
SWIDTH 666 0
DWIDTH 28 0
BBX 23 31 4 0
BITMAP
FFFFFC
FFFFFC
FFFFFC
FFFFFC
F00000
F00000
F00000
F00000
F00000
F00000
F00000
F00000
F00000
FFFFF8
FFFFF8
FFFFF8
FFFFF8
F00000
F00000
F00000
F00000
F00000
F00000
F00000
F00000
F00000
F00000
7FFFFE
7FFFFE
7FFFFE
7FFFFE
ENDCHAR
STARTCHAR F
ENCODING 70
SWIDTH 610 0
DWIDTH 26 0
BBX 21 31 4 0
BITMAP
FFFFF8
FFFFF8
FFFFF8
FFFFF8
780000
780000
780000
780000
780000
780000
780000
780000
780000
FFFFE0
FFFFE0
FFFFE0
FFFFE0
780000
780000
780000
780000
780000
780000
780000
780000
780000
780000
780000
780000
780000
780000
ENDCHAR
STARTCHAR G
ENCODING 71
SWIDTH 777 0
DWIDTH 33 0
BBX 28 31 2 0
BITMAP
001E0000
00FFFC00
03FFFF00
07FFFF80
07C00FC0
1F000FC0
1F0003C0
3C0001E0
7C0001E0
3C0001E0
78000000
F8000000
78000000
78000000
7801FFF0
7801FFF0
7801FFF0
7801FFF0
780000F0
F80000F0
7C0000F0
780000F0
3C0001F0
3E0001F0
3E0003F0
1F0007F0
1F800FF0
07F07F70
07FFFE70
01FFFC70
007FF870
ENDCHAR
STARTCHAR H
ENCODING 72
SWIDTH 722 0
DWIDTH 30 0
BBX 24 31 3 0
BITMAP
78000F
78000F
78000F
78000F
78000F
78000F
78000F
78000F
78000F
78000F
78000F
78000F
78000F
FFFFFF
FFFFFF
FFFFFF
78000F
78000F
78000F
78000F
78000F
78000F
78000F
78000F
78000F
78000F
78000F
78000F
78000F
78000F
78000F
ENDCHAR
STARTCHAR I
ENCODING 73
SWIDTH 277 0
DWIDTH 12 0
BBX 4 31 5 0
BITMAP
F0
F0
F0
F0
F0
F0
F0
F0
F0
F0
F0
F0
F0
F0
F0
F0
F0
F0
F0
F0
F0
F0
F0
F0
F0
F0
F0
F0
F0
F0
F0
ENDCHAR
STARTCHAR J
ENCODING 74
SWIDTH 500 0
DWIDTH 21 0
BBX 18 31 1 0
BITMAP
0003C0
0003C0
0003C0
0003C0
0003C0
0003C0
0003C0
0003C0
0003C0
0003C0
0003C0
0003C0
0003C0
0003C0
0003C0
0003C0
0003C0
0003C0
0003C0
0003C0
0003C0
F003C0
F003C0
F003C0
780780
780780
7C0F80
781F00
3FFF00
1FFE00
0FF800
ENDCHAR
STARTCHAR K
ENCODING 75
SWIDTH 666 0
DWIDTH 28 0
BBX 25 31 3 0
BITMAP
F0001F80
F0003F00
F0007E00
F000FC00
F001F000
F003E000
F007C000
F00F8000
F01F0000
F03E0000
F07C0000
F0F80000
F1F00000
F3F80000
F7FC0000
FFFC0000
FF3E0000
FE1F0000
FC1F0000
F80F8000
F007C000
F003E000
F003E000
F003F000
F000F800
F000F800
F0007C00
F0003E00
F0001F00
F0001F00
F0001F80
ENDCHAR
STARTCHAR L
ENCODING 76
SWIDTH 556 0
DWIDTH 23 0
BBX 19 31 4 0
BITMAP
F00000
F00000
F00000
F00000
F00000
F00000
F00000
F00000
F00000
F00000
F00000
F00000
F00000
F00000
F00000
F00000
F00000
F00000
F00000
F00000
F00000
F00000
F00000
F00000
F00000
F00000
F00000
FFFFE0
FFFFE0
FFFFE0
FFFFE0
ENDCHAR
STARTCHAR M
ENCODING 77
SWIDTH 833 0
DWIDTH 35 0
BBX 30 31 3 0
BITMAP
FC0001F8
7E0001F8
FE0001FC
FE0003F8
7F0003F8
FF0003F8
F78007F8
F78007F8
F78007F8
F3C00F78
F3C00F78
F3C00F78
F1E01E78
F1E01E78
F1E01E78
F0F03C78
F0F03C78
F0F03C78
F0787878
F0787878
F0787878
F03CF078
F03CF078
F03CF078
F01FE078
F01FE078
F01FC078
F00FC078
F00F8078
F00F8078
F0078078
ENDCHAR
STARTCHAR N
ENCODING 78
SWIDTH 722 0
DWIDTH 30 0
BBX 25 31 3 0
BITMAP
F8000F00
7C000F00
7E000F00
FE000F00
7F000F00
FF000F00
FF800F00
F7800F00
F3E00F00
F1E00F00
F1E00F00
F1F00F00
F0780F00
F0780F00
F07C0F00
F03C0F00
F01F0F00
F00F0F00
F00F0F00
F007CF00
F003CF00
F003CF00
F003EF00
F000FF00
F000FF00
F000FF00
F0007F00
F0003F80
F0003F00
F0001F00
F0000F80
ENDCHAR
STARTCHAR O
ENCODING 79
SWIDTH 777 0
DWIDTH 33 0
BBX 30 31 2 0
BITMAP
00010000
01FFFE00
03FFFF80
07FFFFC0
0FC007E0
0F8003E0
1F0001F0
3E0000F8
7C0000F8
3C0000F8
78000078
7C000078
7800003C
7800003C
7800003C
7800003C
7800003C
7800003C
78000078
F8000078
780000F8
78000078
7C0000F8
3E0001F0
3E0001E0
1F0007E0
0FC00FC0
0FF83FC0
07FFFF00
01FFFC00
007FF000
ENDCHAR
STARTCHAR P
ENCODING 80
SWIDTH 666 0
DWIDTH 28 0
BBX 23 31 4 0
BITMAP
FFFC00
7FFFE0
FFFFF0
FFFFF0
7807FC
7800FC
78003C
78001E
78001E
78001E
78001E
78001E
78003E
78007C
FFFFF8
7FFFF8
FFFFE0
7FFF80
780000
780000
780000
780000
780000
780000
780000
780000
780000
780000
780000
780000
780000
ENDCHAR
STARTCHAR Q
ENCODING 81
SWIDTH 777 0
DWIDTH 33 0
BBX 30 33 2 -2
BITMAP
00010000
01FFFE00
03FFFF80
07FFFFC0
0FC007E0
1F0003E0
1F0001F0
3C0000F8
7C0000F8
3C0000F8
78000078
7C000078
7800003C
7800003C
7800003C
7800003C
7800003C
7800003C
78000078
F8000078
7800007C
780000F8
7C0030F0
3E0079F0
3E00FDF0
1E003FE0
0FC01FC0
0FF80FC0
07FFFFE0
01FFFFF0
007FF0F8
00000038
00000010
ENDCHAR
STARTCHAR R
ENCODING 82
SWIDTH 722 0
DWIDTH 30 0
BBX 25 31 4 0
BITMAP
FFFC0000
FFFFF000
7FFFFC00
7FFFFE00
7803FE00
78003F00
78001F00
78000F00
78000F00
78000F00
78000F00
78000F00
78001E00
78003E00
7FFFFC00
FFFFF000
FFFFF000
7FFFFE00
78003E00
78001F00
78000F00
78000F00
78000F00
78000F00
78000F00
78000F00
78000F00
78001F00
78000F00
78000F80
78000F80
ENDCHAR
STARTCHAR S
ENCODING 83
SWIDTH 666 0
DWIDTH 28 0
BBX 25 31 2 0
BITMAP
00080000
07FFE000
0FFFF000
1FFFFC00
3E007C00
3E003E00
3C003E00
3C001E00
78000F00
3C000000
7C000000
3F000000
3FC00000
1FFC0000
0FFF8000
07FFF800
003FFC00
0003FE00
00003F00
00001F80
00000F00
F0000F00
78000F00
78000F00
78000F00
78000F00
7E003E00
3F807E00
0FFFFC00
0FFFF800
03FFC000
ENDCHAR
STARTCHAR T
ENCODING 84
SWIDTH 610 0
DWIDTH 26 0
BBX 24 31 2 0
BITMAP
FFFFFF
FFFFFF
FFFFFF
FFFFFF
003C00
003C00
003C00
003C00
003C00
003C00
003C00
003C00
003C00
003C00
003C00
003C00
003C00
003C00
003C00
003C00
003C00
003C00
003C00
003C00
003C00
003C00
003C00
003C00
003C00
003C00
003C00
ENDCHAR
STARTCHAR U
ENCODING 85
SWIDTH 722 0
DWIDTH 30 0
BBX 25 31 3 0
BITMAP
78000F00
78000F00
78000F00
78000F00
78000F00
78000F00
78000F00
78000F00
78000F00
78000F00
78000F00
78000F00
78000F00
78000F00
78000F00
78000F00
78000F00
78000F00
78000F00
78000F00
78000F80
78000F00
F8000F00
78001E00
3C001E00
3E003E00
3F007E00
1FC1FC00
0FFFF800
07FFE000
01FF8000
ENDCHAR
STARTCHAR V
ENCODING 86
SWIDTH 666 0
DWIDTH 28 0
BBX 27 31 1 0
BITMAP
F80003E0
7C0003E0
780003C0
7C000780
3E0007C0
1E000780
3E000F00
1E001F00
0F000F00
1F001E00
0F003E00
07801E00
0F803C00
07803C00
03C03C00
03E07800
03C07800
01E0F000
01E0F000
01E0F000
00F1E000
00F1E000
00F1E000
007BC000
007BC000
003FC000
003FC000
003F8000
001F8000
001F0000
000F0000
ENDCHAR
STARTCHAR W
ENCODING 87
SWIDTH 943 0
DWIDTH 40 0
BBX 38 31 1 0
BITMAP
78003C003C
F8007C003C
78007E007C
78007E003C
3C00FE0078
7C00FF0078
3C00FF00F8
3C01EF0078
1E01EF00F0
3E01E780F0
1E03C780F8
1E03C780F0
0F03C780F0
0F03C3C1E0
0F0783C1F0
0F0783C1E0
078783C1E0
078F01E3C0
078F01E3C0
078F01E3C0
03CF00F3C0
03DE00F780
03DE00F780
03DE00F780
01FE007F80
01FC007F00
00FC003F00
00FC003F00
00FC003F00
00F8003E00
00F0001E00
ENDCHAR
STARTCHAR X
ENCODING 88
SWIDTH 666 0
DWIDTH 28 0
BBX 27 31 1 0
BITMAP
7C0007C0
3E0007C0
1F000F80
1F001F00
0F801F00
07C03E00
07C07C00
03E07C00
01F0F800
01F1F000
00F9F000
007FE000
007FC000
003F8000
001F8000
001F8000
003F8000
003FC000
007FE000
00FBE000
01F1F000
01F0F800
03E0F800
07C07C00
07C03E00
0F801F00
1F001F00
1F000F80
3E0007C0
7C0007C0
F80003E0
ENDCHAR
STARTCHAR Y
ENCODING 89
SWIDTH 666 0
DWIDTH 28 0
BBX 27 31 1 0
BITMAP
F80003E0
7C0003E0
3E0007C0
3E0007C0
1F000F80
1F001F00
0F801F00
07C03E00
07C07C00
03C07800
01F07800
00F0F800
00F1E000
00FBE000
003FC000
003FC000
003F8000
001F0000
000F0000
000F0000
000F0000
000F0000
000F0000
000F0000
000F0000
000F0000
000F0000
000F0000
000F0000
000F0000
000F0000
ENDCHAR
STARTCHAR Z
ENCODING 90
SWIDTH 610 0
DWIDTH 26 0
BBX 25 31 1 0
BITMAP
3FFFFF80
3FFFFF80
3FFFFF80
3FFFFF80
00001F00
00003E00
00007E00
0000F800
0001F000
0001F000
0003E000
0007E000
000F8000
001F0000
001F0000
003E0000
007E0000
00F80000
01F00000
01F00000
03E00000
0FC00000
0F800000
1F000000
1F000000
3E000000
7C000000
FFFFFF00
FFFFFF00
FFFFFF00
FFFFFF00
ENDCHAR
STARTCHAR bracketleft
ENCODING 91
SWIDTH 277 0
DWIDTH 12 0
BBX 8 39 3 -8
BITMAP
FF
FF
FF
70
70
70
70
70
70
70
70
70
70
70
70
70
70
70
70
70
70
70
70
70
70
70
70
70
70
70
70
70
70
70
70
70
FF
FF
FF
ENDCHAR
STARTCHAR backslash
ENCODING 92
SWIDTH 277 0
DWIDTH 12 0
BBX 14 31 0 0
BITMAP
E000
F000
E000
7000
7000
3800
7800
3800
1C00
1C00
0E00
0E00
0E00
0700
0780
0700
0380
0380
01C0
01E0
01C0
00E0
00E0
0070
00F0
0070
0038
0038
001C
001C
001C
ENDCHAR
STARTCHAR bracketright
ENCODING 93
SWIDTH 277 0
DWIDTH 12 0
BBX 9 39 1 -8
BITMAP
FF00
FF00
FF00
0780
0780
0780
0780
0780
0780
0780
0780
0780
0780
0780
0780
0780
0780
0780
0780
0780
0780
0780
0780
0780
0780
0780
0780
0780
0780
0780
0780
0780
0780
0780
0780
0780
FF00
FF00
FF00
ENDCHAR
STARTCHAR asciicircum
ENCODING 94
SWIDTH 469 0
DWIDTH 20 0
BBX 18 18 2 13
BITMAP
00E000
01E000
01F000
03F000
03F000
03B800
073800
0F1C00
073C00
0F1C00
0E0E00
1C0E00
3C0700
1C0780
3C0700
380380
700380
F001C0
ENDCHAR
STARTCHAR underscore
ENCODING 95
SWIDTH 556 0
DWIDTH 23 0
BBX 23 2 1 -5
BITMAP
FFFFFE
FFFFFE
ENDCHAR
STARTCHAR grave
ENCODING 96
SWIDTH 333 0
DWIDTH 14 0
BBX 8 6 2 25
BITMAP
F0
78
3C
1E
1E
07
ENDCHAR
STARTCHAR a
ENCODING 97
SWIDTH 556 0
DWIDTH 23 0
BBX 22 23 2 0
BITMAP
002000
0FFF00
0FFF00
3FFFC0
3C03E0
3C01E0
7801E0
0001E0
0001E0
001FE0
00FFE0
1FFFE0
3FE1E0
7F81E0
FC01E0
7801E0
F001E0
F003E0
7807E0
780FE0
7FFFF8
3FF8FC
0FF0FC
ENDCHAR
STARTCHAR b
ENCODING 98
SWIDTH 556 0
DWIDTH 23 0
BBX 20 31 2 0
BITMAP
F00000
F00000
F00000
F00000
F00000
F00000
F00000
F00000
F02000
F1FF00
F7FF80
FFFF80
7E03E0
7C01E0
7803E0
F001E0
F000F0
7000F0
7000F0
7000F0
7000F0
7000F0
F000F0
F001E0
7801E0
F801E0
FC03C0
7F0F80
7FFFC0
73FF00
73FC00
ENDCHAR
STARTCHAR c
ENCODING 99
SWIDTH 500 0
DWIDTH 21 0
BBX 19 23 1 0
BITMAP
002000
07FF00
0FFF80
1FFFC0
3E03C0
7C03E0
7801E0
7801E0
780000
780000
780000
F00000
F00000
780000
780000
7801E0
7801E0
3C01E0
3C03E0
1F03C0
1FFF80
0FFF00
01FC00
ENDCHAR
STARTCHAR d
ENCODING 100
SWIDTH 556 0
DWIDTH 23 0
BBX 20 31 1 0
BITMAP
0000F0
0000F0
0000F0
0000F0
0000F0
0000F0
0000F0
0000F0
01C0F0
07FCF0
0FFFF0
1FFFF0
1F03F0
3E01F0
7C00F0
7800F0
7800F0
7800F0
F00070
F00070
F00070
7800F0
7800F0
7800F0
7800F0
3C01F0
3C01F0
1F07F0
1FFF70
07FE70
03F870
ENDCHAR
STARTCHAR e
ENCODING 101
SWIDTH 556 0
DWIDTH 23 0
BBX 20 23 2 0
BITMAP
03C000
0FFC00
1FFF00
3FFF80
7C03C0
7C03C0
F001E0
F001E0
F001E0
F000F0
FFFFF0
FFFFF0
FFFFF0
F00000
F00000
F00000
F001E0
7801E0
7803C0
3E0F80
1FFF80
0FFF80
03FC00
ENDCHAR
STARTCHAR f
ENCODING 102
SWIDTH 277 0
DWIDTH 12 0
BBX 10 31 2 0
BITMAP
00C0
0FC0
1FC0
1F80
1E00
3C00
3C00
3C00
3C00
FFC0
FFC0
FFC0
3C00
3C00
3C00
3C00
3C00
3C00
3C00
3C00
3C00
3C00
3C00
3C00
3C00
3C00
3C00
3C00
3C00
3C00
3C00
ENDCHAR
STARTCHAR g
ENCODING 103
SWIDTH 556 0
DWIDTH 23 0
BBX 20 32 1 -9
BITMAP
01C000
07FC70
0FFF70
1FFF70
3E03F0
3C01F0
7800F0
7800F0
7800F0
7800F0
F00070
F00070
F000E0
F000F0
7800F0
7800F0
7800F0
7801F0
3C03F0
3F1FF0
1FFEF0
07FEF0
01F8F0
0000F0
0000F0
7801E0
7801E0
3C03C0
3F0FC0
1FFF80
0FFF00
01F800
ENDCHAR
STARTCHAR h
ENCODING 104
SWIDTH 556 0
DWIDTH 23 0
BBX 19 31 3 0
BITMAP
F00000
F00000
F00000
F00000
F00000
F00000
F00000
F00000
F02000
F1FF00
F7FF80
FFFF80
7E03C0
FC03E0
7803C0
7803C0
F003C0
F003C0
F003C0
F003C0
F003C0
F003C0
F003C0
F003C0
F003C0
F003C0
F003C0
F003C0
F003C0
F003C0
F003C0
ENDCHAR
STARTCHAR i
ENCODING 105
SWIDTH 222 0
DWIDTH 9 0
BBX 4 31 3 0
BITMAP
F0
F0
F0
F0
F0
00
00
00
00
F0
F0
F0
F0
F0
F0
F0
F0
F0
F0
F0
F0
F0
F0
F0
F0
F0
F0
F0
F0
F0
F0
ENDCHAR
STARTCHAR j
ENCODING 106
SWIDTH 222 0
DWIDTH 9 0
BBX 8 39 -1 -8
BITMAP
0F
0F
0F
0F
0F
00
00
00
00
0F
0F
0F
0F
0F
0F
0F
0F
0F
0F
0F
0F
0F
0F
0F
0F
0F
0F
0F
0F
0F
0F
0F
0F
0F
0F
0F
FE
7E
7C
ENDCHAR
STARTCHAR k
ENCODING 107
SWIDTH 500 0
DWIDTH 21 0
BBX 19 31 3 0
BITMAP
F00000
F00000
F00000
F00000
F00000
F00000
F00000
F00000
F00000
F00F80
F01F00
F03E00
F07C00
F0F800
F1F000
F3E000
F7C000
FFC000
7FE000
FFE000
7DF000
787800
F07800
F07C00
F03E00
F01F00
F01F00
F00F80
F007C0
F007C0
F003E0
ENDCHAR
STARTCHAR l
ENCODING 108
SWIDTH 222 0
DWIDTH 9 0
BBX 4 31 3 0
BITMAP
F0
F0
F0
F0
F0
F0
F0
F0
F0
F0
F0
F0
F0
F0
F0
F0
F0
F0
F0
F0
F0
F0
F0
F0
F0
F0
F0
F0
F0
F0
F0
ENDCHAR
STARTCHAR m
ENCODING 109
SWIDTH 833 0
DWIDTH 35 0
BBX 30 23 3 0
BITMAP
00200100
F1FE0FF0
F7FF7FF0
FFBFFFF8
7E0FE07C
7C07E03C
7807803C
7807803C
F007803C
F007803C
F007803C
F007803C
F007803C
F007803C
F007803C
F007803C
F007803C
F007803C
F007803C
F007803C
F007803C
F007803C
F007803C
ENDCHAR
STARTCHAR n
ENCODING 110
SWIDTH 556 0
DWIDTH 23 0
BBX 18 23 3 0
BITMAP
001000
71FF00
77FF80
7FFF80
FF07C0
7C03C0
7803C0
7803C0
F003C0
F003C0
F003C0
F003C0
F003C0
F003C0
F003C0
F003C0
F003C0
F003C0
F003C0
F003C0
F003C0
F003C0
F003C0
ENDCHAR
STARTCHAR o
ENCODING 111
SWIDTH 556 0
DWIDTH 23 0
BBX 21 23 1 0
BITMAP
002000
07FF00
0FFFC0
0FFFC0
1E01F0
3C00F0
3C00F0
780078
780078
780078
F00078
F00078
F00078
F00078
780078
7800F0
7800F0
3C00F0
3C01F0
1F03E0
1FFFC0
07FF80
03FE00
ENDCHAR
STARTCHAR p
ENCODING 112
SWIDTH 556 0
DWIDTH 23 0
BBX 20 31 2 -8
BITMAP
002000
F1FF00
F7FF80
FFFF80
FC07C0
7C01E0
F801E0
7801E0
F000F0
F000F0
F000F0
F000F0
F000F0
F000F0
F000F0
F001E0
7801E0
7801E0
FC03C0
FE07C0
FFFF80
F7FF00
F3FC00
F00000
F00000
F00000
F00000
F00000
F00000
F00000
F00000
ENDCHAR
STARTCHAR q
ENCODING 113
SWIDTH 556 0
DWIDTH 23 0
BBX 20 31 1 -8
BITMAP
01C000
07FC70
0FFF70
1FFF70
3E03F0
7C01F0
7800F0
7800F0
7800F0
7800F0
F000F0
F000F0
F000F0
F000F0
7800F0
7800F0
7800F0
7801F0
3E03F0
1F07F0
1FFFF0
07FEF0
03F8F0
0000F0
0000F0
0000F0
0000F0
0000F0
0000F0
0000F0
0000F0
ENDCHAR
STARTCHAR r
ENCODING 114
SWIDTH 333 0
DWIDTH 14 0
BBX 12 23 3 0
BITMAP
0030
73E0
73E0
7FE0
7FC0
7C00
7C00
7800
F000
F000
F000
F000
F000
F000
F000
F000
F000
F000
F000
F000
F000
F000
F000
ENDCHAR
STARTCHAR s
ENCODING 115
SWIDTH 500 0
DWIDTH 21 0
BBX 19 23 1 0
BITMAP
004000
1FFE00
1FFF00
3FFF80
3C0780
7803C0
7803C0
780000
7C0000
3FC000
3FE000
1FFF00
01FF00
003FC0
0003E0
0001E0
F001E0
7801E0
7803C0
7C03C0
3FFF80
1FFF80
07FE00
ENDCHAR
STARTCHAR t
ENCODING 116
SWIDTH 277 0
DWIDTH 12 0
BBX 10 29 1 0
BITMAP
3C00
3C00
3C00
3C00
3C00
3C00
3C00
FFC0
FFC0
FFC0
3C00
3C00
3C00
3C00
3C00
3C00
3C00
3C00
3C00
3C00
3C00
3C00
3C00
3C00
3C00
1E00
1FC0
0FC0
0FC0
ENDCHAR
STARTCHAR u
ENCODING 117
SWIDTH 556 0
DWIDTH 23 0
BBX 19 22 3 0
BITMAP
F003C0
F003C0
F003C0
F003C0
F003C0
F003C0
F003C0
F003C0
F003C0
F003C0
F003C0
F003C0
F003C0
F003C0
F003E0
F007C0
7807C0
780FC0
7C3FC0
3FFFC0
1FFBC0
0FE3C0
ENDCHAR
STARTCHAR v
ENCODING 118
SWIDTH 500 0
DWIDTH 21 0
BBX 20 22 0 0
BITMAP
F800F0
7800F0
3C00F0
3E01E0
3C01E0
1E01E0
1E03C0
1E03C0
0F03C0
0F0780
0F0780
078F00
078F00
078F00
03DE00
03CE00
01FE00
01FC00
00FC00
00FC00
00F800
007800
ENDCHAR
STARTCHAR w
ENCODING 119
SWIDTH 722 0
DWIDTH 30 0
BBX 29 22 1 0
BITMAP
F00F8078
F00F80F0
F01F80F0
781F80F0
781FC1E0
781F81E0
7839C1C0
3C3BC1E0
3C39C3C0
3C39C1C0
3C70E380
1E71E780
1C70E380
0E70E700
1EE07700
0EE0F700
07E07700
07E07E00
07E07E00
07C03E00
03C03C00
03C03C00
ENDCHAR
STARTCHAR x
ENCODING 120
SWIDTH 500 0
DWIDTH 21 0
BBX 21 22 0 0
BITMAP
7C01F0
3E03E0
1F03E0
1F0780
0F8780
07CF80
07DE00
01FE00
01FC00
00FC00
00F800
00FC00
01FE00
03FE00
079F00
0F8F80
0F8F80
1E07C0
3E03E0
3E03E0
7C01F0
F800F8
ENDCHAR
STARTCHAR y
ENCODING 121
SWIDTH 500 0
DWIDTH 21 0
BBX 19 30 1 -8
BITMAP
F001E0
F001E0
7803C0
7803C0
7803C0
3C0780
3C0780
3C0780
1E0F00
1E0F00
1E0F00
0F1E00
0F1E00
0F1E00
07BC00
07BC00
07BC00
07F800
01F800
03F000
01F000
01E000
01E000
01E000
03C000
03C000
03C000
3F8000
7F0000
7F0000
ENDCHAR
STARTCHAR z
ENCODING 122
SWIDTH 500 0
DWIDTH 21 0
BBX 18 22 2 0
BITMAP
FFFF80
FFFF80
FFFF80
000F80
001F00
003E00
007C00
007C00
00F800
01F000
03E000
07C000
0F8000
0F8000
1F0000
3E0000
7C0000
F80000
FFFFC0
FFFFC0
FFFFC0
FFFFC0
ENDCHAR
STARTCHAR braceleft
ENCODING 123
SWIDTH 333 0
DWIDTH 14 0
BBX 15 39 -1 -8
BITMAP
0002
007E
00FE
01E0
01E0
03C0
0380
0380
0380
0380
0380
0380
0380
03C0
0780
0380
0700
0F00
FC00
E000
7E00
7F00
0780
0700
0780
03C0
0380
0380
0380
0380
0380
0380
0380
03C0
01E0
01E0
00FC
00FC
000E
ENDCHAR
STARTCHAR bar
ENCODING 124
SWIDTH 259 0
DWIDTH 11 0
BBX 3 31 4 0
BITMAP
E0
E0
E0
E0
E0
E0
E0
E0
E0
E0
E0
E0
E0
E0
E0
E0
E0
E0
E0
E0
E0
E0
E0
E0
E0
E0
E0
E0
E0
E0
E0
ENDCHAR
STARTCHAR braceright
ENCODING 125
SWIDTH 333 0
DWIDTH 14 0
BBX 15 39 1 -8
BITMAP
8000
7C00
FE00
0F00
0F00
0780
0380
0380
0380
0380
0380
0380
0380
0380
03C0
0380
0380
01E0
00FC
000E
00FC
01FC
03C0
0380
03C0
0380
0380
0380
0380
0380
0380
0380
0380
0780
0F00
0F00
7E00
7E00
E000
ENDCHAR
STARTCHAR asciitilde
ENCODING 126
SWIDTH 583 0
DWIDTH 25 0
BBX 25 8 0 7
BITMAP
03000180
07F00380
3FFC0700
3FFF8700
3EFFFE00
700FFE00
7003FC00
E0000000
ENDCHAR
STARTCHAR nonbreakingspace
ENCODING 160
SWIDTH 277 0
DWIDTH 12 0
BBX 1 1 0 0
BITMAP
00
ENDCHAR
STARTCHAR exclamdown
ENCODING 161
SWIDTH 333 0
DWIDTH 14 0
BBX 4 30 6 -8
BITMAP
F0
F0
F0
F0
00
00
00
60
60
E0
E0
E0
E0
E0
F0
F0
F0
F0
F0
F0
F0
F0
F0
F0
F0
F0
F0
F0
F0
F0
ENDCHAR
STARTCHAR cent
ENCODING 162
SWIDTH 556 0
DWIDTH 23 0
BBX 20 31 2 -4
BITMAP
000300
000600
000600
000600
00FE00
07FC00
0FFFC0
1FDFC0
3E1BE0
7C19E0
7C19E0
7830E0
783000
783000
F03000
F06000
F06000
F06000
78C000
78C0F0
78C0F0
78C1E0
3F81E0
1F87C0
0FFFC0
0FFF00
03FC00
030000
030000
060000
060000
ENDCHAR
STARTCHAR sterling
ENCODING 163
SWIDTH 556 0
DWIDTH 23 0
BBX 21 31 2 0
BITMAP
002000
03FF00
1FFF80
1FFF80
3FFFE0
7C03E0
7C00F0
7800F0
7800F0
7800F0
780000
780000
7C0000
3E0000
3E0000
FFFC00
FFFC00
0F0000
0F0000
0F0000
078000
0F0000
070000
0E0000
1E0000
0C0000
388010
73F830
FFFFF8
7FFFF8
300FE0
ENDCHAR
STARTCHAR currency
ENCODING 164
SWIDTH 556 0
DWIDTH 23 0
BBX 19 20 3 5
BITMAP
400040
E040E0
F3F1E0
7FFFC0
3FFF80
380700
7803C0
7001C0
7001C0
7001C0
7001C0
7001C0
7003C0
7003C0
3C0780
3E0F80
7FFFC0
FFFDE0
E3F0E0
400040
ENDCHAR
STARTCHAR yen
ENCODING 165
SWIDTH 556 0
DWIDTH 23 0
BBX 23 29 0 0
BITMAP
F8003E
F8003C
78003C
7C0078
3C0078
1F00F8
0F01E0
0F01E0
0783C0
7F83FC
7FC7FC
7FC7FC
01EF00
00FF00
00FE00
007E00
3FFFF8
3FFFF8
3FFFF8
003C00
003C00
003C00
003C00
003C00
003C00
003C00
003C00
003C00
003C00
ENDCHAR
STARTCHAR brokenbar
ENCODING 166
SWIDTH 259 0
DWIDTH 11 0
BBX 3 31 4 0
BITMAP
E0
E0
E0
E0
E0
E0
E0
E0
E0
E0
E0
E0
00
00
00
00
00
00
00
E0
E0
E0
E0
E0
E0
E0
E0
E0
E0
E0
E0
ENDCHAR
STARTCHAR section
ENCODING 167
SWIDTH 556 0
DWIDTH 23 0
BBX 21 39 2 -8
BITMAP
002000
03FE00
07FF80
0FFF80
0F3F80
1E03C0
1E03C0
1E03C0
1E0000
1F0000
1F0000
07E000
0FF800
1FF800
3C7F00
783F80
F00FC0
F007F0
F001F0
7801F0
7800F0
3E0078
3F00F0
0FC070
07F0F0
03F8E0
00FFC0
007F80
003F00
000F80
0007C0
3C03E0
3C03C0
3C03C0
1E03C0
1E07C0
0FFF80
0FFF00
03FC00
ENDCHAR
STARTCHAR dieresis
ENCODING 168
SWIDTH 333 0
DWIDTH 14 0
BBX 11 4 2 26
BITMAP
F1E0
F1E0
F1E0
F1E0
ENDCHAR
STARTCHAR copyright
ENCODING 169
SWIDTH 736 0
DWIDTH 31 0
BBX 30 31 0 0
BITMAP
00010000
003FFC00
00FFFE00
03C00780
070001C0
0F0001C0
1C000070
1C00F038
303FF818
703FFC18
60781C0C
70700E1C
60E0060C
60E0000C
60E0000C
60E0000C
60E0000C
60E0000C
E0E0060C
60700E1C
60701C0C
703E1C1C
303FF818
1C07F870
1C000070
0C0001E0
078003C0
01E00780
00FFFF00
003FF800
00010000
ENDCHAR
STARTCHAR ordfeminine
ENCODING 170
SWIDTH 370 0
DWIDTH 16 0
BBX 13 14 2 17
BITMAP
0200
3FE0
70F0
E0E0
00E0
0FE0
7FE0
F8E0
E0E0
E0E0
E1E0
FFF8
7F78
1E38
ENDCHAR
STARTCHAR guillemotleft
ENCODING 171
SWIDTH 556 0
DWIDTH 23 0
BBX 16 14 4 5
BITMAP
0201
0603
1E07
3E1F
7C3E
7878
E070
E070
7878
7C3E
3E1F
1E0E
0703
0201
ENDCHAR
STARTCHAR logicalnot
ENCODING 172
SWIDTH 583 0
DWIDTH 25 0
BBX 21 12 3 5
BITMAP
FFFFF8
FFFFF8
FFFFF8
000038
000038
000038
000038
000038
000038
000038
000038
000038
ENDCHAR
STARTCHAR softhyphen
ENCODING 173
SWIDTH 333 0
DWIDTH 14 0
BBX 10 4 3 10
BITMAP
FFC0
FFC0
FFC0
FFC0
ENDCHAR
STARTCHAR registered
ENCODING 174
SWIDTH 736 0
DWIDTH 31 0
BBX 29 31 1 0
BITMAP
00020000
00FFF000
01FFFC00
07800F00
0E000380
1E000380
380000E0
70FC00E0
607FE030
60E3F830
C0E07818
E0E03838
C0E03818
C0E03818
C0E07018
C07FF018
C0FF8018
C0E7F018
C0E0F018
C0E03818
C0E03818
E0E03838
60E03830
38E038E0
380000E0
180003C0
0F000780
07801E00
03FFFC00
007FF000
00020000
ENDCHAR
STARTCHAR macron
ENCODING 175
SWIDTH 333 0
DWIDTH 14 0
BBX 13 2 1 27
BITMAP
FFF8
FFF8
ENDCHAR
STARTCHAR degree
ENCODING 176
SWIDTH 399 0
DWIDTH 17 0
BBX 12 13 3 17
BITMAP
0400
3FC0
3FC0
E0E0
E070
C030
C030
C030
E060
E0E0
7FC0
7FC0
0600
ENDCHAR
STARTCHAR plusminus
ENCODING 177
SWIDTH 548 0
DWIDTH 23 0
BBX 21 22 3 0
BITMAP
007000
007000
007000
007000
007000
007000
007000
FFFFF8
FFFFF8
FFFFF8
007000
007000
007000
007000
007000
007000
007000
000000
FFFFF8
FFFFF8
FFFFF8
FFFFF8
ENDCHAR
STARTCHAR twosuperior
ENCODING 178
SWIDTH 333 0
DWIDTH 14 0
BBX 13 18 1 12
BITMAP
0200
3FE0
3FE0
FFF0
F078
E070
F070
0078
01F0
03F0
07C0
3F00
7E00
7800
E000
FFF8
FFF8
FFF8
ENDCHAR
STARTCHAR threesuperior
ENCODING 179
SWIDTH 333 0
DWIDTH 14 0
BBX 13 18 1 12
BITMAP
0200
3FE0
3FE0
FCF0
F0F0
E078
0070
01E0
07C0
07C0
01F0
0070
E038
E038
E070
E0F0
7FF0
3FE0
ENDCHAR
STARTCHAR acute
ENCODING 180
SWIDTH 333 0
DWIDTH 14 0
BBX 7 6 4 25
BITMAP
3E
3C
78
78
E0
E0
ENDCHAR
STARTCHAR mu
ENCODING 181
SWIDTH 576 0
DWIDTH 24 0
BBX 24 30 -1 -8
BITMAP
03C00F
03C01E
07801E
07801E
07801E
07803C
07803C
0F003C
0F003C
0F003C
0F0078
1E0078
1E0078
1E0078
1E00F0
1E01F0
3C01F0
3C01F0
3E0FF0
3FFEF0
7FFDE0
7BF1E0
780000
780000
780000
F00000
F00000
F00000
F00000
F00000
ENDCHAR
STARTCHAR paragraph
ENCODING 182
SWIDTH 537 0
DWIDTH 23 0
BBX 23 38 0 -7
BITMAP
001FFE
03FFFE
0FFFFE
1FF870
3FF070
3FF870
7FF070
7FF870
FFF070
FFF070
FFF070
FFF070
FFF070
7FF070
7FF070
3FF870
3FF070
3FF070
0FF070
01F070
007070
007070
007070
007070
007070
007070
007070
007070
007070
007070
007070
007070
007070
007070
007070
007070
007070
007070
ENDCHAR
STARTCHAR periodcentered
ENCODING 183
SWIDTH 277 0
DWIDTH 12 0
BBX 5 5 4 12
BITMAP
F0
F8
F8
F8
F0
ENDCHAR
STARTCHAR cedilla
ENCODING 184
SWIDTH 333 0
DWIDTH 14 0
BBX 10 10 2 -9
BITMAP
0600
0C00
1800
3C00
3F00
03C0
0380
4780
7F80
FF00
ENDCHAR
STARTCHAR onesuperior
ENCODING 185
SWIDTH 333 0
DWIDTH 14 0
BBX 9 18 2 12
BITMAP
0700
0700
0F00
0F80
FF00
FF00
0700
0700
0700
0700
0700
0700
0700
0700
0700
0700
0700
0700
ENDCHAR
STARTCHAR ordmasculine
ENCODING 186
SWIDTH 365 0
DWIDTH 15 0
BBX 14 14 1 17
BITMAP
0F00
3FF0
7FF8
383C
701C
701C
E01C
E01C
701C
7838
7078
7FF0
1FF0
0380
ENDCHAR
STARTCHAR guillemotright
ENCODING 187
SWIDTH 556 0
DWIDTH 23 0
BBX 16 14 4 5
BITMAP
8040
C060
7070
F87C
7C3E
3E0F
0E07
0E07
1F1F
3E3E
F87C
7070
6060
8040
ENDCHAR
STARTCHAR onequarter
ENCODING 188
SWIDTH 833 0
DWIDTH 35 0
BBX 31 30 3 0
BITMAP
070001C0
07000380
0F000700
0F800700
FF000E00
FF000E00
07001C00
07001C00
07003800
07007000
07007000
0700E000
0700E0F0
0701C0F0
070381F0
070383F0
070703F0
070707F0
000E0EF0
001C1CF0
001C38F0
003838F0
003870F0
00707FFE
00E07FFE
00E07FFE
01C00078
01C00078
03800078
07000078
ENDCHAR
STARTCHAR onehalf
ENCODING 189
SWIDTH 833 0
DWIDTH 35 0
BBX 32 30 2 0
BITMAP
07000700
07000700
0F000E00
0F800E00
FF001C00
FF003800
07003800
07007000
07007000
0700E000
0700E000
0701C000
070383C0
07038FF8
07070FFC
07071F9E
070E1E1E
071C1C0F
001C000F
0038001E
0038007C
007001FC
007003F0
00E007E0
01C01F00
01C00E00
03801C00
03803FFE
07003FFE
07003FFE
ENDCHAR
STARTCHAR threequarters
ENCODING 190
SWIDTH 833 0
DWIDTH 35 0
BBX 32 30 3 0
BITMAP
02000070
3FE000E0
3FE001C0
707001C0
E0F00380
E0780380
00700700
01E00E00
07C00E00
07C01C00
01F01C00
00703800
E0387038
E0387078
E070E0F8
E0F1C1F8
FFE1C1F8
3FE383B8
00038738
00070E38
000E0E38
000E1C38
001C3838
001C3FFF
00383FFF
00703FFF
00700038
00E00038
00E00038
01C00038
ENDCHAR
STARTCHAR questiondown
ENCODING 191
SWIDTH 610 0
DWIDTH 26 0
BBX 19 31 4 -8
BITMAP
00F000
00F000
00F000
00F000
00F000
000000
000000
000000
00F000
00F000
00F000
00F000
01F000
03E000
07C000
07C000
0F0000
1F0000
3C0000
7C0000
780000
7801E0
F001E0
F001E0
7801E0
F803C0
7803C0
3F1F80
3FFF00
1FFF00
01F800
ENDCHAR
STARTCHAR Agrave
ENCODING 192
SWIDTH 666 0
DWIDTH 28 0
BBX 28 39 1 0
BITMAP
00780000
00780000
003C0000
001E0000
000E0000
00070000
00000000
00000000
000F8000
000F8000
001F8000
001FC000
003FC000
003FC000
0079E000
0079E000
0079E000
00F0F000
00F1F000
00F0F000
01E07800
01E07C00
03C07800
03C03C00
03C03E00
07803C00
07FFFE00
0FFFFE00
0FFFFE00
0F001F00
0F000F00
1E000780
1E000F80
3C000780
3C0003C0
3C0003E0
780003C0
F80001E0
780001F0
ENDCHAR
STARTCHAR Aacute
ENCODING 193
SWIDTH 666 0
DWIDTH 28 0
BBX 28 39 1 0
BITMAP
0007C000
0007C000
000F0000
001E0000
001C0000
00380000
00000000
00000000
000F8000
000F8000
001F8000
001FC000
003FC000
003FC000
0079E000
0079E000
0079E000
00F0F000
00F1F000
00F0F000
01E07800
01E07C00
03C07800
03C03C00
03C03E00
07803C00
07FFFE00
0FFFFE00
0FFFFE00
0F001F00
0F000F00
1E000780
1E000F80
3C000780
3C0003C0
3C0003E0
780003C0
F80001E0
780001F0
ENDCHAR
STARTCHAR Acircumflex
ENCODING 194
SWIDTH 666 0
DWIDTH 28 0
BBX 28 39 1 0
BITMAP
000F0000
001F8000
001DC000
003DC000
0070F000
00707000
00000000
00000000
000F8000
000F8000
001F8000
001FC000
003FC000
003FC000
0079E000
0079E000
0079E000
00F0F000
00F1F000
00F0F000
01E07800
01E07C00
03C07800
03C03C00
03C03E00
07803C00
07FFFE00
0FFFFE00
0FFFFE00
0F001F00
0F000F00
1E000780
1E000F80
3C000780
3C0003C0
3C0003E0
780003C0
F80001E0
780001F0
ENDCHAR
STARTCHAR Atilde
ENCODING 195
SWIDTH 666 0
DWIDTH 28 0
BBX 28 38 1 0
BITMAP
00781800
00FE3800
00FFF800
00C3F000
01800000
00000000
00000000
000F8000
000F8000
001F8000
001FC000
003FC000
003FC000
0079E000
0079E000
0079E000
00F0F000
00F1F000
00F0F000
01E07800
01E07C00
03C07800
03C03C00
03C03E00
07803C00
07FFFE00
0FFFFE00
0FFFFE00
0F001F00
0F000F00
1E000780
1E000F80
3C000780
3C0003C0
3C0003E0
780003C0
F80001E0
780001F0
ENDCHAR
STARTCHAR Adieresis
ENCODING 196
SWIDTH 666 0
DWIDTH 28 0
BBX 28 38 1 0
BITMAP
0079E000
0079E000
0079E000
0079E000
0079E000
00000000
00000000
000F8000
000F8000
001F8000
001FC000
003FC000
003FC000
0079E000
0079E000
0079E000
00F0F000
00F1F000
00F0F000
01E07800
01E07C00
03C07800
03C03C00
03C03E00
07803C00
07FFFE00
0FFFFE00
0FFFFE00
0F001F00
0F000F00
1E000780
1E000F80
3C000780
3C0003C0
3C0003E0
780003C0
F80001E0
780001F0
ENDCHAR
STARTCHAR Aring
ENCODING 197
SWIDTH 666 0
DWIDTH 28 0
BBX 28 40 1 0
BITMAP
00020000
001F8000
0030C000
00306000
00306000
0030C000
0018C000
001F8000
00000000
000F8000
000F8000
001F8000
001FC000
003FC000
003FC000
0079E000
0079E000
0079E000
00F0F000
00F1F000
00F0F000
01E07800
01E07C00
03C07800
03C03C00
03C03E00
07803C00
07FFFE00
0FFFFE00
0FFFFE00
0F001F00
0F000F00
1E000780
1E000F80
3C000780
3C0003C0
3C0003E0
780003C0
F80001E0
780001F0
ENDCHAR
STARTCHAR AE
ENCODING 198
SWIDTH 1000 0
DWIDTH 42 0
BBX 39 31 1 0
BITMAP
000FFFFFFE
001FFFFFFC
001FFFFFFE
001FFFFFFE
003C3C0000
003C3C0000
00783C0000
00783C0000
00F03C0000
00F03C0000
00F03C0000
01E03C0000
01E03C0000
03C03FFFF8
03C03FFFF8
03C03FFFF8
07803FFFF8
07803C0000
0FFFFC0000
0FFFFE0000
1FFFFC0000
1FFFFC0000
1E003C0000
3C003C0000
3E003C0000
3C003C0000
78003C0000
F8003FFFFE
F0003FFFFE
F8003FFFFE
F0003FFFFE
ENDCHAR
STARTCHAR Ccedilla
ENCODING 199
SWIDTH 722 0
DWIDTH 30 0
BBX 27 40 2 -9
BITMAP
00020000
01FFFC00
07FFFE00
07FFFE00
0F801F80
1F000F80
3E0007C0
3E0003C0
3C0001E0
78000000
7C000000
F8000000
78000000
78000000
78000000
78000000
78000000
78000000
78000000
780001E0
780003E0
780001E0
3C0003C0
3E0007C0
3E0003C0
1F800F80
0FC03F00
0FF07F00
07FFFC00
03FFF800
00FFE000
000C0000
000C0000
001E0000
001F8000
0003C000
0001C000
00438000
007F8000
007F8000
ENDCHAR
STARTCHAR Egrave
ENCODING 200
SWIDTH 666 0
DWIDTH 28 0
BBX 23 39 4 0
BITMAP
03C000
01E000
00F000
007800
007800
001C00
000000
000000
FFFFFC
FFFFFC
FFFFFC
FFFFFC
F00000
F00000
F00000
F00000
F00000
F00000
F00000
F00000
F00000
FFFFF8
FFFFF8
FFFFF8
FFFFF8
F00000
F00000
F00000
F00000
F00000
F00000
F00000
F00000
F00000
F00000
7FFFFE
7FFFFE
7FFFFE
7FFFFE
ENDCHAR
STARTCHAR Eacute
ENCODING 201
SWIDTH 666 0
DWIDTH 28 0
BBX 23 39 4 0
BITMAP
000F00
001E00
003C00
007800
007800
00E000
000000
000000
FFFFFC
FFFFFC
FFFFFC
FFFFFC
F00000
F00000
F00000
F00000
F00000
F00000
F00000
F00000
F00000
FFFFF8
FFFFF8
FFFFF8
FFFFF8
F00000
F00000
F00000
F00000
F00000
F00000
F00000
F00000
F00000
F00000
7FFFFE
7FFFFE
7FFFFE
7FFFFE
ENDCHAR
STARTCHAR Ecircumflex
ENCODING 202
SWIDTH 666 0
DWIDTH 28 0
BBX 23 39 4 0
BITMAP
007C00
007E00
00EE00
00E780
01E380
038380
000000
000000
FFFFFC
FFFFFC
FFFFFC
FFFFFC
F00000
F00000
F00000
F00000
F00000
F00000
F00000
F00000
F00000
FFFFF8
FFFFF8
FFFFF8
FFFFF8
F00000
F00000
F00000
F00000
F00000
F00000
F00000
F00000
F00000
F00000
7FFFFE
7FFFFE
7FFFFE
7FFFFE
ENDCHAR
STARTCHAR Edieresis
ENCODING 203
SWIDTH 666 0
DWIDTH 28 0
BBX 23 38 4 0
BITMAP
03C780
03C780
03C780
03C780
03C780
000000
000000
FFFFFC
FFFFFC
FFFFFC
FFFFFC
F00000
F00000
F00000
F00000
F00000
F00000
F00000
F00000
F00000
FFFFF8
FFFFF8
FFFFF8
FFFFF8
F00000
F00000
F00000
F00000
F00000
F00000
F00000
F00000
F00000
F00000
7FFFFE
7FFFFE
7FFFFE
7FFFFE
ENDCHAR
STARTCHAR Igrave
ENCODING 204
SWIDTH 277 0
DWIDTH 12 0
BBX 7 39 1 0
BITMAP
F8
78
3C
3C
0E
0E
00
00
1E
1E
1E
1E
1E
1E
1E
1E
1E
1E
1E
1E
1E
1E
1E
1E
1E
1E
1E
1E
1E
1E
1E
1E
1E
1E
1E
1E
1E
1E
1E
ENDCHAR
STARTCHAR Iacute
ENCODING 205
SWIDTH 277 0
DWIDTH 12 0
BBX 7 39 3 0
BITMAP
1E
1E
3C
78
70
E0
00
00
78
78
78
78
78
78
78
78
78
78
78
78
78
78
78
78
78
78
78
78
78
78
78
78
78
78
78
78
78
78
78
ENDCHAR
STARTCHAR Icircumflex
ENCODING 206
SWIDTH 277 0
DWIDTH 12 0
BBX 11 39 1 0
BITMAP
0F00
1F80
3FC0
71C0
71C0
F0E0
0000
0000
0F00
0F00
0F00
0F00
0F00
0F00
0F00
0F00
0F00
0F00
0F00
0F00
0F00
0F00
0F00
0F00
0F00
0F00
0F00
0F00
0F00
0F00
0F00
0F00
0F00
0F00
0F00
0F00
0F00
0F00
0F00
ENDCHAR
STARTCHAR Idieresis
ENCODING 207
SWIDTH 277 0
DWIDTH 12 0
BBX 11 38 1 0
BITMAP
F1E0
F1E0
F1E0
F1E0
F1E0
0000
0000
0F80
0F80
0F80
0F80
0F80
0F80
0F80
0F80
0F80
0F80
0F80
0F80
0F80
0F80
0F80
0F80
0F80
0F80
0F80
0F80
0F80
0F80
0F80
0F80
0F80
0F80
0F80
0F80
0F80
0F80
0F80
ENDCHAR
STARTCHAR Eth
ENCODING 208
SWIDTH 722 0
DWIDTH 30 0
BBX 27 31 2 0
BITMAP
3FF80000
3FFFE000
3FFFF800
3FFFFE00
3C03FF00
3C001F00
3C000F00
3C0007C0
3C0007C0
3C0003E0
3C0003C0
3C0001E0
3C0001E0
FFFE01E0
FFFE03E0
FFFE03E0
3C0001E0
3C0001E0
3C0001E0
3C0001E0
3C0003C0
3C0007C0
3C0003C0
3C0007C0
3C000F80
3C001F00
3C007E00
3FFFFC00
3FFFF800
3FFFE000
3FFC0000
ENDCHAR
STARTCHAR Ntilde
ENCODING 209
SWIDTH 722 0
DWIDTH 30 0
BBX 25 38 3 0
BITMAP
00F03000
01FC6000
03FFE000
070FC000
03000000
00000000
00000000
F8000F00
7C000F00
7E000F00
FE000F00
7F000F00
FF000F00
FF800F00
F7800F00
F3E00F00
F1E00F00
F1E00F00
F1F00F00
F0780F00
F0780F00
F07C0F00
F03C0F00
F01F0F00
F00F0F00
F00F0F00
F007CF00
F003CF00
F003CF00
F003EF00
F000FF00
F000FF00
F000FF00
F0007F00
F0003F80
F0003F00
F0001F00
F0000F80
ENDCHAR
STARTCHAR Ograve
ENCODING 210
SWIDTH 777 0
DWIDTH 33 0
BBX 30 40 2 0
BITMAP
007C0000
001E0000
001E0000
000F0000
00038000
00038000
00000000
00000000
00000000
00010000
01FFFE00
03FFFF80
07FFFFC0
0FC007E0
0F8003E0
1F0001F0
3E0000F8
7C0000F8
3C0000F8
78000078
7C000078
7800003C
7800003C
7800003C
7800003C
7800003C
7800003C
78000078
F8000078
780000F8
78000078
7C0000F8
3E0001F0
3E0001E0
1F0007E0
0FC00FC0
0FF83FC0
07FFFF00
01FFFC00
007FF000
ENDCHAR
STARTCHAR Oacute
ENCODING 211
SWIDTH 777 0
DWIDTH 33 0
BBX 30 40 2 0
BITMAP
0001F000
0003C000
0003C000
00078000
00070000
000E0000
00000000
00000000
00000000
00010000
01FFFE00
03FFFF80
07FFFFC0
0FC007E0
0F8003E0
1F0001F0
3E0000F8
7C0000F8
3C0000F8
78000078
7C000078
7800003C
7800003C
7800003C
7800003C
7800003C
7800003C
78000078
F8000078
780000F8
78000078
7C0000F8
3E0001F0
3E0001E0
1F0007E0
0FC00FC0
0FF83FC0
07FFFF00
01FFFC00
007FF000
ENDCHAR
STARTCHAR Ocircumflex
ENCODING 212
SWIDTH 777 0
DWIDTH 33 0
BBX 30 40 2 0
BITMAP
00078000
000FC000
000FE000
001CE000
001C7800
003C7800
00000000
00000000
00000000
00010000
01FFFE00
03FFFF80
07FFFFC0
0FC007E0
0F8003E0
1F0001F0
3E0000F8
7C0000F8
3C0000F8
78000078
7C000078
7800003C
7800003C
7800003C
7800003C
7800003C
7800003C
78000078
F8000078
780000F8
78000078
7C0000F8
3E0001F0
3E0001E0
1F0007E0
0FC00FC0
0FF83FC0
07FFFF00
01FFFC00
007FF000
ENDCHAR
STARTCHAR Otilde
ENCODING 213
SWIDTH 777 0
DWIDTH 33 0
BBX 30 39 2 0
BITMAP
00180600
003F8C00
007FFC00
0067F800
00C07800
00000000
00000000
00000000
00010000
01FFFE00
03FFFF80
07FFFFC0
0FC007E0
0F8003E0
1F0001F0
3E0000F8
7C0000F8
3C0000F8
78000078
7C000078
7800003C
7800003C
7800003C
7800003C
7800003C
7800003C
78000078
F8000078
780000F8
78000078
7C0000F8
3E0001F0
3E0001E0
1F0007E0
0FC00FC0
0FF83FC0
07FFFF00
01FFFC00
007FF000
ENDCHAR
STARTCHAR Odieresis
ENCODING 214
SWIDTH 777 0
DWIDTH 33 0
BBX 30 38 2 0
BITMAP
003C7800
003C7800
003C7800
003C7800
00000000
00000000
00000000
00010000
01FFFE00
03FFFF80
07FFFFC0
0FC007E0
0F8003E0
1F0001F0
3E0000F8
7C0000F8
3C0000F8
78000078
7C000078
7800003C
7800003C
7800003C
7800003C
7800003C
7800003C
78000078
F8000078
780000F8
78000078
7C0000F8
3E0001F0
3E0001E0
1F0007E0
0FC00FC0
0FF83FC0
07FFFF00
01FFFC00
007FF000
ENDCHAR
STARTCHAR multiply
ENCODING 215
SWIDTH 583 0
DWIDTH 25 0
BBX 21 20 2 1
BITMAP
300060
7800F0
7C01F0
3E03E0
1F07C0
0F8F80
07DF00
03FF00
01FE00
00FC00
00FC00
01FE00
07DF00
0F8F80
1F07C0
3E03E0
7C01F0
F800F8
700070
200020
ENDCHAR
STARTCHAR Oslash
ENCODING 216
SWIDTH 777 0
DWIDTH 33 0
BBX 30 31 1 0
BITMAP
001F000C
01FFF81C
03FFFFB8
07FFFFE0
0FC00FE0
0F8003E0
1F0003F0
3E0003F8
3C000678
7C001C7C
3C003878
7800703C
7800703C
7C00E07C
F801807C
F803007C
F806007C
F806003C
7C0C003C
7818003C
78700078
3CE000F8
3FC00078
3F8000F8
1F8001F0
1F0003E0
0FE01FC0
1FF03FC0
3FFFFF00
70FFFE00
607FF800
ENDCHAR
STARTCHAR Ugrave
ENCODING 217
SWIDTH 722 0
DWIDTH 30 0
BBX 25 39 3 0
BITMAP
01E00000
00F80000
00780000
003C0000
003C0000
000E0000
00000000
00000000
78000F00
78000F00
78000F00
78000F00
78000F00
78000F00
78000F00
78000F00
78000F00
78000F00
78000F00
78000F00
78000F00
78000F00
78000F00
78000F00
78000F00
78000F00
78000F00
78000F00
78000F80
78000F00
F8000F00
78001E00
3C001E00
3E003E00
3F007E00
1FC1FC00
0FFFF800
07FFE000
01FF8000
ENDCHAR
STARTCHAR Uacute
ENCODING 218
SWIDTH 722 0
DWIDTH 30 0
BBX 25 39 3 0
BITMAP
000F0000
000F0000
001E0000
003C0000
00380000
00700000
00000000
00000000
78000F00
78000F00
78000F00
78000F00
78000F00
78000F00
78000F00
78000F00
78000F00
78000F00
78000F00
78000F00
78000F00
78000F00
78000F00
78000F00
78000F00
78000F00
78000F00
78000F00
78000F80
78000F00
F8000F00
78001E00
3C001E00
3E003E00
3F007E00
1FC1FC00
0FFFF800
07FFE000
01FF8000
ENDCHAR
STARTCHAR Ucircumflex
ENCODING 219
SWIDTH 722 0
DWIDTH 30 0
BBX 25 39 3 0
BITMAP
001E0000
003F0000
00778000
00738000
00E38000
01E1C000
00000000
00000000
78000F00
78000F00
78000F00
78000F00
78000F00
78000F00
78000F00
78000F00
78000F00
78000F00
78000F00
78000F00
78000F00
78000F00
78000F00
78000F00
78000F00
78000F00
78000F00
78000F00
78000F80
78000F00
F8000F00
78001E00
3C001E00
3E003E00
3F007E00
1FC1FC00
0FFFF800
07FFE000
01FF8000
ENDCHAR
STARTCHAR Udieresis
ENCODING 220
SWIDTH 722 0
DWIDTH 30 0
BBX 25 38 3 0
BITMAP
01E3C000
01E3C000
01E3C000
01E3C000
01E3C000
00000000
00000000
78000F00
78000F00
78000F00
78000F00
78000F00
78000F00
78000F00
78000F00
78000F00
78000F00
78000F00
78000F00
78000F00
78000F00
78000F00
78000F00
78000F00
78000F00
78000F00
78000F00
78000F80
78000F00
F8000F00
78001E00
3C001E00
3E003E00
3F007E00
1FC1FC00
0FFFF800
07FFE000
01FF8000
ENDCHAR
STARTCHAR Yacute
ENCODING 221
SWIDTH 666 0
DWIDTH 28 0
BBX 27 39 1 0
BITMAP
0007C000
0007C000
000F0000
001E0000
001C0000
00380000
00000000
00000000
F80003E0
7C0003E0
3E0007C0
3E0007C0
1F000F80
1F001F00
0F801F00
07C03E00
07C07C00
03C07800
01F07800
00F0F800
00F1E000
00FBE000
003FC000
003FC000
003F8000
001F0000
000F0000
000F0000
000F0000
000F0000
000F0000
000F0000
000F0000
000F0000
000F0000
000F0000
000F0000
000F0000
000F0000
ENDCHAR
STARTCHAR Thorn
ENCODING 222
SWIDTH 666 0
DWIDTH 28 0
BBX 23 31 3 0
BITMAP
F00000
F00000
F00000
F00000
F00000
7FFC00
FFFFE0
7FFFF8
7FFFF8
F007FC
F0003E
F0003E
F0001E
F0001E
F0001E
F0001E
F0003C
F0007C
F0007C
7FFFF8
7FFFF8
7FFFE0
7FFE00
F00000
F00000
F00000
F00000
F00000
F00000
F00000
F00000
ENDCHAR
STARTCHAR germandbls
ENCODING 223
SWIDTH 610 0
DWIDTH 26 0
BBX 19 31 4 0
BITMAP
008000
1FFE00
3FFE00
7FFF80
780F80
7807C0
7803C0
F003C0
F003C0
F003C0
F00780
F00780
F03F00
F0FE00
F1FC00
F1FF80
F07F80
F007E0
F001E0
F001E0
F001E0
F001E0
F001E0
F001E0
F001E0
F003C0
F003C0
F01F80
F0FF80
F0FF00
F0FC00
ENDCHAR
STARTCHAR agrave
ENCODING 224
SWIDTH 556 0
DWIDTH 23 0
BBX 22 31 2 0
BITMAP
078000
03C000
01E000
00E000
007800
003800
000000
000000
002000
0FFF00
0FFF00
3FFFC0
3C03E0
3C01E0
7801E0
0001E0
0001E0
001FE0
00FFE0
1FFFE0
3FE1E0
7F81E0
FC01E0
7801E0
F001E0
F003E0
7807E0
780FE0
7FFFF8
3FF8FC
0FF0FC
ENDCHAR
STARTCHAR aacute
ENCODING 225
SWIDTH 556 0
DWIDTH 23 0
BBX 22 31 2 0
BITMAP
007C00
007800
00F000
00F000
01C000
01C000
000000
000000
002000
0FFF00
0FFF00
3FFFC0
3C03E0
3C01E0
7801E0
0001E0
0001E0
001FE0
00FFE0
1FFFE0
3FE1E0
7F81E0
FC01E0
7801E0
F001E0
F003E0
7807E0
780FE0
7FFFF8
3FF8FC
0FF0FC
ENDCHAR
STARTCHAR acircumflex
ENCODING 226
SWIDTH 556 0
DWIDTH 23 0
BBX 22 31 2 0
BITMAP
00F800
00FC00
01FC00
038F00
038F00
0F0380
000000
000000
002000
0FFF00
0FFF00
3FFFC0
3C03E0
3C01E0
7801E0
0001E0
0001E0
001FE0
00FFE0
1FFFE0
3FE1E0
7F81E0
FC01E0
7801E0
F001E0
F003E0
7807E0
780FE0
7FFFF8
3FF8FC
0FF0FC
ENDCHAR
STARTCHAR atilde
ENCODING 227
SWIDTH 556 0
DWIDTH 23 0
BBX 22 31 2 0
BITMAP
0000C0
03C0C0
0FFF80
07FF80
0E1F00
000000
000000
000000
002000
0FFF00
0FFF00
3FFFC0
3C03E0
3C01E0
7801E0
0001E0
0001E0
001FE0
00FFE0
1FFFE0
3FE1E0
7F81E0
FC01E0
7801E0
F001E0
F003E0
7807E0
780FE0
7FFFF8
3FF8FC
0FF0FC
ENDCHAR
STARTCHAR adieresis
ENCODING 228
SWIDTH 556 0
DWIDTH 23 0
BBX 22 30 2 0
BITMAP
078F00
078F00
078F00
078F00
000000
000000
000000
002000
0FFF00
0FFF00
3FFFC0
3C03E0
3C01E0
7801E0
0001E0
0001E0
001FE0
00FFE0
1FFFE0
3FE1E0
7F81E0
FC01E0
7801E0
F001E0
F003E0
7807E0
780FE0
7FFFF8
3FF8FC
0FF0FC
ENDCHAR
STARTCHAR aring
ENCODING 229
SWIDTH 556 0
DWIDTH 23 0
BBX 22 34 2 0
BITMAP
002000
00FC00
01FE00
018600
030600
030600
018600
00FC00
00FC00
000000
000000
002000
0FFF00
0FFF00
3FFFC0
3C03E0
3C01E0
7801E0
0001E0
0001E0
001FE0
00FFE0
1FFFE0
3FE1E0
7F81E0
FC01E0
7801E0
F001E0
F003E0
7807E0
780FE0
7FFFF8
3FF8FC
0FF0FC
ENDCHAR
STARTCHAR ae
ENCODING 230
SWIDTH 889 0
DWIDTH 37 0
BBX 35 23 1 0
BITMAP
0020008000
07FE0FF800
1FFFBFFE00
1FFFFFFF00
7E03F80F00
3C01F807C0
7801E003C0
0001E003C0
0001E003C0
001FE003C0
01FFFFFFC0
1FFFFFFFE0
3FE1FFFFC0
7F81C00000
7C01E00000
7801E00000
F003E003C0
F003F003C0
7807F007C0
7C1F7C0780
3FFE3FFF00
3FF81FFE00
0FF81FFC00
ENDCHAR
STARTCHAR ccedilla
ENCODING 231
SWIDTH 500 0
DWIDTH 21 0
BBX 19 32 1 -9
BITMAP
002000
07FF00
0FFF80
1FFFC0
3E03C0
7C03E0
7801E0
7801E0
780000
780000
780000
F00000
F00000
780000
780000
7801E0
7801E0
3C01E0
3C03E0
1F03C0
1FFF80
1FFF00
03FC00
00C000
00C000
01E000
01F800
003C00
001C00
043800
07F800
07F800
ENDCHAR
STARTCHAR egrave
ENCODING 232
SWIDTH 556 0
DWIDTH 23 0
BBX 20 31 2 0
BITMAP
078000
03C000
03C000
00E000
00E000
007000
000000
000000
03C000
0FFC00
1FFF00
3FFF80
7C03C0
7C03C0
F001E0
F001E0
F001E0
F000F0
FFFFF0
FFFFF0
FFFFF0
F00000
F00000
F00000
F001E0
7801E0
7803C0
3E0F80
1FFF80
0FFF80
03FC00
ENDCHAR
STARTCHAR eacute
ENCODING 233
SWIDTH 556 0
DWIDTH 23 0
BBX 20 31 2 0
BITMAP
007800
00F000
00F000
01C000
01C000
038000
000000
000000
03C000
0FFC00
1FFF00
3FFF80
7C03C0
7C03C0
F001E0
F001E0
F001E0
F000F0
FFFFF0
FFFFF0
FFFFF0
F00000
F00000
F00000
F001E0
7801E0
7803C0
3E0F80
1FFF80
0FFF80
03FC00
ENDCHAR
STARTCHAR ecircumflex
ENCODING 234
SWIDTH 556 0
DWIDTH 23 0
BBX 20 31 2 0
BITMAP
00F800
01FC00
039C00
039C00
0F0F00
0E0F00
000000
000000
03C000
0FFC00
1FFF00
3FFF80
7C03C0
7C03C0
F001E0
F001E0
F001E0
F000F0
FFFFF0
FFFFF0
FFFFF0
F00000
F00000
F00000
F001E0
7801E0
7803C0
3E0F80
1FFF80
0FFF80
03FC00
ENDCHAR
STARTCHAR edieresis
ENCODING 235
SWIDTH 556 0
DWIDTH 23 0
BBX 20 30 2 0
BITMAP
079E00
079E00
079E00
079E00
000000
000000
000000
03C000
0FFC00
1FFF00
3FFF80
7C03C0
7C03C0
F001E0
F001E0
F001E0
F000F0
FFFFF0
FFFFF0
FFFFF0
F00000
F00000
F00000
F001E0
7801E0
7803C0
3E0F80
1FFF80
0FFF80
03FC00
ENDCHAR
STARTCHAR igrave
ENCODING 236
SWIDTH 277 0
DWIDTH 12 0
BBX 8 31 1 0
BITMAP
F0
78
3C
1E
1E
07
00
00
00
1E
1E
1E
1E
1E
1E
1E
1E
1E
1E
1E
1E
1E
1E
1E
1E
1E
1E
1E
1E
1E
1E
ENDCHAR
STARTCHAR iacute
ENCODING 237
SWIDTH 277 0
DWIDTH 12 0
BBX 7 31 3 0
BITMAP
3E
3C
78
78
E0
E0
00
00
00
78
78
78
78
78
78
78
78
78
78
78
78
78
78
78
78
78
78
78
78
78
78
ENDCHAR
STARTCHAR icircumflex
ENCODING 238
SWIDTH 277 0
DWIDTH 12 0
BBX 11 31 1 0
BITMAP
1F00
1F80
7B80
73C0
E0E0
E0E0
0000
0000
0000
1E00
1E00
1E00
1E00
1E00
1E00
1E00
1E00
1E00
1E00
1E00
1E00
1E00
1E00
1E00
1E00
1E00
1E00
1E00
1E00
1E00
1E00
ENDCHAR
STARTCHAR idieresis
ENCODING 239
SWIDTH 277 0
DWIDTH 12 0
BBX 11 30 1 0
BITMAP
F1E0
F1E0
F1E0
F1E0
0000
0000
0000
0000
1E00
1E00
1E00
1E00
1E00
1E00
1E00
1E00
1E00
1E00
1E00
1E00
1E00
1E00
1E00
1E00
1E00
1E00
1E00
1E00
1E00
1E00
ENDCHAR
STARTCHAR eth
ENCODING 240
SWIDTH 556 0
DWIDTH 23 0
BBX 21 34 1 0
BITMAP
020000
078C00
0F9C00
07F000
03E000
03F800
0FF800
0E3E00
041F00
001F00
000F80
01C3C0
07FBC0
0FFFC0
1FFFE0
3E01F0
7C01F0
7800F0
780078
780078
780078
F00078
F00078
F00078
780078
780078
7800F0
7800F0
3C00F0
3E01E0
3F07C0
1FFFC0
0FFF00
03FC00
ENDCHAR
STARTCHAR ntilde
ENCODING 241
SWIDTH 556 0
DWIDTH 23 0
BBX 18 31 3 0
BITMAP
000180
078180
0FFF80
0FFF00
0C1F00
000000
000000
000000
001000
71FF00
77FF80
7FFF80
FF07C0
7C03C0
7803C0
7803C0
F003C0
F003C0
F003C0
F003C0
F003C0
F003C0
F003C0
F003C0
F003C0
F003C0
F003C0
F003C0
F003C0
F003C0
F003C0
ENDCHAR
STARTCHAR ograve
ENCODING 242
SWIDTH 556 0
DWIDTH 23 0
BBX 21 31 1 0
BITMAP
03C000
01E000
01E000
007000
007000
003800
000000
000000
002000
07FF00
0FFFC0
0FFFC0
1E01F0
3C00F0
3C00F0
780078
780078
780078
F00078
F00078
F00078
F00078
780078
7800F0
7800F0
3C00F0
3C01F0
1F03E0
1FFFC0
07FF80
03FE00
ENDCHAR
STARTCHAR oacute
ENCODING 243
SWIDTH 556 0
DWIDTH 23 0
BBX 21 31 1 0
BITMAP
003C00
007800
007800
00E000
00E000
01C000
000000
000000
002000
07FF00
0FFFC0
0FFFC0
1E01F0
3C00F0
3C00F0
780078
780078
780078
F00078
F00078
F00078
F00078
780078
7800F0
7800F0
3C00F0
3C01F0
1F03E0
1FFFC0
07FF80
03FE00
ENDCHAR
STARTCHAR ocircumflex
ENCODING 244
SWIDTH 556 0
DWIDTH 23 0
BBX 21 31 1 0
BITMAP
007C00
00FE00
01CE00
01CE00
078780
070780
000000
000000
002000
07FF00
0FFFC0
0FFFC0
1E01F0
3C00F0
3C00F0
780078
780078
780078
F00078
F00078
F00078
F00078
780078
7800F0
7800F0
3C00F0
3C01F0
1F03E0
1FFFC0
07FF80
03FE00
ENDCHAR
STARTCHAR otilde
ENCODING 245
SWIDTH 556 0
DWIDTH 23 0
BBX 21 31 1 0
BITMAP
0000C0
03C0C0
07FFC0
0FFF80
0C0F80
000000
000000
000000
002000
07FF00
0FFFC0
0FFFC0
1E01F0
3C00F0
3C00F0
780078
780078
780078
F00078
F00078
F00078
F00078
780078
7800F0
7800F0
3C00F0
3C01F0
1F03E0
1FFFC0
07FF80
03FE00
ENDCHAR
STARTCHAR odieresis
ENCODING 246
SWIDTH 556 0
DWIDTH 23 0
BBX 21 30 1 0
BITMAP
03CF00
03CF00
03CF00
03CF00
000000
000000
000000
002000
07FF00
0FFFC0
0FFFC0
1E01F0
3C00F0
3C00F0
780078
780078
780078
F00078
F00078
F00078
F00078
780078
7800F0
7800F0
3C00F0
3C01F0
1F03E0
1FFFC0
07FF80
03FE00
ENDCHAR
STARTCHAR divide
ENCODING 247
SWIDTH 548 0
DWIDTH 23 0
BBX 21 20 3 1
BITMAP
00F000
00F000
00F000
00F000
000000
000000
000000
000000
FFFFF8
FFFFF8
FFFFF8
FFFFF8
000000
000000
000000
000000
00F000
00F000
00F000
00F000
ENDCHAR
STARTCHAR oslash
ENCODING 248
SWIDTH 610 0
DWIDTH 26 0
BBX 21 23 3 0
BITMAP
01E010
07FE30
1FFFE0
3FFFC0
1E07C0
3C03E0
7C03F0
7806F0
F00CF0
F018F0
F030F0
F06078
F0C0F0
F0C0F0
F180F0
F300F0
7E00F0
7E01E0
7803C0
3E07C0
7FFF80
DFFF00
C7FC00
ENDCHAR
STARTCHAR ugrave
ENCODING 249
SWIDTH 556 0
DWIDTH 23 0
BBX 19 31 3 0
BITMAP
078000
078000
03C000
01C000
00E000
007000
000000
000000
000000
F003C0
F003C0
F003C0
F003C0
F003C0
F003C0
F003C0
F003C0
F003C0
F003C0
F003C0
F003C0
F003C0
F003C0
F003E0
F007C0
7807C0
780FC0
7C3FC0
3FFFC0
1FFBC0
0FE3C0
ENDCHAR
STARTCHAR uacute
ENCODING 250
SWIDTH 556 0
DWIDTH 23 0
BBX 19 31 3 0
BITMAP
00F800
00F000
01E000
01E000
038000
070000
000000
000000
000000
F003C0
F003C0
F003C0
F003C0
F003C0
F003C0
F003C0
F003C0
F003C0
F003C0
F003C0
F003C0
F003C0
F003C0
F003E0
F007C0
7807C0
780FC0
7C3FC0
3FFFC0
1FFBC0
0FE3C0
ENDCHAR
STARTCHAR ucircumflex
ENCODING 251
SWIDTH 556 0
DWIDTH 23 0
BBX 19 31 3 0
BITMAP
01F000
01F800
07B800
071E00
070E00
0E0E00
000000
000000
000000
F003C0
F003C0
F003C0
F003C0
F003C0
F003C0
F003C0
F003C0
F003C0
F003C0
F003C0
F003C0
F003C0
F003C0
F003E0
F007C0
7807C0
780FC0
7C3FC0
3FFFC0
1FFBC0
0FE3C0
ENDCHAR
STARTCHAR udieresis
ENCODING 252
SWIDTH 556 0
DWIDTH 23 0
BBX 19 30 3 0
BITMAP
0F1E00
0F1E00
0F1E00
0F1E00
000000
000000
000000
000000
F003C0
F003C0
F003C0
F003C0
F003C0
F003C0
F003C0
F003C0
F003C0
F003C0
F003C0
F003C0
F003C0
F003C0
F003E0
F007C0
7807C0
780FC0
7C3FC0
3FFFC0
1FFBC0
0FE3C0
ENDCHAR
STARTCHAR yacute
ENCODING 253
SWIDTH 500 0
DWIDTH 21 0
BBX 19 39 1 -8
BITMAP
007C00
007800
00F000
00F000
01C000
01C000
000000
000000
000000
F001E0
F001E0
7803C0
7803C0
7803C0
3C0780
3C0780
3C0780
1E0F00
1E0F00
1E0F00
0F1E00
0F1E00
0F1E00
07BC00
07BC00
07BC00
07F800
01F800
03F000
01F000
01E000
01E000
01E000
03C000
03C000
03C000
3F8000
7F0000
7F0000
ENDCHAR
STARTCHAR thorn
ENCODING 254
SWIDTH 556 0
DWIDTH 23 0
BBX 20 38 3 -8
BITMAP
700000
700000
700000
700000
700000
700000
700000
702000
73FE00
77FF00
7FFF80
7FFFC0
7C03C0
7C01E0
7801E0
F001E0
F000F0
F000F0
7000F0
7000F0
F000F0
F000F0
F001E0
7801E0
7801E0
7C03C0
7E07C0
FFFF80
F7FF80
F7FC00
F00000
F00000
F00000
F00000
F00000
F00000
F00000
F00000
ENDCHAR
STARTCHAR ydieresis
ENCODING 255
SWIDTH 500 0
DWIDTH 21 0
BBX 19 38 1 -8
BITMAP
0F1E00
0F1E00
0F1E00
0F1E00
000000
000000
000000
000000
F001E0
F001E0
7803C0
7803C0
7803C0
3C0780
3C0780
3C0780
1E0F00
1E0F00
1E0F00
0F1E00
0F1E00
0F1E00
07BC00
07BC00
07BC00
07F800
01F800
03F000
01F000
01E000
01E000
01E000
03C000
03C000
03C000
3F8000
7F0000
7F0000
ENDCHAR
STARTCHAR Amacron
ENCODING 256
SWIDTH 666 0
DWIDTH 28 0
BBX 28 35 1 0
BITMAP
00FFF800
00FFF800
00000000
00000000
000F8000
000F8000
001F8000
001FC000
003FC000
003FC000
0079E000
0079E000
0079E000
00F0F000
00F1F000
00F0F000
01E07800
01E07C00
03C07800
03C03C00
03C03E00
07803C00
07FFFE00
0FFFFE00
0FFFFE00
0F001F00
0F000F00
1E000780
1E000F80
3C000780
3C0003C0
3C0003E0
780003C0
F80001E0
780001F0
ENDCHAR
STARTCHAR amacron
ENCODING 257
SWIDTH 556 0
DWIDTH 23 0
BBX 22 28 2 0
BITMAP
0FFF80
0FFF80
000000
000000
000000
002000
0FFF00
0FFF00
3FFFC0
3C03E0
3C01E0
7801E0
0001E0
0001E0
001FE0
00FFE0
1FFFE0
3FE1E0
7F81E0
FC01E0
7801E0
F001E0
F003E0
7807E0
780FE0
7FFFF8
3FF8FC
0FF0FC
ENDCHAR
STARTCHAR Abreve
ENCODING 258
SWIDTH 666 0
DWIDTH 28 0
BBX 28 39 1 0
BITMAP
00C01800
00C01800
00E03800
007FF000
003FE000
000F8000
00000000
00000000
000F8000
000F8000
001F8000
001FC000
003FC000
003FC000
0079E000
0079E000
0079E000
00F0F000
00F1F000
00F0F000
01E07800
01E07C00
03C07800
03C03C00
03C03E00
07803C00
07FFFE00
0FFFFE00
0FFFFE00
0F001F00
0F000F00
1E000780
1E000F80
3C000780
3C0003C0
3C0003E0
780003C0
F80001E0
780001F0
ENDCHAR
STARTCHAR abreve
ENCODING 259
SWIDTH 556 0
DWIDTH 23 0
BBX 22 31 2 0
BITMAP
0C0180
0E0380
060300
0FFE00
03FC00
000000
000000
000000
002000
0FFF00
0FFF00
3FFFC0
3C03E0
3C01E0
7801E0
0001E0
0001E0
001FE0
00FFE0
1FFFE0
3FE1E0
7F81E0
FC01E0
7801E0
F001E0
F003E0
7807E0
780FE0
7FFFF8
3FF8FC
0FF0FC
ENDCHAR
STARTCHAR Aogonek
ENCODING 260
SWIDTH 666 0
DWIDTH 28 0
BBX 28 40 1 -9
BITMAP
000F8000
000F8000
001F8000
001FC000
003FC000
003FC000
0079E000
0079E000
0079E000
00F0F000
00F1F000
00F0F000
01E07800
01E07C00
03C07800
03C03C00
03C03E00
07803C00
07FFFE00
0FFFFE00
0FFFFE00
0F001F00
0F000F00
1E000780
1E000F80
3C000780
3C0003C0
3C0003E0
780003C0
F80001E0
780001F0
000001E0
00000780
00000700
00000700
00000F00
00000F10
000007F0
000007E0
000001C0
ENDCHAR
STARTCHAR aogonek
ENCODING 261
SWIDTH 556 0
DWIDTH 23 0
BBX 22 32 2 -9
BITMAP
002000
0FFF00
0FFF00
3FFFC0
3C03E0
3C01E0
7801E0
0001E0
0001E0
001FE0
00FFE0
1FFFE0
3FE1E0
7F81E0
FC01E0
7801E0
F001E0
F003E0
7807E0
780FE0
7FFFF8
3FF8FC
0FF0FC
0000F0
0000E0
0001C0
0001C0
0003C0
0003C4
0001FC
0001F8
000070
ENDCHAR
STARTCHAR Cacute
ENCODING 262
SWIDTH 722 0
DWIDTH 30 0
BBX 27 40 2 0
BITMAP
0001F000
0003C000
0003C000
00078000
00070000
000E0000
00000000
00000000
00000000
00020000
01FFFC00
07FFFE00
07FFFE00
0F801F80
1F000F80
3E0007C0
3E0003C0
3C0001E0
78000000
7C000000
F8000000
78000000
78000000
78000000
78000000
78000000
78000000
78000000
780001E0
780003E0
780001E0
3C0003C0
3E0007C0
3E0003C0
1F800F80
0FC03F00
0FF07F00
07FFFC00
01FFF800
007FE000
ENDCHAR
STARTCHAR cacute
ENCODING 263
SWIDTH 500 0
DWIDTH 21 0
BBX 19 32 1 0
BITMAP
001F00
003C00
003C00
007800
007000
00E000
000000
000000
000000
002000
07FF00
0FFF80
1FFFC0
3E03C0
7C03E0
7801E0
7801E0
780000
780000
780000
F00000
F00000
780000
780000
7801E0
7801E0
3C01E0
3C03E0
1F03C0
1FFF80
0FFF00
01FC00
ENDCHAR
STARTCHAR Ccircumflex
ENCODING 264
SWIDTH 722 0
DWIDTH 30 0
BBX 27 40 2 0
BITMAP
00078000
000FC000
001FC000
001CE000
003CE000
0070F000
00000000
00000000
00000000
00020000
01FFFC00
07FFFE00
07FFFE00
0F801F80
1F000F80
3E0007C0
3E0003C0
3C0001E0
78000000
7C000000
F8000000
78000000
78000000
78000000
78000000
78000000
78000000
78000000
780001E0
780003E0
780001E0
3C0003C0
3E0007C0
3E0003C0
1F800F80
0FC03F00
0FF07F00
07FFFC00
01FFF800
007FE000
ENDCHAR
STARTCHAR ccircumflex
ENCODING 265
SWIDTH 500 0
DWIDTH 21 0
BBX 19 31 1 0
BITMAP
007C00
00FC00
01CE00
01CE00
03CF00
070380
000000
000000
002000
07FF00
0FFF80
1FFFC0
3E03C0
7C03E0
7801E0
7801E0
780000
780000
780000
F00000
F00000
780000
780000
7801E0
7801E0
3C01E0
3C03E0
1F03C0
1FFF80
0FFF00
01FC00
ENDCHAR
STARTCHAR Cdotaccent
ENCODING 266
SWIDTH 722 0
DWIDTH 30 0
BBX 27 39 2 0
BITMAP
00078000
00078000
00078000
00078000
00000000
00000000
00000000
00000000
00020000
01FFFC00
07FFFE00
07FFFE00
0F801F80
1F000F80
3E0007C0
3E0003C0
3C0001E0
78000000
7C000000
F8000000
78000000
78000000
78000000
78000000
78000000
78000000
78000000
780001E0
780003E0
780001E0
3C0003C0
3E0007C0
3E0003C0
1F800F80
0FC03F00
0FF07F00
07FFFC00
01FFF800
007FE000
ENDCHAR
STARTCHAR cdotaccent
ENCODING 267
SWIDTH 500 0
DWIDTH 21 0
BBX 19 30 1 0
BITMAP
007800
007800
007800
007800
000000
000000
000000
002000
07FF00
0FFF80
1FFFC0
3E03C0
7C03E0
7801E0
7801E0
780000
780000
780000
F00000
F00000
780000
780000
7801E0
7801E0
3C01E0
3C03E0
1F03C0
1FFF80
0FFF00
01FC00
ENDCHAR
STARTCHAR Ccaron
ENCODING 268
SWIDTH 722 0
DWIDTH 30 0
BBX 27 40 2 0
BITMAP
00E07800
0078E000
0038E000
003BC000
001F8000
000F8000
00000000
00000000
00000000
00020000
01FFFC00
07FFFE00
07FFFE00
0F801F80
1F000F80
3E0007C0
3E0003C0
3C0001E0
78000000
7C000000
F8000000
78000000
78000000
78000000
78000000
78000000
78000000
78000000
780001E0
780003E0
780001E0
3C0003C0
3E0007C0
3E0003C0
1F800F80
0FC03F00
0FF07F00
07FFFC00
01FFF800
007FE000
ENDCHAR
STARTCHAR ccaron
ENCODING 269
SWIDTH 500 0
DWIDTH 21 0
BBX 19 31 1 0
BITMAP
0F0700
038F00
039C00
01FC00
01F800
00F000
000000
000000
002000
07FF00
0FFF80
1FFFC0
3E03C0
7C03E0
7801E0
7801E0
780000
780000
780000
F00000
F00000
780000
780000
7801E0
7801E0
3C01E0
3C03E0
1F03C0
1FFF80
0FFF00
01FC00
ENDCHAR
STARTCHAR Dcaron
ENCODING 270
SWIDTH 722 0
DWIDTH 30 0
BBX 26 39 3 0
BITMAP
01C1C000
01C1C000
00F78000
00F78000
007E0000
003E0000
00000000
00000000
7FF80000
FFFFC000
7FFFF000
FFFFF800
781FFC00
78007C00
78003E00
78001F00
78000F80
78000F00
78000780
78000F80
780007C0
78000780
78000780
78000780
78000780
78000780
780007C0
78000780
78000780
78000F00
78001F00
78001E00
78001E00
78007C00
7800FC00
7FFFF800
7FFFF000
7FFFC000
7FF80000
ENDCHAR
STARTCHAR dcaron
ENCODING 271
SWIDTH 660 0
DWIDTH 28 0
BBX 26 37 1 0
BITMAP
000003C0
000003C0
000003C0
000003C0
000000C0
000000C0
0000F0C0
0000F0C0
0000F1C0
0000F380
0000F200
0000F000
0000F000
0000F000
01C0F000
07FCF000
0FFFF000
1FFFF000
1F03F000
3E01F000
7C00F000
7800F000
7800F000
7800F000
F0007000
F0007000
F0007000
7800F000
7800F000
7800F000
7800F000
3C01F000
3C01F000
1F07F000
1FFF7000
07FE7000
03F87000
ENDCHAR
STARTCHAR Dcroat
ENCODING 272
SWIDTH 722 0
DWIDTH 30 0
BBX 27 31 2 0
BITMAP
3FF80000
3FFFE000
3FFFF800
3FFFFE00
3C03FF00
3C001F00
3C000F00
3C0007C0
3C0007C0
3C0003E0
3C0003C0
3C0001E0
3C0001E0
FFFE01E0
FFFE03E0
FFFE03E0
3C0001E0
3C0001E0
3C0001E0
3C0001E0
3C0003C0
3C0007C0
3C0003C0
3C0007C0
3C000F80
3C001F00
3C007E00
3FFFFC00
3FFFF800
3FFFE000
3FFC0000
ENDCHAR
STARTCHAR dcroat
ENCODING 273
SWIDTH 556 0
DWIDTH 23 0
BBX 23 31 1 0
BITMAP
0000F0
0000F0
0000F0
003FFE
003FFE
003FFE
0000F0
0000F0
01C0F0
07FCF0
0FFFF0
1FFFF0
1F03F0
3E01F0
7C00F0
7800F0
7800F0
7800F0
F00070
F00070
F00070
7800F0
7800F0
7800F0
7800F0
3C01F0
3C01F0
1F07F0
1FFF70
07FE70
03F870
ENDCHAR
STARTCHAR Emacron
ENCODING 274
SWIDTH 666 0
DWIDTH 28 0
BBX 23 36 4 0
BITMAP
03FFE0
03FFE0
03FFE0
000000
000000
FFFFFC
FFFFFC
FFFFFC
FFFFFC
F00000
F00000
F00000
F00000
F00000
F00000
F00000
F00000
F00000
FFFFF8
FFFFF8
FFFFF8
FFFFF8
F00000
F00000
F00000
F00000
F00000
F00000
F00000
F00000
F00000
F00000
7FFFFE
7FFFFE
7FFFFE
7FFFFE
ENDCHAR
STARTCHAR emacron
ENCODING 275
SWIDTH 556 0
DWIDTH 23 0
BBX 20 28 2 0
BITMAP
0FFF80
0FFF80
0FFF80
000000
000000
03C000
0FFC00
1FFF00
3FFF80
7C03C0
7C03C0
F001E0
F001E0
F001E0
F000F0
FFFFF0
FFFFF0
FFFFF0
F00000
F00000
F00000
F001E0
7801E0
7803C0
3E0F80
1FFF80
0FFF80
03FC00
ENDCHAR
STARTCHAR Ebreve
ENCODING 276
SWIDTH 666 0
DWIDTH 28 0
BBX 23 39 4 0
BITMAP
030060
0700C0
0380C0
03FF80
01FF00
007F00
000000
000000
FFFFFC
FFFFFC
FFFFFC
FFFFFC
F00000
F00000
F00000
F00000
F00000
F00000
F00000
F00000
F00000
FFFFF8
FFFFF8
FFFFF8
FFFFF8
F00000
F00000
F00000
F00000
F00000
F00000
F00000
F00000
F00000
F00000
7FFFFE
7FFFFE
7FFFFE
7FFFFE
ENDCHAR
STARTCHAR ebreve
ENCODING 277
SWIDTH 556 0
DWIDTH 23 0
BBX 20 31 2 0
BITMAP
0C0300
0E0700
0C0300
0FFE00
03FE00
00E000
000000
000000
03C000
0FFC00
1FFF00
3FFF80
7C03C0
7C03C0
F001E0
F001E0
F001E0
F000F0
FFFFF0
FFFFF0
FFFFF0
F00000
F00000
F00000
F001E0
7801E0
7803C0
3E0F80
1FFF80
0FFF80
03FC00
ENDCHAR
STARTCHAR Edotaccent
ENCODING 278
SWIDTH 666 0
DWIDTH 28 0
BBX 23 38 4 0
BITMAP
003C00
003C00
003C00
003C00
000000
000000
000000
FFFFFC
FFFFFC
FFFFFC
FFFFFC
F00000
F00000
F00000
F00000
F00000
F00000
F00000
F00000
F00000
FFFFF8
FFFFF8
FFFFF8
FFFFF8
F00000
F00000
F00000
F00000
F00000
F00000
F00000
F00000
F00000
F00000
7FFFFE
7FFFFE
7FFFFE
7FFFFE
ENDCHAR
STARTCHAR edotaccent
ENCODING 279
SWIDTH 556 0
DWIDTH 23 0
BBX 20 29 2 0
BITMAP
00F000
00F000
00F000
00F000
000000
000000
03C000
0FFC00
1FFF00
3FFF80
7C03C0
7C03C0
F001E0
F001E0
F001E0
F000F0
FFFFF0
FFFFF0
FFFFF0
F00000
F00000
F00000
F001E0
7801E0
7803C0
3E0F80
1FFF80
0FFF80
03FC00
ENDCHAR
STARTCHAR Eogonek
ENCODING 280
SWIDTH 666 0
DWIDTH 28 0
BBX 23 40 4 -9
BITMAP
FFFFFC
FFFFFC
FFFFFC
FFFFFC
F00000
F00000
F00000
F00000
F00000
F00000
F00000
F00000
F00000
FFFFF8
FFFFF8
FFFFF8
FFFFF8
F00000
F00000
F00000
F00000
F00000
F00000
F00000
F00000
F00000
F00000
7FFFFE
7FFFFE
7FFFFE
7FFFFE
000780
001E00
001C00
001C00
003C00
003C40
001FC0
001F80
000700
ENDCHAR
STARTCHAR eogonek
ENCODING 281
SWIDTH 556 0
DWIDTH 23 0
BBX 20 32 2 -9
BITMAP
03C000
0FFC00
1FFF00
3FFF80
7C03C0
7C03C0
F001E0
F001E0
F001E0
F000F0
FFFFF0
FFFFF0
FFFFF0
F00000
F00000
F00000
F001E0
7801E0
7803C0
3E0F80
1FFF80
0FFF80
03FC00
00E000
01E000
038000
078000
078000
078000
07F000
03F800
03F000
ENDCHAR
STARTCHAR Ecaron
ENCODING 282
SWIDTH 666 0
DWIDTH 28 0
BBX 23 38 4 0
BITMAP
03C380
01CF00
01CF00
00FE00
007C00
000000
000000
FFFFFC
FFFFFC
FFFFFC
FFFFFC
F00000
F00000
F00000
F00000
F00000
F00000
F00000
F00000
F00000
FFFFF8
FFFFF8
FFFFF8
FFFFF8
F00000
F00000
F00000
F00000
F00000
F00000
F00000
F00000
F00000
F00000
7FFFFE
7FFFFE
7FFFFE
7FFFFE
ENDCHAR
STARTCHAR ecaron
ENCODING 283
SWIDTH 556 0
DWIDTH 23 0
BBX 20 31 2 0
BITMAP
0E0F00
0F1C00
039C00
03F800
01F800
00F000
000000
000000
03C000
0FFC00
1FFF00
3FFF80
7C03C0
7C03C0
F001E0
F001E0
F001E0
F000F0
FFFFF0
FFFFF0
FFFFF0
F00000
F00000
F00000
F001E0
7801E0
7803C0
3E0F80
1FFF80
0FFF80
03FC00
ENDCHAR
STARTCHAR Gcircumflex
ENCODING 284
SWIDTH 777 0
DWIDTH 33 0
BBX 28 39 2 0
BITMAP
0007C000
000FC000
000FE000
003C7000
003C7000
00703C00
00000000
00000000
001E0000
00FFFC00
03FFFF00
07FFFF80
07C00FC0
1F000FC0
1F0003C0
3C0001E0
7C0001E0
3C0001E0
78000000
F8000000
78000000
78000000
7801FFF0
7801FFF0
7801FFF0
7801FFF0
780000F0
F80000F0
7C0000F0
780000F0
3C0001F0
3E0001F0
3E0003F0
1F0007F0
1F800FF0
07F07F70
07FFFE70
01FFFC70
007FF870
ENDCHAR
STARTCHAR gcircumflex
ENCODING 285
SWIDTH 556 0
DWIDTH 23 0
BBX 20 39 1 -9
BITMAP
01F000
03F800
079C00
071C00
070F00
000000
000000
01C000
07FC70
0FFF70
1FFF70
3E03F0
3C01F0
7800F0
7800F0
7800F0
7800F0
F00070
F00070
F000E0
F000F0
7800F0
7800F0
7800F0
7801F0
3C03F0
3F1FF0
1FFEF0
07FEF0
01F8F0
0000F0
0000F0
7801E0
7801E0
3C03C0
3F0FC0
1FFF80
0FFF00
01F800
ENDCHAR
STARTCHAR Gbreve
ENCODING 286
SWIDTH 777 0
DWIDTH 33 0
BBX 28 40 2 0
BITMAP
00C01800
00601C00
00701800
003CF000
007FE000
001FE000
00000000
00000000
00000000
001E0000
00FFFC00
03FFFF00
07FFFF80
07C00FC0
1F000FC0
1F0003C0
3C0001E0
7C0001E0
3C0001E0
78000000
F8000000
78000000
78000000
7801FFF0
7801FFF0
7801FFF0
7801FFF0
780000F0
F80000F0
7C0000F0
780000F0
3C0001F0
3E0001F0
3E0003F0
1F0007F0
1F800FF0
07F07F70
07FFFE70
01FFFC70
007FF870
ENDCHAR
STARTCHAR gbreve
ENCODING 287
SWIDTH 556 0
DWIDTH 23 0
BBX 20 40 1 -9
BITMAP
0C0180
0C0380
060300
0FFE00
03FC00
000000
000000
000000
01C000
07FC70
0FFF70
1FFF70
3E03F0
3C01F0
7800F0
7800F0
7800F0
7800F0
F00070
F00070
F000E0
F000F0
7800F0
7800F0
7800F0
7801F0
3C03F0
3F1FF0
1FFEF0
07FEF0
01F8F0
0000F0
0000F0
7801E0
7801E0
3C03C0
3F0FC0
1FFF80
0FFF00
01F800
ENDCHAR
STARTCHAR Gdotaccent
ENCODING 288
SWIDTH 777 0
DWIDTH 33 0
BBX 28 38 2 0
BITMAP
00078000
00078000
00078000
00078000
00000000
00000000
00000000
001E0000
00FFFC00
03FFFF00
07FFFF80
07C00FC0
1F000FC0
1F0003C0
3C0001E0
7C0001E0
3C0001E0
78000000
F8000000
78000000
78000000
7801FFF0
7801FFF0
7801FFF0
7801FFF0
780000F0
F80000F0
7C0000F0
780000F0
3C0001F0
3E0001F0
3E0003F0
1F0007F0
1F800FF0
07F07F70
07FFFE70
01FFFC70
007FF870
ENDCHAR
STARTCHAR gdotaccent
ENCODING 289
SWIDTH 556 0
DWIDTH 23 0
BBX 20 40 1 -9
BITMAP
00F000
00F000
00F000
00F000
00F000
000000
000000
000000
01C000
07FC70
0FFF70
1FFF70
3E03F0
3C01F0
7800F0
7800F0
7800F0
7800F0
F00070
F00070
F000E0
F000F0
7800F0
7800F0
7800F0
7801F0
3C03F0
3F1FF0
1FFEF0
07FEF0
01F8F0
0000F0
0000F0
7801E0
7801E0
3C03C0
3F0FC0
1FFF80
0FFF00
01F800
ENDCHAR
STARTCHAR Gcommaaccent
ENCODING 290
SWIDTH 777 0
DWIDTH 33 0
BBX 28 44 2 -13
BITMAP
001E0000
00FFFC00
03FFFF00
07FFFF80
07C00FC0
1F000FC0
1F0003C0
3C0001E0
7C0001E0
3C0001E0
78000000
F8000000
78000000
78000000
7801FFF0
7801FFF0
7801FFF0
7801FFF0
780000F0
F80000F0
7C0000F0
780000F0
3C0001F0
3E0001F0
3E0003F0
1F0007F0
1F800FF0
07F07F70
07FFFE70
01FFFC70
007FF870
00000000
00000000
00000000
00078000
00078000
00078000
00078000
00018000
00018000
00018000
00030000
00070000
00060000
ENDCHAR
STARTCHAR gcommaaccent
ENCODING 291
SWIDTH 556 0
DWIDTH 23 0
BBX 20 46 1 -9
BITMAP
000800
003800
003800
006000
006000
006000
006000
007800
007800
007800
007800
000000
000000
000000
01C000
07FC70
0FFF70
1FFF70
3E03F0
3C01F0
7800F0
7800F0
7800F0
7800F0
F00070
F00070
F000E0
F000F0
7800F0
7800F0
7800F0
7801F0
3C03F0
3F1FF0
1FFEF0
07FEF0
01F8F0
0000F0
0000F0
7801E0
7801E0
3C03C0
3F0FC0
1FFF80
0FFF00
01F800
ENDCHAR
STARTCHAR Hcircumflex
ENCODING 292
SWIDTH 722 0
DWIDTH 30 0
BBX 24 38 3 0
BITMAP
001E00
003F00
007700
007780
00F1C0
01C1C0
000000
78000F
78000F
78000F
78000F
78000F
78000F
78000F
78000F
78000F
78000F
78000F
78000F
78000F
FFFFFF
FFFFFF
FFFFFF
78000F
78000F
78000F
78000F
78000F
78000F
78000F
78000F
78000F
78000F
78000F
78000F
78000F
78000F
78000F
ENDCHAR
STARTCHAR hcircumflex
ENCODING 293
SWIDTH 556 0
DWIDTH 23 0
BBX 19 38 3 0
BITMAP
007C00
00FC00
01CE00
01C700
03C700
070780
000000
F00000
F00000
F00000
F00000
F00000
F00000
F00000
F00000
F02000
F1FF00
F7FF80
FFFF80
7E03C0
FC03E0
7803C0
7803C0
F003C0
F003C0
F003C0
F003C0
F003C0
F003C0
F003C0
F003C0
F003C0
F003C0
F003C0
F003C0
F003C0
F003C0
F003C0
ENDCHAR
STARTCHAR Hbar
ENCODING 294
SWIDTH 722 0
DWIDTH 30 0
BBX 28 31 2 0
BITMAP
3C0003C0
3C0003C0
3C0003C0
3C0003C0
3C0003C0
FFFFFFF0
FFFFFFF0
FFFFFFF0
3C0003C0
3C0003C0
3C0003C0
3C0003C0
3C0003C0
3FFFFFC0
3FFFFFC0
3FFFFFC0
3C0003C0
3C0003C0
3C0003C0
3C0003C0
3C0003C0
3C0003C0
3C0003C0
3C0003C0
3C0003C0
3C0003C0
3C0003C0
3C0003C0
3C0003C0
3C0003C0
3C0003C0
ENDCHAR
STARTCHAR hbar
ENCODING 295
SWIDTH 556 0
DWIDTH 23 0
BBX 19 31 2 0
BITMAP
780000
780000
780000
780000
FFF800
FFF800
780000
780000
781000
79FF80
7FFF80
7FFFC0
FE03E0
7E03C0
7C01E0
7801E0
7801E0
7801E0
7801E0
7801E0
7801E0
7801E0
7801E0
7801E0
7801E0
7801E0
7801E0
7801E0
7801E0
7801E0
7801E0
ENDCHAR
STARTCHAR Itilde
ENCODING 296
SWIDTH 444 0
DWIDTH 19 0
BBX 15 38 2 1
BITMAP
0006
060C
7FFC
7FF8
E0F8
0000
0000
0000
0780
0780
0780
0780
0780
0780
0780
0780
0780
0780
0780
0780
0780
0780
0780
0780
0780
0780
0780
0780
0780
0780
0780
0780
0780
0780
0780
0780
0780
0780
ENDCHAR
STARTCHAR itilde
ENCODING 297
SWIDTH 430 0
DWIDTH 18 0
BBX 15 32 1 1
BITMAP
0006
1E0C
7FFC
73FC
E0F8
0000
0000
0000
0000
0000
0000
0780
0780
0780
0780
0780
0780
0780
0780
0780
0780
0780
0780
0780
0780
0780
0780
0780
0780
0780
0780
0780
ENDCHAR
STARTCHAR Imacron
ENCODING 298
SWIDTH 399 0
DWIDTH 17 0
BBX 13 35 3 0
BITMAP
FFF8
FFF8
0000
0000
0F00
0F00
0F00
0F00
0F00
0F00
0F00
0F00
0F00
0F00
0F00
0F00
0F00
0F00
0F00
0F00
0F00
0F00
0F00
0F00
0F00
0F00
0F00
0F00
0F00
0F00
0F00
0F00
0F00
0F00
0F00
ENDCHAR
STARTCHAR imacron
ENCODING 299
SWIDTH 390 0
DWIDTH 16 0
BBX 13 28 3 0
BITMAP
FFF8
FFF8
FFF8
0000
0000
0000
0F00
0F00
0F00
0F00
0F00
0F00
0F00
0F00
0F00
0F00
0F00
0F00
0F00
0F00
0F00
0F00
0F00
0F00
0F00
0F00
0F00
0F00
ENDCHAR
STARTCHAR Ibreve
ENCODING 300
SWIDTH 277 0
DWIDTH 12 0
BBX 12 39 1 0
BITMAP
C030
E070
C030
7FE0
3FC0
0000
0000
0000
0F00
0F00
0F00
0F00
0F00
0F00
0F00
0F00
0F00
0F00
0F00
0F00
0F00
0F00
0F00
0F00
0F00
0F00
0F00
0F00
0F00
0F00
0F00
0F00
0F00
0F00
0F00
0F00
0F00
0F00
0F00
ENDCHAR
STARTCHAR ibreve
ENCODING 301
SWIDTH 277 0
DWIDTH 12 0
BBX 12 31 1 0
BITMAP
C030
E070
C030
7FE0
3FE0
0000
0000
0000
0000
1E00
1E00
1E00
1E00
1E00
1E00
1E00
1E00
1E00
1E00
1E00
1E00
1E00
1E00
1E00
1E00
1E00
1E00
1E00
1E00
1E00
1E00
ENDCHAR
STARTCHAR Iogonek
ENCODING 302
SWIDTH 277 0
DWIDTH 12 0
BBX 8 40 1 -9
BITMAP
1E
1E
1E
1E
1E
1E
1E
1E
1E
1E
1E
1E
1E
1E
1E
1E
1E
1E
1E
1E
1E
1E
1E
1E
1E
1E
1E
1E
1E
1E
1E
1C
38
38
F0
F0
79
7F
3F
0E
ENDCHAR
STARTCHAR iogonek
ENCODING 303
SWIDTH 222 0
DWIDTH 9 0
BBX 8 39 -1 -8
BITMAP
0F
0F
0F
0F
0F
00
00
00
00
0F
0F
0F
0F
0F
0F
0F
0F
0F
0F
0F
0F
0F
0F
0F
0F
0F
0F
0F
0F
0F
0F
1E
78
38
F0
F0
7F
7F
3F
ENDCHAR
STARTCHAR Idotaccent
ENCODING 304
SWIDTH 277 0
DWIDTH 12 0
BBX 5 38 4 0
BITMAP
F0
F0
F0
F0
F0
00
00
78
78
78
78
78
78
78
78
78
78
78
78
78
78
78
78
78
78
78
78
78
78
78
78
78
78
78
78
78
78
78
ENDCHAR
STARTCHAR dotlessi
ENCODING 305
SWIDTH 277 0
DWIDTH 12 0
BBX 4 22 4 0
BITMAP
F0
F0
F0
F0
F0
F0
F0
F0
F0
F0
F0
F0
F0
F0
F0
F0
F0
F0
F0
F0
F0
F0
ENDCHAR
STARTCHAR IJ
ENCODING 306
SWIDTH 777 0
DWIDTH 33 0
BBX 25 31 5 0
BITMAP
F0000780
F0000780
F0000780
F0000780
F0000780
F0000780
F0000780
F0000780
F0000780
F0000780
F0000780
F0000780
F0000780
F0000780
F0000780
F0000780
F0000780
F0000780
F0000780
F0000780
F0000780
F0F00780
F0F00780
F0F00780
F0F00780
F0F00F00
F0F00F00
F0781F00
F07FFE00
F03FFC00
F00FF800
ENDCHAR
STARTCHAR ij
ENCODING 307
SWIDTH 444 0
DWIDTH 19 0
BBX 14 39 3 -8
BITMAP
F03C
F03C
F03C
F03C
F03C
0000
0000
0000
0000
F03C
F03C
F03C
F03C
F03C
F03C
F03C
F03C
F03C
F03C
F03C
F03C
F03C
F03C
F03C
F03C
F03C
F03C
F03C
F03C
F03C
F03C
003C
003C
003C
003C
0078
03F8
01F8
03E0
ENDCHAR
STARTCHAR Jcircumflex
ENCODING 308
SWIDTH 500 0
DWIDTH 21 0
BBX 21 38 1 0
BITMAP
0007C0
0007E0
000FE0
001C78
001C38
007838
000000
0003C0
0003C0
0003C0
0003C0
0003C0
0003C0
0003C0
0003C0
0003C0
0003C0
0003C0
0003C0
0003C0
0003C0
0003C0
0003C0
0003C0
0003C0
0003C0
0003C0
0003C0
F003C0
F003C0
F003C0
780780
780780
7C0F80
781F00
3FFF00
1FFE00
0FF800
ENDCHAR
STARTCHAR jcircumflex
ENCODING 309
SWIDTH 222 0
DWIDTH 9 0
BBX 12 39 -2 -8
BITMAP
0F80
0FC0
1FE0
39E0
3870
F070
0000
0000
0000
0780
0780
0780
0780
0780
0780
0780
0780
0780
0780
0780
0780
0780
0780
0780
0780
0780
0780
0780
0780
0780
0780
0780
0780
0780
0780
0780
3F80
7F00
3E00
ENDCHAR
STARTCHAR Kcommaaccent
ENCODING 310
SWIDTH 666 0
DWIDTH 28 0
BBX 25 43 3 -12
BITMAP
F0001F80
F0003F00
F0007E00
F000FC00
F001F000
F003E000
F007C000
F00F8000
F01F0000
F03E0000
F07C0000
F0F80000
F1F00000
F3F80000
F7FC0000
FFFC0000
FF3E0000
FE1F0000
FC1F0000
F80F8000
F007C000
F003E000
F003E000
F003F000
F000F800
F000F800
F0007C00
F0003E00
F0001F00
F0001F00
F0001F80
00000000
00F80000
00F80000
00F80000
00F80000
00F80000
00300000
00300000
00300000
00600000
00F00000
00C00000
ENDCHAR
STARTCHAR kcommaaccent
ENCODING 311
SWIDTH 500 0
DWIDTH 21 0
BBX 19 43 3 -12
BITMAP
F00000
F00000
F00000
F00000
F00000
F00000
F00000
F00000
F00000
F00F80
F01F00
F03E00
F07C00
F0F800
F1F000
F3E000
F7C000
FFC000
7FE000
FFE000
7DF000
787800
F07800
F07C00
F03E00
F01F00
F01F00
F00F80
F007C0
F007C0
F003E0
000000
000000
01E000
01E000
01E000
01E000
006000
006000
00C000
01C000
01C000
030000
ENDCHAR
STARTCHAR kgreenlandic
ENCODING 312
SWIDTH 500 0
DWIDTH 21 0
BBX 19 22 3 0
BITMAP
F00F80
F01F00
F03E00
F07C00
F0F800
F1F000
F3E000
F7C000
FFC000
7FE000
FFE000
7DF000
787800
F07800
F07C00
F03E00
F01F00
F01F00
F00F80
F007C0
F007C0
F003E0
ENDCHAR
STARTCHAR Lacute
ENCODING 313
SWIDTH 556 0
DWIDTH 23 0
BBX 19 38 4 0
BITMAP
0F0000
3E0000
3C0000
780000
780000
E00000
000000
F00000
F00000
F00000
F00000
F00000
F00000
F00000
F00000
F00000
F00000
F00000
F00000
F00000
F00000
F00000
F00000
F00000
F00000
F00000
F00000
F00000
F00000
F00000
F00000
F00000
F00000
F00000
FFFFE0
FFFFE0
FFFFE0
FFFFE0
ENDCHAR
STARTCHAR lacute
ENCODING 314
SWIDTH 265 0
DWIDTH 11 0
BBX 8 38 3 0
BITMAP
0F
0F
1E
3C
38
70
00
F0
F0
F0
F0
F0
F0
F0
F0
F0
F0
F0
F0
F0
F0
F0
F0
F0
F0
F0
F0
F0
F0
F0
F0
F0
F0
F0
F0
F0
F0
F0
ENDCHAR
STARTCHAR Lcommaaccent
ENCODING 315
SWIDTH 556 0
DWIDTH 23 0
BBX 19 43 4 -12
BITMAP
F00000
F00000
F00000
F00000
F00000
F00000
F00000
F00000
F00000
F00000
F00000
F00000
F00000
F00000
F00000
F00000
F00000
F00000
F00000
F00000
F00000
F00000
F00000
F00000
F00000
F00000
F00000
FFFFE0
FFFFE0
FFFFE0
FFFFE0
000000
000000
01F000
01F000
01F000
01F000
006000
006000
00E000
00E000
01E000
01C000
ENDCHAR
STARTCHAR lcommaaccent
ENCODING 316
SWIDTH 222 0
DWIDTH 9 0
BBX 5 43 3 -12
BITMAP
F0
F0
F0
F0
F0
F0
F0
F0
F0
F0
F0
F0
F0
F0
F0
F0
F0
F0
F0
F0
F0
F0
F0
F0
F0
F0
F0
F0
F0
F0
F0
00
00
78
78
78
78
18
18
18
30
70
60
ENDCHAR
STARTCHAR Lcaron
ENCODING 317
SWIDTH 556 0
DWIDTH 23 0
BBX 19 31 4 0
BITMAP
F007C0
F007C0
F007C0
F007C0
F007C0
F00180
F00180
F00180
F00300
F00780
F00600
F00000
F00000
F00000
F00000
F00000
F00000
F00000
F00000
F00000
F00000
F00000
F00000
F00000
F00000
F00000
F00000
FFFFE0
FFFFE0
FFFFE0
FFFFE0
ENDCHAR
STARTCHAR lcaron
ENCODING 318
SWIDTH 262 0
DWIDTH 11 0
BBX 11 31 2 0
BITMAP
F0E0
F0E0
F0E0
F0E0
F0E0
F0E0
F0E0
F0E0
F0E0
F0E0
F0E0
F0E0
F000
F000
F000
F000
F000
F000
F000
F000
F000
F000
F000
F000
F000
F000
F000
F000
F000
F000
F000
ENDCHAR
STARTCHAR Ldotaccent
ENCODING 319
SWIDTH 556 0
DWIDTH 23 0
BBX 19 31 4 0
BITMAP
F00000
F00000
F00000
F00000
F00000
F00000
F00000
F00000
F00000
F00000
F00000
F00000
F07800
F07800
F07800
F07800
F07800
F00000
F00000
F00000
F00000
F00000
F00000
F00000
F00000
F00000
F00000
FFFFE0
FFFFE0
FFFFE0
FFFFE0
ENDCHAR
STARTCHAR ldotaccent
ENCODING 320
SWIDTH 310 0
DWIDTH 13 0
BBX 11 31 3 0
BITMAP
F000
F000
F000
F000
F000
F000
F000
F000
F000
F000
F000
F000
F1E0
F1E0
F1E0
F1E0
F000
F000
F000
F000
F000
F000
F000
F000
F000
F000
F000
F000
F000
F000
F000
ENDCHAR
STARTCHAR Lslash
ENCODING 321
SWIDTH 556 0
DWIDTH 23 0
BBX 23 31 0 0
BITMAP
0F0000
0F0000
0F0000
0F0000
0F0000
0F0000
0F0000
0F0000
0F0000
0F0200
0F0E00
0F3E00
0F7C00
0FF000
0FC000
1F8000
3F0000
FF0000
7F0000
CF0000
8F0000
0F0000
0F0000
0F0000
0F0000
0F0000
0F0000
0FFFFE
0FFFFE
0FFFFE
0FFFFE
ENDCHAR
STARTCHAR lslash
ENCODING 322
SWIDTH 222 0
DWIDTH 9 0
BBX 12 31 -1 0
BITMAP
0F00
0F00
0F00
0F00
0F00
0F00
0F00
0F00
0F00
0F00
0F00
0F30
0FE0
0FE0
0F80
1F00
3F00
7F00
EF00
4F00
0F00
0F00
0F00
0F00
0F00
0F00
0F00
0F00
0F00
0F00
0F00
ENDCHAR
STARTCHAR Nacute
ENCODING 323
SWIDTH 722 0
DWIDTH 30 0
BBX 25 38 3 0
BITMAP
0001E000
0003C000
00078000
000F0000
001E0000
001C0000
00000000
F8000F00
7C000F00
7E000F00
FE000F00
7F000F00
FF000F00
FF800F00
F7800F00
F3E00F00
F1E00F00
F1E00F00
F1F00F00
F0780F00
F0780F00
F07C0F00
F03C0F00
F01F0F00
F00F0F00
F00F0F00
F007CF00
F003CF00
F003CF00
F003EF00
F000FF00
F000FF00
F000FF00
F0007F00
F0003F80
F0003F00
F0001F00
F0000F80
ENDCHAR
STARTCHAR nacute
ENCODING 324
SWIDTH 556 0
DWIDTH 23 0
BBX 18 31 3 0
BITMAP
001F00
001F00
003C00
007800
007000
00E000
000000
000000
001000
71FF00
77FF80
7FFF80
FF07C0
7C03C0
7803C0
7803C0
F003C0
F003C0
F003C0
F003C0
F003C0
F003C0
F003C0
F003C0
F003C0
F003C0
F003C0
F003C0
F003C0
F003C0
F003C0
ENDCHAR
STARTCHAR Ncommaaccent
ENCODING 325
SWIDTH 722 0
DWIDTH 30 0
BBX 25 44 3 -13
BITMAP
F8000F00
7C000F00
7E000F00
FE000F00
7F000F00
FF000F00
FF800F00
F7800F00
F3E00F00
F1E00F00
F1E00F00
F1F00F00
F0780F00
F0780F00
F07C0F00
F03C0F00
F01F0F00
F00F0F00
F00F0F00
F007CF00
F003CF00
F003CF00
F003EF00
F000FF00
F000FF00
F000FF00
F0007F00
F0003F80
F0003F00
F0001F00
F0000F80
00000000
00000000
003C0000
003C0000
003C0000
003C0000
000C0000
000C0000
00180000
00180000
00380000
00700000
00400000
ENDCHAR
STARTCHAR ncommaaccent
ENCODING 326
SWIDTH 556 0
DWIDTH 23 0
BBX 18 35 3 -12
BITMAP
001000
71FF00
77FF80
7FFF80
FF07C0
7C03C0
7803C0
7803C0
F003C0
F003C0
F003C0
F003C0
F003C0
F003C0
F003C0
F003C0
F003C0
F003C0
F003C0
F003C0
F003C0
F003C0
F003C0
000000
000000
01E000
01E000
01E000
01E000
006000
006000
00E000
006000
01C000
018000
ENDCHAR
STARTCHAR Ncaron
ENCODING 327
SWIDTH 722 0
DWIDTH 30 0
BBX 25 38 3 0
BITMAP
01E1C000
00E1C000
00E78000
007F0000
003F0000
003E0000
00000000
F8000F00
7C000F00
7E000F00
FE000F00
7F000F00
FF000F00
FF800F00
F7800F00
F3E00F00
F1E00F00
F1E00F00
F1F00F00
F0780F00
F0780F00
F07C0F00
F03C0F00
F01F0F00
F00F0F00
F00F0F00
F007CF00
F003CF00
F003CF00
F003EF00
F000FF00
F000FF00
F000FF00
F0007F00
F0003F80
F0003F00
F0001F00
F0000F80
ENDCHAR
STARTCHAR ncaron
ENCODING 328
SWIDTH 556 0
DWIDTH 23 0
BBX 18 31 3 0
BITMAP
078700
038E00
038E00
01FE00
00FC00
007800
000000
000000
001000
71FF00
77FF80
7FFF80
FF07C0
7C03C0
7803C0
7803C0
F003C0
F003C0
F003C0
F003C0
F003C0
F003C0
F003C0
F003C0
F003C0
F003C0
F003C0
F003C0
F003C0
F003C0
F003C0
ENDCHAR
STARTCHAR napostrophe
ENCODING 329
SWIDTH 556 0
DWIDTH 23 0
BBX 23 36 0 0
BITMAP
780000
780000
780000
780000
780000
180000
180000
300000
300000
700000
C00000
000000
000000
000100
078FF8
07FFF8
07FFFC
07F83E
07E01E
07C01E
07801E
07801E
07801E
07801E
07801E
07801E
07801E
07801E
07801E
07801E
07801E
07801E
07801E
07801E
07801E
07801E
ENDCHAR
STARTCHAR Eng
ENCODING 330
SWIDTH 722 0
DWIDTH 30 0
BBX 25 39 3 -8
BITMAP
F8000F00
7C000F00
7E000F00
FE000F00
7F000F00
FF000F00
FF800F00
F7800F00
F3E00F00
F1E00F00
F1E00F00
F1F00F00
F0780F00
F0780F00
F07C0F00
F03C0F00
F01F0F00
F00F0F00
F00F0F00
F007CF00
F003CF00
F003CF00
F003EF00
F000FF00
F000FF00
F000FF00
F0007F00
F0003F80
F0003F00
F0001F00
F0000F80
00000780
00000780
00000780
00000F00
00000F00
00007F00
00007E00
00007C00
ENDCHAR
STARTCHAR eng
ENCODING 331
SWIDTH 556 0
DWIDTH 23 0
BBX 19 31 3 -8
BITMAP
001000
71FF00
77FF80
7FFF80
FF07C0
7C03C0
7803C0
7803C0
F003C0
F003C0
F003C0
F003C0
F003C0
F003C0
F003C0
F003C0
F003C0
F003C0
F003C0
F003C0
F003C0
F003C0
F003C0
0001E0
0001E0
0001E0
0003C0
0003C0
001FC0
001F80
001F00
ENDCHAR
STARTCHAR Omacron
ENCODING 332
SWIDTH 777 0
DWIDTH 33 0
BBX 30 36 2 0
BITMAP
00FFF800
00FFF800
00000000
00000000
00000000
00010000
01FFFE00
03FFFF80
07FFFFC0
0FC007E0
0F8003E0
1F0001F0
3E0000F8
7C0000F8
3C0000F8
78000078
7C000078
7800003C
7800003C
7800003C
7800003C
7800003C
7800003C
78000078
F8000078
780000F8
78000078
7C0000F8
3E0001F0
3E0001E0
1F0007E0
0FC00FC0
0FF83FC0
07FFFF00
01FFFC00
007FF000
ENDCHAR
STARTCHAR omacron
ENCODING 333
SWIDTH 556 0
DWIDTH 23 0
BBX 21 28 1 0
BITMAP
0FFF80
0FFF80
000000
000000
000000
002000
07FF00
0FFFC0
0FFFC0
1E01F0
3C00F0
3C00F0
780078
780078
780078
F00078
F00078
F00078
F00078
780078
7800F0
7800F0
3C00F0
3C01F0
1F03E0
1FFFC0
07FF80
03FE00
ENDCHAR
STARTCHAR Obreve
ENCODING 334
SWIDTH 777 0
DWIDTH 33 0
BBX 30 39 2 0
BITMAP
00600C00
00703800
00601800
007FF000
001FE000
00000000
00000000
00000000
00010000
01FFFE00
03FFFF80
07FFFFC0
0FC007E0
0F8003E0
1F0001F0
3E0000F8
7C0000F8
3C0000F8
78000078
7C000078
7800003C
7800003C
7800003C
7800003C
7800003C
7800003C
78000078
F8000078
780000F8
78000078
7C0000F8
3E0001F0
3E0001E0
1F0007E0
0FC00FC0
0FF83FC0
07FFFF00
01FFFC00
007FF000
ENDCHAR
STARTCHAR obreve
ENCODING 335
SWIDTH 556 0
DWIDTH 23 0
BBX 21 31 1 0
BITMAP
0600C0
0E0180
070380
07CF00
03FF00
00FF00
000000
000000
002000
07FF00
0FFFC0
0FFFC0
1E01F0
3C00F0
3C00F0
780078
780078
780078
F00078
F00078
F00078
F00078
780078
7800F0
7800F0
3C00F0
3C01F0
1F03E0
1FFFC0
07FF80
03FE00
ENDCHAR
STARTCHAR Ohungarumlaut
ENCODING 336
SWIDTH 777 0
DWIDTH 33 0
BBX 30 39 2 0
BITMAP
000F1F00
000F3C00
001E3C00
001C3800
00387000
0038E000
00000000
00000000
00010000
01FFFE00
03FFFF80
07FFFFC0
0FC007E0
0F8003E0
1F0001F0
3E0000F8
7C0000F8
3C0000F8
78000078
7C000078
7800003C
7800003C
7800003C
7800003C
7800003C
7800003C
78000078
F8000078
780000F8
78000078
7C0000F8
3E0001F0
3E0001E0
1F0007E0
0FC00FC0
0FF83FC0
07FFFF00
01FFFC00
007FF000
ENDCHAR
STARTCHAR ohungarumlaut
ENCODING 337
SWIDTH 556 0
DWIDTH 23 0
BBX 21 32 1 0
BITMAP
01F1E0
01E7C0
01E780
038700
038700
070E00
000000
000000
000000
002000
07FF00
0FFFC0
0FFFC0
1E01F0
3C00F0
3C00F0
780078
780078
780078
F00078
F00078
F00078
F00078
780078
7800F0
7800F0
3C00F0
3C01F0
1F03E0
1FFFC0
07FF80
03FE00
ENDCHAR
STARTCHAR OE
ENCODING 338
SWIDTH 1000 0
DWIDTH 42 0
BBX 39 31 2 0
BITMAP
00780FFFFE
03FF8FFFFE
0FFFEFFFFE
1FFFFFFFFC
1F007F0000
3E003F0000
3C001F0000
78000F0000
F8000F0000
F0000F0000
F0000F0000
F0000F0000
F0000F0000
F0000FFFFC
F0000FFFFC
F0000FFFFC
F0000FFFFC
F0000F0000
F0000F0000
F0000F0000
F8000F0000
F0000F0000
78000F0000
7C001F0000
3C001F0000
3C003F0000
1F00FF0000
1FC1FFFFFE
0FFFEFFFFE
03FFCFFFFE
00FF8FFFFE
ENDCHAR
STARTCHAR oe
ENCODING 339
SWIDTH 943 0
DWIDTH 40 0
BBX 37 23 1 0
BITMAP
0020001000
07FF03FE00
0FFF87FFC0
1FFFEFFFE0
3E01FF01E0
3E01FC00F0
7800F800F8
7800F800F0
7800780078
7800780078
F0007FFFF8
F0007FFFF8
F0007FFFF8
F000780000
7800780000
7800780000
7800F80078
3C00FC00F0
3E01FC01E0
1F03FF03E0
1FFF9FFFC0
07FF87FFC0
03FE03FE00
ENDCHAR
STARTCHAR Racute
ENCODING 340
SWIDTH 722 0
DWIDTH 30 0
BBX 25 39 4 0
BITMAP
001F0000
003C0000
003C0000
00780000
00E00000
00E00000
00000000
00000000
FFFC0000
FFFFF000
7FFFFC00
7FFFFE00
7803FE00
78003F00
78001F00
78000F00
78000F00
78000F00
78000F00
78000F00
78001E00
78003E00
7FFFFC00
FFFFF000
FFFFF000
7FFFFE00
78003E00
78001F00
78000F00
78000F00
78000F00
78000F00
78000F00
78000F00
78000F00
78001F00
78000F00
78000F80
78000F80
ENDCHAR
STARTCHAR racute
ENCODING 341
SWIDTH 333 0
DWIDTH 14 0
BBX 12 31 3 0
BITMAP
0F80
1E00
1E00
3800
3800
7000
0000
0000
0030
73E0
73E0
7FE0
7FC0
7C00
7C00
7800
F000
F000
F000
F000
F000
F000
F000
F000
F000
F000
F000
F000
F000
F000
F000
ENDCHAR
STARTCHAR Rcommaaccent
ENCODING 342
SWIDTH 722 0
DWIDTH 30 0
BBX 25 43 4 -12
BITMAP
FFFC0000
FFFFF000
7FFFFC00
7FFFFE00
7803FE00
78003F00
78001F00
78000F00
78000F00
78000F00
78000F00
78000F00
78001E00
78003E00
7FFFFC00
FFFFF000
FFFFF000
7FFFFE00
78003E00
78001F00
78000F00
78000F00
78000F00
78000F00
78000F00
78000F00
78000F00
78001F00
78000F00
78000F80
78000F80
00000000
007C0000
007C0000
007C0000
007C0000
007C0000
000C0000
000C0000
000C0000
001C0000
00780000
00600000
ENDCHAR
STARTCHAR rcommaaccent
ENCODING 343
SWIDTH 333 0
DWIDTH 14 0
BBX 12 35 3 -12
BITMAP
0030
73E0
73E0
7FE0
7FC0
7C00
7C00
7800
F000
F000
F000
F000
F000
F000
F000
F000
F000
F000
F000
F000
F000
F000
F000
0000
0000
7800
7800
7800
7800
1800
1800
1800
3800
7000
6000
ENDCHAR
STARTCHAR Rcaron
ENCODING 344
SWIDTH 722 0
DWIDTH 30 0
BBX 25 38 4 0
BITMAP
03838000
038F0000
01EF0000
01FC0000
00FC0000
00780000
00000000
FFFC0000
FFFFF000
7FFFFC00
7FFFFE00
7803FE00
78003F00
78001F00
78000F00
78000F00
78000F00
78000F00
78000F00
78001E00
78003E00
7FFFFC00
FFFFF000
FFFFF000
7FFFFE00
78003E00
78001F00
78000F00
78000F00
78000F00
78000F00
78000F00
78000F00
78000F00
78001F00
78000F00
78000F80
78000F80
ENDCHAR
STARTCHAR rcaron
ENCODING 345
SWIDTH 333 0
DWIDTH 14 0
BBX 12 31 2 0
BITMAP
F0F0
71C0
71C0
3FC0
1F80
0F00
0000
0000
0010
79F0
79F0
7FF0
7FE0
7E00
7E00
7C00
7800
7800
7800
7800
7800
7800
7800
7800
7800
7800
7800
7800
7800
7800
7800
ENDCHAR
STARTCHAR Sacute
ENCODING 346
SWIDTH 666 0
DWIDTH 28 0
BBX 25 39 2 0
BITMAP
000F8000
000F0000
001E0000
001E0000
00380000
00700000
00000000
00000000
00080000
07FFE000
0FFFF000
1FFFFC00
3E007C00
3E003E00
3C003E00
3C001E00
78000F00
3C000000
7C000000
3F000000
3FC00000
1FFC0000
0FFF8000
07FFF800
003FFC00
0003FE00
00003F00
00001F80
00000F00
F0000F00
78000F00
78000F00
78000F00
78000F00
7E003E00
3F807E00
0FFFFC00
0FFFF800
03FFC000
ENDCHAR
STARTCHAR sacute
ENCODING 347
SWIDTH 500 0
DWIDTH 21 0
BBX 19 32 1 0
BITMAP
003E00
007C00
007800
00F000
00F000
01C000
000000
000000
000000
004000
1FFE00
1FFF00
3FFF80
3C0780
7803C0
7803C0
780000
7C0000
3FC000
3FE000
1FFF00
01FF00
003FC0
0003E0
0001E0
F001E0
7801E0
7803C0
7C03C0
3FFF80
1FFF80
07FE00
ENDCHAR
STARTCHAR Scircumflex
ENCODING 348
SWIDTH 666 0
DWIDTH 28 0
BBX 25 39 2 0
BITMAP
003E0000
007E0000
00778000
01E38000
01C38000
01C1E000
00000000
00000000
00080000
07FFE000
0FFFF000
1FFFFC00
3E007C00
3E003E00
3C003E00
3C001E00
78000F00
3C000000
7C000000
3F000000
3FC00000
1FFC0000
0FFF8000
07FFF800
003FFC00
0003FE00
00003F00
00001F80
00000F00
F0000F00
78000F00
78000F00
78000F00
78000F00
7E003E00
3F807E00
0FFFFC00
0FFFF800
03FFC000
ENDCHAR
STARTCHAR scircumflex
ENCODING 349
SWIDTH 500 0
DWIDTH 21 0
BBX 19 31 1 0
BITMAP
01F000
01F800
03B800
03BC00
070E00
0F0E00
000000
000000
004000
1FFE00
1FFF00
3FFF80
3C0780
7803C0
7803C0
780000
7C0000
3FC000
3FE000
1FFF00
01FF00
003FC0
0003E0
0001E0
F001E0
7801E0
7803C0
7C03C0
3FFF80
1FFF80
07FE00
ENDCHAR
STARTCHAR Scedilla
ENCODING 350
SWIDTH 666 0
DWIDTH 28 0
BBX 25 40 2 -9
BITMAP
00080000
07FFE000
0FFFF000
1FFFFC00
3E007C00
3E003E00
3C003E00
3C001E00
78000F00
3C000000
7C000000
3F000000
3FC00000
1FFC0000
0FFF8000
07FFF800
003FFC00
0003FE00
00003F00
00001F80
00000F00
F0000F00
78000F00
78000F00
78000F00
78000F00
7E003E00
3F807E00
0FFFFC00
0FFFF800
03FFC000
00180000
00300000
00780000
007E0000
00078000
00070000
00878000
00FF0000
01FE0000
ENDCHAR
STARTCHAR scedilla
ENCODING 351
SWIDTH 500 0
DWIDTH 21 0
BBX 19 32 1 -9
BITMAP
004000
1FFE00
1FFF00
3FFF80
3C0780
7803C0
7803C0
780000
7C0000
3FC000
3FE000
1FFF00
01FF00
003FC0
0003E0
0001E0
F001E0
7801E0
7803C0
7C03C0
3FFF80
1FFF80
0FFC00
00C000
018000
01E000
01F800
003C00
001C00
043C00
07F800
07F800
ENDCHAR
STARTCHAR Scaron
ENCODING 352
SWIDTH 666 0
DWIDTH 28 0
BBX 25 40 2 0
BITMAP
01E0E000
00E3C000
00E38000
007B8000
007F0000
003E0000
00000000
00000000
00000000
00080000
07FFE000
0FFFF000
1FFFFC00
3E007C00
3E003E00
3C003E00
3C001E00
78000F00
3C000000
7C000000
3F000000
3FC00000
1FFC0000
0FFF8000
07FFF800
003FFC00
0003FE00
00003F00
00001F80
00000F00
F0000F00
78000F00
78000F00
78000F00
78000F00
7E003E00
3F807E00
0FFFFC00
0FFFF800
03FFC000
ENDCHAR
STARTCHAR scaron
ENCODING 353
SWIDTH 500 0
DWIDTH 21 0
BBX 19 31 1 0
BITMAP
0E0E00
079C00
039C00
03BC00
01F800
00F000
000000
000000
004000
1FFE00
1FFF00
3FFF80
3C0780
7803C0
7803C0
780000
7C0000
3FC000
3FE000
1FFF00
01FF00
003FC0
0003E0
0001E0
F001E0
7801E0
7803C0
7C03C0
3FFF80
1FFF80
07FE00
ENDCHAR
STARTCHAR Tcedilla
ENCODING 354
SWIDTH 610 0
DWIDTH 26 0
BBX 24 40 2 -9
BITMAP
FFFFFF
FFFFFF
FFFFFF
FFFFFF
003C00
003C00
003C00
003C00
003C00
003C00
003C00
003C00
003C00
003C00
003C00
003C00
003C00
003C00
003C00
003C00
003C00
003C00
003C00
003C00
003C00
003C00
003C00
003C00
003C00
003C00
003C00
001800
003000
007800
007E00
000780
000700
008F00
00FF00
01FE00
ENDCHAR
STARTCHAR tcedilla
ENCODING 355
SWIDTH 277 0
DWIDTH 12 0
BBX 12 38 1 -9
BITMAP
3C00
3C00
3C00
3C00
3C00
3C00
3C00
FFC0
FFC0
FFC0
3C00
3C00
3C00
3C00
3C00
3C00
3C00
3C00
3C00
3C00
3C00
3C00
3C00
3C00
3C00
1E00
1FC0
0FC0
0FC0
0300
0600
0F00
07E0
00F0
0070
10E0
1FE0
1FE0
ENDCHAR
STARTCHAR Tcaron
ENCODING 356
SWIDTH 610 0
DWIDTH 26 0
BBX 24 39 2 0
BITMAP
03C1C0
01C780
01C700
00F700
007E00
007C00
000000
000000
FFFFFF
FFFFFF
FFFFFF
FFFFFF
003C00
003C00
003C00
003C00
003C00
003C00
003C00
003C00
003C00
003C00
003C00
003C00
003C00
003C00
003C00
003C00
003C00
003C00
003C00
003C00
003C00
003C00
003C00
003C00
003C00
003C00
003C00
ENDCHAR
STARTCHAR tcaron
ENCODING 357
SWIDTH 359 0
DWIDTH 15 0
BBX 14 35 1 0
BITMAP
007C
007C
007C
007C
007C
000C
3C0C
3C0C
3C1C
3C78
3C30
3C00
3C00
FFC0
FFC0
FFC0
3C00
3C00
3C00
3C00
3C00
3C00
3C00
3C00
3C00
3C00
3C00
3C00
3C00
3C00
3C00
1E00
1FC0
0FC0
0FC0
ENDCHAR
STARTCHAR Tbar
ENCODING 358
SWIDTH 610 0
DWIDTH 26 0
BBX 24 31 2 0
BITMAP
FFFFFF
FFFFFF
FFFFFF
FFFFFF
003C00
003C00
003C00
003C00
003C00
003C00
003C00
003C00
003C00
003C00
03FFE0
03FFE0
003C00
003C00
003C00
003C00
003C00
003C00
003C00
003C00
003C00
003C00
003C00
003C00
003C00
003C00
003C00
ENDCHAR
STARTCHAR tbar
ENCODING 359
SWIDTH 319 0
DWIDTH 13 0
BBX 13 29 0 0
BITMAP
1E00
1E00
1E00
1E00
1E00
1E00
1E00
7FE0
7FE0
7FE0
1E00
1E00
1E00
FFF8
FFF8
FFF8
1E00
1E00
1E00
1E00
1E00
1E00
1E00
1E00
1E00
1F00
0FE0
07E0
07E0
ENDCHAR
STARTCHAR Utilde
ENCODING 360
SWIDTH 722 0
DWIDTH 30 0
BBX 25 38 3 0
BITMAP
00006000
00606000
03FFE000
07BFC000
0707C000
00000000
00000000
78000F00
78000F00
78000F00
78000F00
78000F00
78000F00
78000F00
78000F00
78000F00
78000F00
78000F00
78000F00
78000F00
78000F00
78000F00
78000F00
78000F00
78000F00
78000F00
78000F00
78000F80
78000F00
F8000F00
78001E00
3C001E00
3E003E00
3F007E00
1FC1FC00
0FFFF800
07FFE000
01FF8000
ENDCHAR
STARTCHAR utilde
ENCODING 361
SWIDTH 556 0
DWIDTH 23 0
BBX 19 30 3 0
BITMAP
0F0700
1FC300
3FFE00
39FE00
300000
000000
000000
000000
F003C0
F003C0
F003C0
F003C0
F003C0
F003C0
F003C0
F003C0
F003C0
F003C0
F003C0
F003C0
F003C0
F003C0
F003E0
F007C0
7807C0
780FC0
7C3FC0
3FFFC0
1FFBC0
0FE3C0
ENDCHAR
STARTCHAR Umacron
ENCODING 362
SWIDTH 722 0
DWIDTH 30 0
BBX 25 35 3 0
BITMAP
03FFE000
03FFE000
00000000
00000000
78000F00
78000F00
78000F00
78000F00
78000F00
78000F00
78000F00
78000F00
78000F00
78000F00
78000F00
78000F00
78000F00
78000F00
78000F00
78000F00
78000F00
78000F00
78000F00
78000F00
78000F80
78000F00
F8000F00
78001E00
3C001E00
3E003E00
3F007E00
1FC1FC00
0FFFF800
07FFE000
01FF8000
ENDCHAR
STARTCHAR umacron
ENCODING 363
SWIDTH 556 0
DWIDTH 23 0
BBX 19 28 3 0
BITMAP
1FFF00
1FFF00
1FFF00
000000
000000
000000
F003C0
F003C0
F003C0
F003C0
F003C0
F003C0
F003C0
F003C0
F003C0
F003C0
F003C0
F003C0
F003C0
F003C0
F003E0
F007C0
7807C0
780FC0
7C3FC0
3FFFC0
1FFBC0
0FE3C0
ENDCHAR
STARTCHAR Ubreve
ENCODING 364
SWIDTH 722 0
DWIDTH 30 0
BBX 25 38 3 0
BITMAP
07006000
03006000
0380E000
01F7C000
01FF8000
003F8000
00000000
78000F00
78000F00
78000F00
78000F00
78000F00
78000F00
78000F00
78000F00
78000F00
78000F00
78000F00
78000F00
78000F00
78000F00
78000F00
78000F00
78000F00
78000F00
78000F00
78000F00
78000F80
78000F00
F8000F00
78001E00
3C001E00
3E003E00
3F007E00
1FC1FC00
0FFFF800
07FFE000
01FF8000
ENDCHAR
STARTCHAR ubreve
ENCODING 365
SWIDTH 556 0
DWIDTH 23 0
BBX 19 30 3 0
BITMAP
180300
1C0300
0E0600
0FFC00
03FC00
000000
000000
000000
F003C0
F003C0
F003C0
F003C0
F003C0
F003C0
F003C0
F003C0
F003C0
F003C0
F003C0
F003C0
F003C0
F003C0
F003E0
F007C0
7807C0
780FC0
7C3FC0
3FFFC0
1FFBC0
0FE3C0
ENDCHAR
STARTCHAR Uring
ENCODING 366
SWIDTH 722 0
DWIDTH 30 0
BBX 25 40 3 0
BITMAP
00080000
003F0000
00E18000
00C18000
00C18000
00618000
007F0000
003F0000
00000000
78000F00
78000F00
78000F00
78000F00
78000F00
78000F00
78000F00
78000F00
78000F00
78000F00
78000F00
78000F00
78000F00
78000F00
78000F00
78000F00
78000F00
78000F00
78000F00
78000F00
78000F80
78000F00
F8000F00
78001E00
3C001E00
3E003E00
3F007E00
1FC1FC00
0FFFF800
07FFE000
01FF8000
ENDCHAR
STARTCHAR uring
ENCODING 367
SWIDTH 556 0
DWIDTH 23 0
BBX 19 32 3 0
BITMAP
004000
01F800
01F800
030C00
060C00
060C00
031800
01F800
01F800
000000
F003C0
F003C0
F003C0
F003C0
F003C0
F003C0
F003C0
F003C0
F003C0
F003C0
F003C0
F003C0
F003C0
F003C0
F003E0
F007C0
7807C0
780FC0
7C3FC0
3FFFC0
1FFBC0
0FE3C0
ENDCHAR
STARTCHAR Uhungarumlaut
ENCODING 368
SWIDTH 722 0
DWIDTH 30 0
BBX 25 39 3 0
BITMAP
0078F000
0078F000
00F1E000
00F3C000
01C38000
01C38000
00000000
00000000
78000F00
78000F00
78000F00
78000F00
78000F00
78000F00
78000F00
78000F00
78000F00
78000F00
78000F00
78000F00
78000F00
78000F00
78000F00
78000F00
78000F00
78000F00
78000F00
78000F00
78000F80
78000F00
F8000F00
78001E00
3C001E00
3E003E00
3F007E00
1FC1FC00
0FFFF800
07FFE000
01FF8000
ENDCHAR
STARTCHAR uhungarumlaut
ENCODING 369
SWIDTH 556 0
DWIDTH 23 0
BBX 19 31 3 0
BITMAP
03E780
078F00
078F00
071C00
0E1C00
1C3800
000000
000000
000000
F003C0
F003C0
F003C0
F003C0
F003C0
F003C0
F003C0
F003C0
F003C0
F003C0
F003C0
F003C0
F003C0
F003C0
F003E0
F007C0
7807C0
780FC0
7C3FC0
3FFFC0
1FFBC0
0FE3C0
ENDCHAR
STARTCHAR Uogonek
ENCODING 370
SWIDTH 722 0
DWIDTH 30 0
BBX 25 40 3 -9
BITMAP
78000F00
78000F00
78000F00
78000F00
78000F00
78000F00
78000F00
78000F00
78000F00
78000F00
78000F00
78000F00
78000F00
78000F00
78000F00
78000F00
78000F00
78000F00
78000F00
78000F00
78000F80
78000F00
F8000F00
78001E00
3C001E00
3E003E00
3F007E00
1FC1FC00
0FFFF800
07FFE000
01FF8000
003C0000
00780000
00E00000
01E00000
01E00000
01E00000
01FC0000
01FC0000
00FE0000
ENDCHAR
STARTCHAR uogonek
ENCODING 371
SWIDTH 556 0
DWIDTH 23 0
BBX 19 31 3 -9
BITMAP
F003C0
F003C0
F003C0
F003C0
F003C0
F003C0
F003C0
F003C0
F003C0
F003C0
F003C0
F003C0
F003C0
F003C0
F003E0
F007C0
7807C0
780FC0
7C3FC0
3FFFC0
1FFBC0
0FE3C0
000700
000E00
000E00
001E00
001E00
001E40
001FC0
001FC0
000380
ENDCHAR
STARTCHAR Wcircumflex
ENCODING 372
SWIDTH 943 0
DWIDTH 40 0
BBX 38 39 1 0
BITMAP
00007C0000
00007E0000
0000EE0000
0000E78000
0001C38000
0003C1C000
0000000000
0000000000
78003C003C
F8007C003C
78007E007C
78007E003C
3C00FE0078
7C00FF0078
3C00FF00F8
3C01EF0078
1E01EF00F0
3E01E780F0
1E03C780F8
1E03C780F0
0F03C780F0
0F03C3C1E0
0F0783C1F0
0F0783C1E0
078783C1E0
078F01E3C0
078F01E3C0
078F01E3C0
03CF00F3C0
03DE00F780
03DE00F780
03DE00F780
01FE007F80
01FC007F00
00FC003F00
00FC003F00
00FC003F00
00F8003E00
00F0001E00
ENDCHAR
STARTCHAR wcircumflex
ENCODING 373
SWIDTH 722 0
DWIDTH 30 0
BBX 29 31 1 0
BITMAP
000F8000
001F8000
001FC000
0078E000
0078E000
00E07800
00000000
00000000
00000000
F00F8078
F00F80F0
F01F80F0
781F80F0
781FC1E0
781F81E0
7839C1C0
3C3BC1E0
3C39C3C0
3C39C1C0
3C70E380
1E71E780
1C70E380
0E70E700
1EE07700
0EE0F700
07E07700
07E07E00
07E07E00
07C03E00
03C03C00
03C03C00
ENDCHAR
STARTCHAR Ycircumflex
ENCODING 374
SWIDTH 666 0
DWIDTH 28 0
BBX 27 39 1 0
BITMAP
000F8000
001F8000
001DC000
0079C000
0070F000
00707000
00000000
00000000
F80003E0
7C0003E0
3E0007C0
3E0007C0
1F000F80
1F001F00
0F801F00
07C03E00
07C07C00
03C07800
01F07800
00F0F800
00F1E000
00FBE000
003FC000
003FC000
003F8000
001F0000
000F0000
000F0000
000F0000
000F0000
000F0000
000F0000
000F0000
000F0000
000F0000
000F0000
000F0000
000F0000
000F0000
ENDCHAR
STARTCHAR ycircumflex
ENCODING 375
SWIDTH 500 0
DWIDTH 21 0
BBX 19 39 1 -8
BITMAP
01F000
01F800
03F800
071E00
070E00
1E0E00
000000
000000
000000
F001E0
F001E0
7803C0
7803C0
7803C0
3C0780
3C0780
3C0780
1E0F00
1E0F00
1E0F00
0F1E00
0F1E00
0F1E00
07BC00
07BC00
07BC00
07F800
01F800
03F000
01F000
01E000
01E000
01E000
03C000
03C000
03C000
3F8000
7F0000
7F0000
ENDCHAR
STARTCHAR Ydieresis
ENCODING 376
SWIDTH 666 0
DWIDTH 28 0
BBX 27 38 1 0
BITMAP
0078F000
0078F000
0078F000
0078F000
0078F000
00000000
00000000
F80003E0
7C0003E0
3E0007C0
3E0007C0
1F000F80
1F001F00
0F801F00
07C03E00
07C07C00
03C07800
01F07800
00F0F800
00F1E000
00FBE000
003FC000
003FC000
003F8000
001F0000
000F0000
000F0000
000F0000
000F0000
000F0000
000F0000
000F0000
000F0000
000F0000
000F0000
000F0000
000F0000
000F0000
ENDCHAR
STARTCHAR Zacute
ENCODING 377
SWIDTH 610 0
DWIDTH 26 0
BBX 25 38 1 0
BITMAP
0001E000
0003C000
00078000
000F0000
001E0000
001C0000
00000000
3FFFFF80
3FFFFF80
3FFFFF80
3FFFFF80
00001F00
00003E00
00007E00
0000F800
0001F000
0001F000
0003E000
0007E000
000F8000
001F0000
001F0000
003E0000
007E0000
00F80000
01F00000
01F00000
03E00000
0FC00000
0F800000
1F000000
1F000000
3E000000
7C000000
FFFFFF00
FFFFFF00
FFFFFF00
FFFFFF00
ENDCHAR
STARTCHAR zacute
ENCODING 378
SWIDTH 500 0
DWIDTH 21 0
BBX 18 31 2 0
BITMAP
003E00
007800
007800
00E000
00E000
01C000
000000
000000
000000
FFFF80
FFFF80
FFFF80
000F80
001F00
003E00
007C00
007C00
00F800
01F000
03E000
07C000
0F8000
0F8000
1F0000
3E0000
7C0000
F80000
FFFFC0
FFFFC0
FFFFC0
FFFFC0
ENDCHAR
STARTCHAR Zdotaccent
ENCODING 379
SWIDTH 610 0
DWIDTH 26 0
BBX 25 38 1 0
BITMAP
001E0000
001E0000
001E0000
001E0000
001E0000
00000000
00000000
3FFFFF80
3FFFFF80
3FFFFF80
3FFFFF80
00001F00
00003E00
00007E00
0000F800
0001F000
0001F000
0003E000
0007E000
000F8000
001F0000
001F0000
003E0000
007E0000
00F80000
01F00000
01F00000
03E00000
0FC00000
0F800000
1F000000
1F000000
3E000000
7C000000
FFFFFF00
FFFFFF00
FFFFFF00
FFFFFF00
ENDCHAR
STARTCHAR zdotaccent
ENCODING 380
SWIDTH 500 0
DWIDTH 21 0
BBX 18 30 2 0
BITMAP
01E000
01E000
01E000
01E000
000000
000000
000000
000000
FFFF80
FFFF80
FFFF80
000F80
001F00
003E00
007C00
007C00
00F800
01F000
03E000
07C000
0F8000
0F8000
1F0000
3E0000
7C0000
F80000
FFFFC0
FFFFC0
FFFFC0
FFFFC0
ENDCHAR
STARTCHAR Zcaron
ENCODING 381
SWIDTH 610 0
DWIDTH 26 0
BBX 25 39 1 0
BITMAP
00E0F000
00E1C000
0079C000
003F8000
003F0000
001F0000
00000000
00000000
3FFFFF80
3FFFFF80
3FFFFF80
3FFFFF80
00001F00
00003E00
00007E00
0000F800
0001F000
0001F000
0003E000
0007E000
000F8000
001F0000
001F0000
003E0000
007E0000
00F80000
01F00000
01F00000
03E00000
0FC00000
0F800000
1F000000
1F000000
3E000000
7C000000
FFFFFF00
FFFFFF00
FFFFFF00
FFFFFF00
ENDCHAR
STARTCHAR zcaron
ENCODING 382
SWIDTH 500 0
DWIDTH 21 0
BBX 18 31 2 0
BITMAP
1E0E00
073C00
073800
07B800
03F000
01E000
000000
000000
000000
FFFF80
FFFF80
FFFF80
000F80
001F00
003E00
007C00
007C00
00F800
01F000
03E000
07C000
0F8000
0F8000
1F0000
3E0000
7C0000
F80000
FFFFC0
FFFFC0
FFFFC0
FFFFC0
ENDCHAR
STARTCHAR slong
ENCODING 383
SWIDTH 277 0
DWIDTH 12 0
BBX 11 31 1 0
BITMAP
0060
07E0
0FE0
0FC0
0F00
1E00
1E00
1E00
1E00
FE00
FE00
FE00
1E00
1E00
1E00
1E00
1E00
1E00
1E00
1E00
1E00
1E00
1E00
1E00
1E00
1E00
1E00
1E00
1E00
1E00
1E00
ENDCHAR
STARTCHAR bstroke
ENCODING 384
SWIDTH 556 0
DWIDTH 23 0
BBX 22 31 2 0
BITMAP
3C0000
3C0000
3C0000
FFF800
FFF800
FFF800
3C0000
3C0000
3C0800
3CFF80
3FFFC0
3FFFE0
3F01F0
3E00F8
3C00F8
3C0078
3C0078
3C003C
38003C
38003C
38003C
3C003C
3C0078
3C0078
3C00F8
3E0078
3E00F0
3F83E0
3BFFE0
39FF80
38FF00
ENDCHAR
STARTCHAR Btopbar
ENCODING 386
SWIDTH 666 0
DWIDTH 28 0
BBX 23 31 4 0
BITMAP
FFFFFC
FFFFFC
FFFFFC
FFFFFC
780000
780000
780000
780000
780000
780000
780000
780000
780000
FFFC00
FFFFE0
7FFFF8
7FFFF8
7807FC
78007C
78001E
78001E
78001E
78001E
78001E
78003C
78007C
78007C
FFFFF8
FFFFF0
7FFFE0
FFFC00
ENDCHAR
STARTCHAR btopbar
ENCODING 387
SWIDTH 556 0
DWIDTH 23 0
BBX 20 31 2 0
BITMAP
FFFF80
FFFF80
FFFF80
FFFF80
F00000
F00000
F00000
F00000
F02000
F1FF00
F7FF80
FFFF80
7E03E0
7C01E0
7803E0
F001E0
F000F0
7000F0
7000F0
7000F0
7000F0
7000F0
F000F0
F001E0
7801E0
F801E0
FC03C0
7F0F80
7FFFC0
73FF00
73FC00
ENDCHAR
STARTCHAR Oopen
ENCODING 390
SWIDTH 722 0
DWIDTH 30 0
BBX 28 31 2 0
BITMAP
00040000
01FFF800
07FFFC00
0FFFFC00
0F003F00
3E000F80
3E000F80
7C0007C0
780007C0
780003C0
780001E0
000001E0
000001E0
000001F0
000001F0
000001E0
000001F0
000003E0
000001E0
000001E0
000001E0
780003C0
F80007C0
780007C0
7C000F80
3E000F00
1F007F00
0FE0FF00
0FFFFC00
03FFF800
00FFE000
ENDCHAR
STARTCHAR Dafrican
ENCODING 393
SWIDTH 722 0
DWIDTH 30 0
BBX 27 31 2 0
BITMAP
3FF80000
3FFFE000
3FFFF800
3FFFFE00
3C03FF00
3C001F00
3C000F00
3C0007C0
3C0007C0
3C0003E0
3C0003C0
3C0001E0
3C0001E0
FFFE01E0
FFFE03E0
FFFE03E0
3C0001E0
3C0001E0
3C0001E0
3C0001E0
3C0003C0
3C0007C0
3C0003C0
3C0007C0
3C000F80
3C001F00
3C007E00
3FFFFC00
3FFFF800
3FFFE000
3FFC0000
ENDCHAR
STARTCHAR Dtopbar
ENCODING 395
SWIDTH 666 0
DWIDTH 28 0
BBX 23 31 4 0
BITMAP
7FFFFE
7FFFFE
7FFFFE
7FFFFE
00001E
00001E
00001E
00001E
00001E
00001E
00001E
00001E
00001E
007FFE
0FFFFE
1FFFFE
1FFFFE
3FE01E
7C001E
78001E
78001E
78001E
78001E
78001E
F8001E
7C001E
7E001E
3FFFFE
1FFFFE
07FFFE
007FFE
ENDCHAR
STARTCHAR dtopbar
ENCODING 396
SWIDTH 556 0
DWIDTH 23 0
BBX 20 31 2 0
BITMAP
1FFFF0
1FFFF0
1FFFF0
1FFFF0
0000F0
0000F0
0000F0
0000F0
03C0F0
0FF8F0
1FFEF0
1FFFF0
3E03F0
3C01F0
7C00F0
7800F0
7800F0
F00070
F00070
F00070
F00070
780070
7800F0
7800F0
7800F0
3C01F0
3C03F0
1F07F0
1FFF70
07FE70
03FC70
ENDCHAR
STARTCHAR deltaturned
ENCODING 397
SWIDTH 566 0
DWIDTH 24 0
BBX 21 30 1 0
BITMAP
002000
0FFF80
1FFFC0
1FFFE0
7C01F0
7801F0
780078
780078
F00038
700038
700038
700038
700070
780078
7000F0
3800F0
3C01E0
1C03C0
1FFFC0
0FFF00
03FC00
01F000
00F800
003E00
001F00
000F80
0003E0
1FFFE0
1FFFE0
1FFFE0
ENDCHAR
STARTCHAR Ereversed
ENCODING 398
SWIDTH 666 0
DWIDTH 28 0
BBX 22 31 5 0
BITMAP
FFFFFC
FFFFFC
FFFFFC
FFFFFC
00003C
00003C
00003C
00003C
00003C
00003C
00003C
00003C
00003C
7FFFFC
7FFFFC
7FFFFC
7FFFFC
00003C
00003C
00003C
00003C
00003C
00003C
00003C
00003C
00003C
00003C
FFFFFC
FFFFFC
FFFFFC
FFFFFC
ENDCHAR
STARTCHAR Schwa
ENCODING 399
SWIDTH 750 0
DWIDTH 32 0
BBX 28 31 2 0
BITMAP
00020000
003FF000
03FFFC00
07FFFE00
0FC01F00
1F000F80
3E0007C0
3C0007C0
780003E0
780001E0
000003E0
000001E0
000001E0
000001E0
7FFFFFF0
7FFFFFF0
7FFFFFF0
F00001E0
780001E0
780001F0
780001E0
7C0003E0
780007C0
3C0007C0
3E000F80
1F000F80
1F803F00
0FC07F00
07FFFC00
01FFF800
00FFE000
ENDCHAR
STARTCHAR Eopen
ENCODING 400
SWIDTH 535 0
DWIDTH 22 0
BBX 19 33 2 -1
BITMAP
004000
07FC00
0FFF00
0FFF80
3C07C0
7C03C0
3803C0
3801C0
7000E0
7000E0
380000
780000
3C0000
1E0000
1FE000
0FE000
1FF000
3FC000
780000
700000
F00000
700000
7000E0
7000E0
7001E0
7800E0
7801E0
7803C0
3C07C0
1FFF80
1FFF00
07FC00
004000
ENDCHAR
STARTCHAR Fhook
ENCODING 401
SWIDTH 610 0
DWIDTH 26 0
BBX 25 39 0 -8
BITMAP
0FFFFF80
0FFFFF80
0FFFFF80
0FFFFF80
0F000000
0F000000
0F000000
0F000000
0F000000
0F800000
0F800000
0F800000
0F800000
0FFFFE00
0FFFFE00
0FFFFE00
0FFFFE00
0F800000
0F800000
0F800000
0F800000
0F800000
0F800000
0F800000
0F800000
0F800000
0F800000
0F800000
0F800000
0F800000
0F800000
0F800000
0F800000
0F800000
0F800000
0F000000
7F000000
FE000000
7C000000
ENDCHAR
STARTCHAR florin
ENCODING 402
SWIDTH 556 0
DWIDTH 23 0
BBX 22 39 1 -8
BITMAP
0000FC
0001FC
0003FC
0007EC
000F00
000F00
000F00
000F00
001E00
001E00
001E00
03FFF0
03FFF0
03FFF0
003C00
003C00
003C00
003C00
007800
007800
007800
007800
007800
00F000
00F000
00F000
00F000
00F000
00F000
01E000
01E000
01E000
01E000
03C000
038000
47C000
7F8000
7F0000
FC0000
ENDCHAR
STARTCHAR Iotaafrican
ENCODING 406
SWIDTH 222 0
DWIDTH 9 0
BBX 8 31 1 0
BITMAP
F0
F0
F0
F0
F0
F0
F0
F0
F0
F0
F0
F0
F0
F0
F0
F0
F0
F0
F0
F0
F0
F0
F0
F0
F0
F0
F0
78
7F
7E
1F
ENDCHAR
STARTCHAR Istroke
ENCODING 407
SWIDTH 341 0
DWIDTH 14 0
BBX 13 31 2 0
BITMAP
0F00
0F00
0F00
0F00
0F00
0F00
0F00
0F00
0F00
0F00
0F00
0F00
FFF8
FFF8
0F00
0F00
0F00
0F00
0F00
0F00
0F00
0F00
0F00
0F00
0F00
0F00
0F00
0F00
0F00
0F00
0F00
ENDCHAR
STARTCHAR lbar
ENCODING 410
SWIDTH 341 0
DWIDTH 14 0
BBX 13 31 2 0
BITMAP
0F00
0F00
0F00
0F00
0F00
0F00
0F00
0F00
0F00
0F00
0F00
0F00
FFF8
FFF8
0F00
0F00
0F00
0F00
0F00
0F00
0F00
0F00
0F00
0F00
0F00
0F00
0F00
0F00
0F00
0F00
0F00
ENDCHAR
STARTCHAR uni019B
ENCODING 411
SWIDTH 556 0
DWIDTH 23 0
BBX 21 31 2 0
BITMAP
180000
3F0000
1F8000
0F8100
03DF00
01FF00
0FF800
7FE000
78F000
40F000
01F000
01F000
03F800
03F800
03FC00
07BC00
079E00
079E00
0F0F00
0F0F00
1E0F00
1E0780
1E0780
3C03C0
3C03C0
3C03C0
7801E0
7801F8
F001F8
F000F8
F00018
ENDCHAR
STARTCHAR Nhookleft
ENCODING 413
SWIDTH 722 0
DWIDTH 30 0
BBX 28 39 0 -8
BITMAP
0F8000F0
0FC000F0
0FE000F0
0FE000F0
0FF000F0
0FF000F0
0FF000F0
0FF800F0
0F3C00F0
0F3E00F0
0F3E00F0
0F1E00F0
0F0F80F0
0F0780F0
0F0780F0
0F07C0F0
0F01E0F0
0F01E0F0
0F01F0F0
0F00F0F0
0F007CF0
0F003CF0
0F003CF0
0F003EF0
0F000FF0
0F000FF0
0F0007F0
0F0003F0
0F0003F0
0F0001F0
0F0001F0
0F000000
0F000000
0F000000
0F000000
0F000000
FE000000
7E000000
7C000000
ENDCHAR
STARTCHAR nlegrightlong
ENCODING 414
SWIDTH 556 0
DWIDTH 23 0
BBX 18 31 3 -8
BITMAP
001000
71FF00
77FF80
7FFF80
FF07C0
7C03C0
7803C0
7803C0
F003C0
F003C0
F003C0
F003C0
F003C0
F003C0
F003C0
F003C0
F003C0
F003C0
F003C0
F003C0
F003C0
F003C0
F003C0
0003C0
0003C0
0003C0
0003C0
0003C0
0003C0
0003C0
0003C0
ENDCHAR
STARTCHAR Ocenteredtilde
ENCODING 415
SWIDTH 777 0
DWIDTH 33 0
BBX 30 31 2 0
BITMAP
00010000
01FFFE00
03FFFF80
07FFFFC0
0FC007E0
0F8003E0
1F0001F0
3E0000F8
7C0000F8
3C0000F8
78000078
7C000078
7800003C
7800003C
7FFFFFFC
7FFFFFFC
7FFFFFFC
7800003C
78000078
F8000078
780000F8
78000078
7C0000F8
3E0001F0
3E0001E0
1F0007E0
0FC00FC0
0FF83FC0
07FFFF00
01FFFC00
007FF000
ENDCHAR
STARTCHAR Ohorn
ENCODING 416
SWIDTH 888 0
DWIDTH 37 0
BBX 35 31 2 0
BITMAP
0001000180
01FFFE07C0
03FFFF87C0
07FFFF83E0
0FC00FFF80
0F8007FE00
1F0001F000
3E0000F800
7C0000F800
3C0000F800
7800007800
7C00007800
7800003C00
7800003C00
7800003C00
7800003C00
7800003C00
7800003C00
7800007800
F800007800
780000F800
7800007800
7C0000F800
3E0001F000
3E0001E000
1F0007E000
0FC00FC000
0FF83FC000
07FFFF0000
01FFFC0000
007FF00000
ENDCHAR
STARTCHAR ohorn
ENCODING 417
SWIDTH 675 0
DWIDTH 28 0
BBX 26 24 1 0
BITMAP
00000080
00200380
07FF07C0
0FFFC7C0
0FFFC7C0
1E01FF00
3C00FE00
3C00F000
78007800
78007800
78007800
F0007800
F0007800
F0007800
F0007800
78007800
7800F000
7800F000
3C00F000
3C01F000
1F03E000
1FFFC000
07FF8000
03FE0000
ENDCHAR
STARTCHAR yr
ENCODING 422
SWIDTH 637 0
DWIDTH 27 0
BBX 25 35 1 -4
BITMAP
78000000
78000000
78000000
78000000
78000000
FFFC0000
FFFFF000
7FFFFE00
7803FE00
78003F00
78001F00
78000F00
78000F00
78000F00
78000F00
78000F00
78001E00
78003E00
7FFFFC00
7FFFF800
FFFFF000
7FFFFE00
78003E00
78001F00
78000F00
78000F00
78000F00
78000F00
78000F00
78000F00
78000F00
00001F00
00000F00
00000F80
00000F80
ENDCHAR
STARTCHAR Tonetwo
ENCODING 423
SWIDTH 666 0
DWIDTH 28 0
BBX 25 31 2 0
BITMAP
00080000
03FFF000
07FFF800
1FFFFC00
1F003E00
3E003E00
3E001E00
3C001E00
78000F00
00001E00
00001F00
00007E00
0001FE00
001FFC00
03FFF800
0FFFF000
1FFE0000
3FE00000
7E000000
FC000000
78000000
78000780
F0000F00
78000F00
78000F00
78001E00
7C007E00
3F00FE00
1FFFF800
0FFFF800
03FFC000
ENDCHAR
STARTCHAR tonetwo
ENCODING 424
SWIDTH 500 0
DWIDTH 21 0
BBX 19 23 1 0
BITMAP
004000
0FFE00
1FFF00
1FFFC0
3C0780
7803C0
7803C0
0003C0
0007C0
007F80
07FF80
1FFF00
3FF000
7F0000
7C0000
F00000
F001E0
F003C0
7803C0
3C07C0
3FFF80
1FFF80
07FE00
ENDCHAR
STARTCHAR Esh
ENCODING 425
SWIDTH 574 0
DWIDTH 24 0
BBX 22 30 1 0
BITMAP
3FFFFC
3FFFFC
3FFFFC
3E0000
1F0000
0F8000
07C000
03E000
01F000
00F800
007C00
003E00
001F00
000F80
0007C0
000F80
001F00
007C00
00F800
01F000
03E000
07C000
0F8000
1F0000
3E0000
7C0000
FFFFFC
FFFFFC
FFFFFC
FFFFFC
ENDCHAR
STARTCHAR Tretroflexhook
ENCODING 430
SWIDTH 610 0
DWIDTH 26 0
BBX 24 39 2 -8
BITMAP
FFFFFF
FFFFFF
FFFFFF
FFFFFF
003C00
003C00
003C00
003C00
003C00
003C00
003C00
003C00
003C00
003C00
003C00
003C00
003C00
003C00
003C00
003C00
003C00
003C00
003C00
003C00
003C00
003C00
003C00
003C00
003C00
003C00
003C00
003C00
003C00
003C00
003C00
007800
03F800
03F800
03E000
ENDCHAR
STARTCHAR Uhorn
ENCODING 431
SWIDTH 862 0
DWIDTH 36 0
BBX 32 32 3 0
BITMAP
0000000E
78000F3E
78000F1F
78000F3F
78000FFC
78000FF0
78000F00
78000F00
78000F00
78000F00
78000F00
78000F00
78000F00
78000F00
78000F00
78000F00
78000F00
78000F00
78000F00
78000F00
78000F00
78000F80
78000F00
F8000F00
78001E00
3C001E00
3E003E00
3F007E00
1FC1FC00
0FFFF800
07FFE000
01FF8000
ENDCHAR
STARTCHAR uhorn
ENCODING 432
SWIDTH 697 0
DWIDTH 29 0
BBX 26 24 3 0
BITMAP
00000080
00000780
F003C7C0
F003C7C0
F003C7C0
F003FE00
F003FC00
F003C000
F003C000
F003C000
F003C000
F003C000
F003C000
F003C000
F003C000
F003C000
F003E000
F007C000
7807C000
780FC000
7C3FC000
3FFFC000
1FFBC000
0FE3C000
ENDCHAR
STARTCHAR Upsilonafrican
ENCODING 433
SWIDTH 754 0
DWIDTH 32 0
BBX 29 31 2 0
BITMAP
7FF07FF0
7FF07FF0
7FF07FF0
01F07800
03F07E00
07800F00
0F000780
1E0003C0
1C0003C0
3C0003E0
3C0000F0
780000F0
780000F0
78000078
F0000078
F0000078
F0000078
F0000078
78000078
780000F0
780000F0
780000F0
3C0001E0
3E0003E0
3E0003C0
1F800FC0
0FF07F80
0FFFFF80
01FFFE00
007FF800
00030000
ENDCHAR
STARTCHAR uni01B5
ENCODING 437
SWIDTH 610 0
DWIDTH 26 0
BBX 25 31 1 0
BITMAP
3FFFFF80
3FFFFF80
3FFFFF80
3FFFFF80
00001F00
00003E00
00007E00
0000F800
0001F000
0001F000
0003E000
0007E000
000F8000
03FFF800
03FFF800
003E0000
007E0000
00F80000
01F00000
01F00000
03E00000
0FC00000
0F800000
1F000000
1F000000
3E000000
7C000000
FFFFFF00
FFFFFF00
FFFFFF00
FFFFFF00
ENDCHAR
STARTCHAR uni01B6
ENCODING 438
SWIDTH 500 0
DWIDTH 21 0
BBX 18 22 2 0
BITMAP
FFFF80
FFFF80
FFFF80
000F80
001F00
003E00
007C00
007C00
00F800
3FFE00
3FFE00
07C000
0F8000
0F8000
1F0000
3E0000
7C0000
F80000
FFFFC0
FFFFC0
FFFFC0
FFFFC0
ENDCHAR
STARTCHAR Ezh
ENCODING 439
SWIDTH 549 0
DWIDTH 23 0
BBX 22 31 1 0
BITMAP
FFFFF8
FFFFF8
FFFFF8
FFFFF8
0001F0
0003E0
0007C0
000F80
001F00
003E00
007C00
01FF80
03FFC0
000FE0
0000F0
0000F0
000078
000078
000078
00003C
00003C
00003C
F0003C
78003C
780078
3C007C
3E00F8
1FC1F0
1FFFE0
0FFFC0
007C00
ENDCHAR
STARTCHAR Ezhreversed
ENCODING 440
SWIDTH 549 0
DWIDTH 23 0
BBX 22 31 1 0
BITMAP
7FFFF8
7FFFF8
7FFFF8
7FFFF8
3E0000
1F0000
0F8000
07C000
03E000
00F800
007C00
07FE00
0FFF80
1FC000
1E0000
7C0000
3C0000
780000
780000
780000
780000
F00000
F0003C
78003C
780078
780078
7C01F0
3C0FE0
1FFFC0
1FFFC0
00F800
ENDCHAR
STARTCHAR ezhreversed
ENCODING 441
SWIDTH 500 0
DWIDTH 21 0
BBX 20 30 1 -8
BITMAP
7FFFE0
7FFFE0
7FFFE0
3E0000
1F0000
0F8000
07C000
03E000
01F000
00F800
03FE00
0FFE00
1FFF80
3FC000
3E0000
3C0000
780000
780000
780000
780000
F00000
F00000
7800F0
7801E0
F801E0
7801E0
3E03C0
1FFFC0
0FFF80
07FE00
ENDCHAR
STARTCHAR twostroke
ENCODING 443
SWIDTH 566 0
DWIDTH 24 0
BBX 21 30 2 0
BITMAP
002000
0FFF00
1FFF80
3FFF80
7C03E0
7803E0
7801E0
F000F0
F000F0
F000F0
F000F0
0001E0
0003E0
0003C0
7FFFF8
7FFFF8
7FFFF8
01FC00
03F000
0FE000
1FC000
3E0000
7C0000
780000
F00000
F00000
FFFFF0
FFFFF0
FFFFF0
FFFFF0
ENDCHAR
STARTCHAR clickdental
ENCODING 448
SWIDTH 259 0
DWIDTH 11 0
BBX 3 31 5 0
BITMAP
E0
E0
E0
E0
E0
E0
E0
E0
E0
E0
E0
E0
E0
E0
E0
E0
E0
E0
E0
E0
E0
E0
E0
E0
E0
E0
E0
E0
E0
E0
E0
ENDCHAR
STARTCHAR clicklateral
ENCODING 449
SWIDTH 431 0
DWIDTH 18 0
BBX 10 31 5 0
BITMAP
E3C0
E3C0
E3C0
E3C0
E3C0
E3C0
E3C0
E3C0
E3C0
E3C0
E3C0
E3C0
E3C0
E3C0
E3C0
E3C0
E3C0
E3C0
E3C0
E3C0
E3C0
E3C0
E3C0
E3C0
E3C0
E3C0
E3C0
E3C0
E3C0
E3C0
E3C0
ENDCHAR
STARTCHAR clickalveolar
ENCODING 450
SWIDTH 568 0
DWIDTH 24 0
BBX 21 31 2 0
BITMAP
00E000
00E000
00E000
00E000
00E000
00E000
00E000
00E000
00E000
00E000
FFFFF8
FFFFF8
FFFFF8
00E000
00E000
00E000
00E000
00E000
00E000
FFFFF8
FFFFF8
FFFFF8
00E000
00E000
00E000
00E000
00E000
00E000
00E000
00E000
00E000
ENDCHAR
STARTCHAR clickretroflex
ENCODING 451
SWIDTH 277 0
DWIDTH 12 0
BBX 4 31 5 0
BITMAP
F0
F0
F0
F0
F0
F0
F0
F0
F0
F0
F0
F0
F0
F0
F0
F0
E0
E0
E0
E0
E0
60
60
00
00
00
F0
F0
F0
F0
F0
ENDCHAR
STARTCHAR DZcaron
ENCODING 452
SWIDTH 1235 0
DWIDTH 52 0
BBX 49 39 2 0
BITMAP
00000003C1E000
00000000E38000
00000000E38000
000000007F8000
000000003F0000
000000003E0000
00000000000000
00000000000000
7FF8003FFFFF00
FFFFC03FFFFF00
7FFFF03FFFFF00
FFFFF83FFFFF00
781FFC00003F00
78007C00003E00
78003E00007C00
78001F00007C00
78000F8000F800
78000F0001F000
7800078003E000
78000F8007C000
780007C007C000
780007800F8000
780007801F0000
780007803E0000
780007807C0000
78000780F80000
780007C0F80000
78000781F00000
78000783E00000
78000F07C00000
78001F0F800000
78001E0F800000
78001E1F000000
78007C3E000000
7800FC7C000000
7FFFF87FFFFF80
7FFFF07FFFFF80
7FFFC07FFFFF80
7FF80000000000
ENDCHAR
STARTCHAR Dzcaron
ENCODING 453
SWIDTH 1094 0
DWIDTH 46 0
BBX 44 31 2 0
BITMAP
7FF800038780
FFFFC0038700
7FFFF001E700
FFFFF800FE00
781FFC00FC00
78007C007C00
78003E000000
78001F000000
78000F800000
78000F1FFFF0
7800079FFFF0
78000F9FFFF0
780007C003E0
7800078007C0
780007800F80
780007800F80
780007801F00
780007803E00
780007C07C00
78000780F800
78000781F000
78000F01F000
78001F03E000
78001E07C000
78001E0F8000
78007C1F0000
7800FC3E0000
7FFFF87FFFF0
7FFFF07FFFF0
7FFFC07FFFF0
7FF8007FFFF0
ENDCHAR
STARTCHAR dzcaron
ENCODING 454
SWIDTH 981 0
DWIDTH 41 0
BBX 40 31 1 0
BITMAP
0000F03838
0000F01C38
0000F01CF0
0000F01EF0
0000F007E0
0000F007C0
0000F00000
0000F00000
01C0F00000
07FCF3FFFE
0FFFF3FFFE
1FFFF3FFFE
1F03F0003E
3E01F0007C
7C00F000F8
7800F001F0
7800F001F0
7800F003E0
F0007007C0
F000700F80
F000701F00
7800F03E00
7800F03E00
7800F07C00
7800F0F800
3C01F1F000
3C01F3E000
1F07F3FFFF
1FFF73FFFF
07FE73FFFF
03F873FFFF
ENDCHAR
STARTCHAR LJ
ENCODING 455
SWIDTH 981 0
DWIDTH 41 0
BBX 37 31 3 0
BITMAP
F000000078
F000000078
F000000078
F000000078
F000000078
F000000078
F000000078
F000000078
F000000078
F000000078
F000000078
F000000078
F000000078
F000000078
F000000078
F000000078
F000000078
F000000078
F000000078
F000000078
F000000078
F0000F0078
F0000F0078
F0000F0078
F0000F0078
F0000F0078
F0000781F8
FFFFE7C3F0
FFFFE3FFF0
FFFFE1FFE0
FFFFE0FF80
ENDCHAR
STARTCHAR Lj
ENCODING 456
SWIDTH 706 0
DWIDTH 30 0
BBX 26 39 3 -8
BITMAP
F00003C0
F00003C0
F00003C0
F00003C0
F00003C0
F0000000
F0000000
F0000000
F0000000
F00003C0
F00003C0
F00003C0
F00003C0
F00003C0
F00003C0
F00003C0
F00003C0
F00003C0
F00003C0
F00003C0
F00003C0
F00003C0
F00003C0
F00003C0
F00003C0
F00003C0
F00003C0
FFFFE3C0
FFFFE3C0
FFFFE3C0
FFFFE3C0
000003C0
000003C0
000003C0
000003C0
000003C0
00001FC0
00003F80
00001F00
ENDCHAR
STARTCHAR lj
ENCODING 457
SWIDTH 370 0
DWIDTH 16 0
BBX 13 39 2 -8
BITMAP
F078
F078
F078
F078
F078
F000
F000
F000
F000
F078
F078
F078
F078
F078
F078
F078
F078
F078
F078
F078
F078
F078
F078
F078
F078
F078
F078
F078
F078
F078
F078
0078
0078
0078
0078
0078
03F8
03F0
03E0
ENDCHAR
STARTCHAR NJ
ENCODING 458
SWIDTH 1112 0
DWIDTH 47 0
BBX 43 31 2 0
BITMAP
F8000F0001E0
7C000F0001E0
7E000F0001E0
FE000F0001E0
7F000F0001E0
FF000F0001E0
FF800F0001E0
F7800F0001E0
F3E00F0001E0
F1E00F0001E0
F1E00F0001E0
F1F00F0001E0
F0780F0001E0
F0780F0001E0
F07C0F0001E0
F03C0F0001E0
F01F0F0001E0
F00F0F0001E0
F00F0F0001E0
F007CF0001E0
F003CF3C01E0
F003CF3C01E0
F003EF3C01E0
F000FF3C01E0
F000FF3C01E0
F000FF3C03C0
F0007F1E07C0
F0003F9FFFC0
F0003F0FFF80
F0001F0FFE00
F0000F80F800
ENDCHAR
STARTCHAR Nj
ENCODING 459
SWIDTH 867 0
DWIDTH 36 0
BBX 34 39 2 -8
BITMAP
F8000F03C0
7C000F03C0
7E000F03C0
FE000F03C0
7F000F03C0
FF000F0000
FF800F0000
F7800F0000
F3E00F0000
F1E00F03C0
F1E00F03C0
F1F00F03C0
F0780F03C0
F0780F03C0
F07C0F03C0
F03C0F03C0
F01F0F03C0
F00F0F03C0
F00F0F03C0
F007CF03C0
F003CF03C0
F003CF03C0
F003EF03C0
F000FF03C0
F000FF03C0
F000FF03C0
F0007F03C0
F0003F83C0
F0003F03C0
F0001F03C0
F0000F83C0
00000003C0
00000003C0
00000003C0
00000003C0
00000003C0
0000003F80
0000001F80
0000001F00
ENDCHAR
STARTCHAR nj
ENCODING 460
SWIDTH 703 0
DWIDTH 30 0
BBX 27 39 2 -8
BITMAP
000001E0
000001E0
000001E0
000001E0
000001E0
00000000
00000000
00000000
00100000
71FF01E0
77FF81E0
7FFF81E0
FF07C1E0
7C03C1E0
7803C1E0
7803C1E0
F003C1E0
F003C1E0
F003C1E0
F003C1E0
F003C1E0
F003C1E0
F003C1E0
F003C1E0
F003C1E0
F003C1E0
F003C1E0
F003C1E0
F003C1E0
F003C1E0
F003C1E0
000001E0
000001E0
000001E0
000001E0
000001E0
00000FE0
00000FC0
00000F80
ENDCHAR
STARTCHAR Acaron
ENCODING 461
SWIDTH 666 0
DWIDTH 28 0
BBX 28 39 1 0
BITMAP
00F03800
00387000
0038F000
001FC000
000FC000
000F8000
00000000
00000000
000F8000
000F8000
001F8000
001FC000
003FC000
003FC000
0079E000
0079E000
0079E000
00F0F000
00F1F000
00F0F000
01E07800
01E07C00
03C07800
03C03C00
03C03E00
07803C00
07FFFE00
0FFFFE00
0FFFFE00
0F001F00
0F000F00
1E000780
1E000F80
3C000780
3C0003C0
3C0003E0
780003C0
F80001E0
780001F0
ENDCHAR
STARTCHAR acaron
ENCODING 462
SWIDTH 556 0
DWIDTH 23 0
BBX 22 31 2 0
BITMAP
078780
078700
01C700
01CE00
00FE00
007C00
000000
000000
002000
0FFF00
0FFF00
3FFFC0
3C03E0
3C01E0
7801E0
0001E0
0001E0
001FE0
00FFE0
1FFFE0
3FE1E0
7F81E0
FC01E0
7801E0
F001E0
F003E0
7807E0
780FE0
7FFFF8
3FF8FC
0FF0FC
ENDCHAR
STARTCHAR Icaron
ENCODING 463
SWIDTH 277 0
DWIDTH 12 0
BBX 12 39 1 0
BITMAP
F070
3870
39E0
1FE0
0FC0
0F80
0000
0000
0F80
0F80
0F80
0F80
0F80
0F80
0F80
0F80
0F80
0F80
0F80
0F80
0F80
0F80
0F80
0F80
0F80
0F80
0F80
0F80
0F80
0F80
0F80
0F80
0F80
0F80
0F80
0F80
0F80
0F80
0F80
ENDCHAR
STARTCHAR icaron
ENCODING 464
SWIDTH 277 0
DWIDTH 12 0
BBX 11 31 1 0
BITMAP
F0E0
71C0
71C0
3FC0
1F80
0F00
0000
0000
0000
1E00
1E00
1E00
1E00
1E00
1E00
1E00
1E00
1E00
1E00
1E00
1E00
1E00
1E00
1E00
1E00
1E00
1E00
1E00
1E00
1E00
1E00
ENDCHAR
STARTCHAR Ocaron
ENCODING 465
SWIDTH 777 0
DWIDTH 33 0
BBX 30 39 2 0
BITMAP
00387800
001E7000
000E7000
000FE000
0007C000
00000000
00000000
00000000
00010000
01FFFE00
03FFFF80
07FFFFC0
0FC007E0
0F8003E0
1F0001F0
3E0000F8
7C0000F8
3C0000F8
78000078
7C000078
7800003C
7800003C
7800003C
7800003C
7800003C
7800003C
78000078
F8000078
780000F8
78000078
7C0000F8
3E0001F0
3E0001E0
1F0007E0
0FC00FC0
0FF83FC0
07FFFF00
01FFFC00
007FF000
ENDCHAR
STARTCHAR ocaron
ENCODING 466
SWIDTH 556 0
DWIDTH 23 0
BBX 21 31 1 0
BITMAP
0783C0
01C700
01C700
01FE00
00FC00
007800
000000
000000
002000
07FF00
0FFFC0
0FFFC0
1E01F0
3C00F0
3C00F0
780078
780078
780078
F00078
F00078
F00078
F00078
780078
7800F0
7800F0
3C00F0
3C01F0
1F03E0
1FFFC0
07FF80
03FE00
ENDCHAR
STARTCHAR Ucaron
ENCODING 467
SWIDTH 722 0
DWIDTH 30 0
BBX 25 38 3 0
BITMAP
00E0E000
00E3C000
00F3C000
003F0000
003F0000
001F0000
00000000
78000F00
78000F00
78000F00
78000F00
78000F00
78000F00
78000F00
78000F00
78000F00
78000F00
78000F00
78000F00
78000F00
78000F00
78000F00
78000F00
78000F00
78000F00
78000F00
78000F00
78000F80
78000F00
F8000F00
78001E00
3C001E00
3E003E00
3F007E00
1FC1FC00
0FFFF800
07FFE000
01FF8000
ENDCHAR
STARTCHAR ucaron
ENCODING 468
SWIDTH 556 0
DWIDTH 23 0
BBX 19 30 3 0
BITMAP
070E00
070E00
03FC00
01F800
00F800
00F000
000000
000000
F003C0
F003C0
F003C0
F003C0
F003C0
F003C0
F003C0
F003C0
F003C0
F003C0
F003C0
F003C0
F003C0
F003C0
F003E0
F007C0
7807C0
780FC0
7C3FC0
3FFFC0
1FFBC0
0FE3C0
ENDCHAR
STARTCHAR Udieresismacron
ENCODING 469
SWIDTH 722 0
DWIDTH 30 0
BBX 25 42 3 0
BITMAP
03FFE000
03FFE000
03FFE000
00000000
00000000
01E3C000
01E3C000
01E3C000
01E3C000
01E3C000
00000000
78000F00
78000F00
78000F00
78000F00
78000F00
78000F00
78000F00
78000F00
78000F00
78000F00
78000F00
78000F00
78000F00
78000F00
78000F00
78000F00
78000F00
78000F00
78000F00
78000F00
78000F80
78000F00
F8000F00
78001E00
3C001E00
3E003E00
3F007E00
1FC1FC00
0FFFF800
07FFE000
01FF8000
ENDCHAR
STARTCHAR udieresismacron
ENCODING 470
SWIDTH 556 0
DWIDTH 23 0
BBX 19 33 3 0
BITMAP
0FFF80
0FFF80
000000
000000
000000
0F1E00
0F1E00
0F1E00
0F1E00
000000
000000
F003C0
F003C0
F003C0
F003C0
F003C0
F003C0
F003C0
F003C0
F003C0
F003C0
F003C0
F003C0
F003C0
F003C0
F003E0
F007C0
7807C0
780FC0
7C3FC0
3FFFC0
1FFBC0
0FE3C0
ENDCHAR
STARTCHAR Udieresisacute
ENCODING 471
SWIDTH 722 0
DWIDTH 30 0
BBX 25 44 3 0
BITMAP
0003E000
00078000
00078000
000F0000
000E0000
001C0000
00000000
00000000
01E3C000
01E3C000
01E3C000
01E3C000
00000000
78000F00
78000F00
78000F00
78000F00
78000F00
78000F00
78000F00
78000F00
78000F00
78000F00
78000F00
78000F00
78000F00
78000F00
78000F00
78000F00
78000F00
78000F00
78000F00
78000F00
78000F80
78000F00
F8000F00
78001E00
3C001E00
3E003E00
3F007E00
1FC1FC00
0FFFF800
07FFE000
01FF8000
ENDCHAR
STARTCHAR udieresisacute
ENCODING 472
SWIDTH 556 0
DWIDTH 23 0
BBX 19 36 3 0
BITMAP
003C00
003C00
007800
007000
00E000
01C000
000000
0F1E00
0F1E00
0F1E00
0F1E00
0F1E00
000000
000000
F003C0
F003C0
F003C0
F003C0
F003C0
F003C0
F003C0
F003C0
F003C0
F003C0
F003C0
F003C0
F003C0
F003C0
F003E0
F007C0
7807C0
780FC0
7C3FC0
3FFFC0
1FFBC0
0FE3C0
ENDCHAR
STARTCHAR Udieresiscaron
ENCODING 473
SWIDTH 722 0
DWIDTH 30 0
BBX 25 44 3 0
BITMAP
01C1C000
01C1C000
01E78000
00770000
007F0000
007E0000
00000000
00000000
01E3C000
01E3C000
01E3C000
01E3C000
00000000
78000F00
78000F00
78000F00
78000F00
78000F00
78000F00
78000F00
78000F00
78000F00
78000F00
78000F00
78000F00
78000F00
78000F00
78000F00
78000F00
78000F00
78000F00
78000F00
78000F00
78000F80
78000F00
F8000F00
78001E00
3C001E00
3E003E00
3F007E00
1FC1FC00
0FFFF800
07FFE000
01FF8000
ENDCHAR
STARTCHAR udieresiscaron
ENCODING 474
SWIDTH 556 0
DWIDTH 23 0
BBX 19 35 3 0
BITMAP
0F0E00
071E00
073800
03F800
03F000
01E000
000000
0F1E00
0F1E00
0F1E00
0F1E00
000000
000000
F003C0
F003C0
F003C0
F003C0
F003C0
F003C0
F003C0
F003C0
F003C0
F003C0
F003C0
F003C0
F003C0
F003C0
F003E0
F007C0
7807C0
780FC0
7C3FC0
3FFFC0
1FFBC0
0FE3C0
ENDCHAR
STARTCHAR Udieresisgrave
ENCODING 475
SWIDTH 722 0
DWIDTH 30 0
BBX 25 43 3 0
BITMAP
03C00000
01F00000
00F00000
00780000
00380000
001C0000
00000000
01E78000
01E78000
01E78000
01E78000
01E78000
78000F00
78000F00
78000F00
78000F00
78000F00
78000F00
78000F00
78000F00
78000F00
78000F00
78000F00
78000F00
78000F00
78000F00
78000F00
78000F00
78000F00
78000F00
78000F00
78000F00
78000F80
78000F00
F8000F00
78001E00
3C001E00
3E003E00
3F007E00
1FC1FC00
0FFFF800
07FFE000
01FF8000
ENDCHAR
STARTCHAR udieresisgrave
ENCODING 476
SWIDTH 556 0
DWIDTH 23 0
BBX 19 35 3 0
BITMAP
1F0000
078000
078000
01C000
01C000
00E000
000000
0F1E00
0F1E00
0F1E00
0F1E00
000000
000000
F003C0
F003C0
F003C0
F003C0
F003C0
F003C0
F003C0
F003C0
F003C0
F003C0
F003C0
F003C0
F003C0
F003C0
F003E0
F007C0
7807C0
780FC0
7C3FC0
3FFFC0
1FFBC0
0FE3C0
ENDCHAR
STARTCHAR eturned
ENCODING 477
SWIDTH 556 0
DWIDTH 23 0
BBX 21 23 1 0
BITMAP
00E000
07FF00
1FFF80
1FDFC0
3C03E0
3C01F0
7800F0
7800F0
0000F0
0000F0
000078
7FFFF8
7FFFF8
FFFFF0
F000F0
7800F0
7800F0
7801E0
7C01E0
3E07E0
1FFF80
0FFF00
07FC00
ENDCHAR
STARTCHAR Adieresismacron
ENCODING 478
SWIDTH 666 0
DWIDTH 28 0
BBX 28 40 1 0
BITMAP
01FFF000
01FFF000
00000000
0078F000
0078F000
0078F000
0078F000
0078F000
00000000
000F8000
000F8000
001F8000
001FC000
003FC000
003FC000
0079E000
0079E000
0079E000
00F0F000
00F1F000
00F0F000
01E07800
01E07C00
03C07800
03C03C00
03C03E00
07803C00
07FFFE00
0FFFFE00
0FFFFE00
0F001F00
0F000F00
1E000780
1E000F80
3C000780
3C0003C0
3C0003E0
780003C0
F80001E0
780001F0
ENDCHAR
STARTCHAR adieresismacron
ENCODING 479
SWIDTH 556 0
DWIDTH 23 0
BBX 22 34 2 0
BITMAP
1FFF00
1FFF00
000000
000000
0F1E00
0F1E00
0F1E00
0F1E00
0F1E00
000000
000000
002000
0FFF00
0FFF00
3FFFC0
3C03E0
3C01E0
7801E0
0001E0
0001E0
001FE0
00FFE0
1FFFE0
3FE1E0
7F81E0
FC01E0
7801E0
F001E0
F003E0
7807E0
780FE0
7FFFF8
3FF8FC
0FF0FC
ENDCHAR
STARTCHAR Adotmacron
ENCODING 480
SWIDTH 666 0
DWIDTH 28 0
BBX 28 40 1 0
BITMAP
01FFF000
01FFF000
00000000
00000000
000F0000
000F0000
000F0000
000F0000
00000000
000F8000
000F8000
001F8000
001FC000
003FC000
003FC000
0079E000
0079E000
0079E000
00F0F000
00F1F000
00F0F000
01E07800
01E07C00
03C07800
03C03C00
03C03E00
07803C00
07FFFE00
0FFFFE00
0FFFFE00
0F001F00
0F000F00
1E000780
1E000F80
3C000780
3C0003C0
3C0003E0
780003C0
F80001E0
780001F0
ENDCHAR
STARTCHAR adotmacron
ENCODING 481
SWIDTH 556 0
DWIDTH 23 0
BBX 22 34 2 0
BITMAP
1FFF00
1FFF00
000000
000000
00F000
00F000
00F000
00F000
000000
000000
000000
002000
0FFF00
0FFF00
3FFFC0
3C03E0
3C01E0
7801E0
0001E0
0001E0
001FE0
00FFE0
1FFFE0
3FE1E0
7F81E0
FC01E0
7801E0
F001E0
F003E0
7807E0
780FE0
7FFFF8
3FF8FC
0FF0FC
ENDCHAR
STARTCHAR AEmacron
ENCODING 482
SWIDTH 1000 0
DWIDTH 42 0
BBX 39 36 1 0
BITMAP
00003FFE00
00003FFE00
00003FFE00
0000000000
0000000000
000FFFFFFE
001FFFFFFC
001FFFFFFE
001FFFFFFE
003C3C0000
003C3C0000
00783C0000
00783C0000
00F03C0000
00F03C0000
00F03C0000
01E03C0000
01E03C0000
03C03FFFF8
03C03FFFF8
03C03FFFF8
07803FFFF8
07803C0000
0FFFFC0000
0FFFFE0000
1FFFFC0000
1FFFFC0000
1E003C0000
3C003C0000
3E003C0000
3C003C0000
78003C0000
F8003FFFFE
F0003FFFFE
F8003FFFFE
F0003FFFFE
ENDCHAR
STARTCHAR aemacron
ENCODING 483
SWIDTH 889 0
DWIDTH 37 0
BBX 35 28 1 0
BITMAP
001FFF0000
001FFF0000
0000000000
0000000000
0000000000
0020008000
07FE0FF800
1FFFBFFE00
1FFFFFFF00
7E03F80F00
3C01F807C0
7801E003C0
0001E003C0
0001E003C0
001FE003C0
01FFFFFFC0
1FFFFFFFE0
3FE1FFFFC0
7F81C00000
7C01E00000
7801E00000
F003E003C0
F003F003C0
7807F007C0
7C1F7C0780
3FFE3FFF00
3FF81FFE00
0FF81FFC00
ENDCHAR
STARTCHAR Gstroke
ENCODING 484
SWIDTH 790 0
DWIDTH 33 0
BBX 32 31 1 0
BITMAP
001E0000
00FFFC00
03FFFF00
07FFFF80
07C00FC0
1F000FC0
1F0003C0
3C0001E0
7C0001E0
3C0001E0
78000000
F8000000
78000000
78000000
7801FFF0
7801FFF0
7801FFF0
7801FFF0
780000F0
F80000F0
7C000FFF
78000FFF
3C000FFF
3E0001F0
3E0003F0
1F0007F0
1F800FF0
07F07F70
07FFFE70
01FFFC70
007FF870
ENDCHAR
STARTCHAR gstroke
ENCODING 485
SWIDTH 597 0
DWIDTH 25 0
BBX 24 32 1 -9
BITMAP
01C000
07FC70
0FFF70
1FFF70
3E03F0
3C01F0
7800F0
7800F0
7800F0
7800F0
F00FFF
F00FFF
F00FFF
F000E0
7800F0
7800F0
7800F0
7801F0
3C03F0
3F1FF0
1FFEF0
07FEF0
01F8F0
0000F0
0000F0
7801E0
7801E0
3C03C0
3F0FC0
1FFF80
0FFF00
01F800
ENDCHAR
STARTCHAR Gcaron
ENCODING 486
SWIDTH 777 0
DWIDTH 33 0
BBX 28 39 2 0
BITMAP
00707000
0078E000
001CE000
001DE000
000FC000
00078000
00000000
00000000
001E0000
00FFFC00
03FFFF00
07FFFF80
07C00FC0
1F000FC0
1F0003C0
3C0001E0
7C0001E0
3C0001E0
78000000
F8000000
78000000
78000000
7801FFF0
7801FFF0
7801FFF0
7801FFF0
780000F0
F80000F0
7C0000F0
780000F0
3C0001F0
3E0001F0
3E0003F0
1F0007F0
1F800FF0
07F07F70
07FFFE70
01FFFC70
007FF870
ENDCHAR
STARTCHAR gcaron
ENCODING 487
SWIDTH 556 0
DWIDTH 23 0
BBX 20 41 1 -9
BITMAP
1E0700
071E00
071C00
03DC00
03F800
01F000
000000
000000
000000
01C000
07FC70
0FFF70
1FFF70
3E03F0
3C01F0
7800F0
7800F0
7800F0
7800F0
F00070
F00070
F000E0
F000F0
7800F0
7800F0
7800F0
7801F0
3C03F0
3F1FF0
1FFEF0
07FEF0
01F8F0
0000F0
0000F0
7801E0
7801E0
3C03C0
3F0FC0
1FFF80
0FFF00
01F800
ENDCHAR
STARTCHAR Kcaron
ENCODING 488
SWIDTH 666 0
DWIDTH 28 0
BBX 25 38 3 0
BITMAP
0383C000
01E70000
00E70000
00EF0000
007E0000
003C0000
00000000
F0001F80
F0003F00
F0007E00
F000FC00
F001F000
F003E000
F007C000
F00F8000
F01F0000
F03E0000
F07C0000
F0F80000
F1F00000
F3F80000
F7FC0000
FFFC0000
FF3E0000
FE1F0000
FC1F0000
F80F8000
F007C000
F003E000
F003E000
F003F000
F000F800
F000F800
F0007C00
F0003E00
F0001F00
F0001F00
F0001F80
ENDCHAR
STARTCHAR kcaron
ENCODING 489
SWIDTH 500 0
DWIDTH 21 0
BBX 19 38 3 0
BITMAP
1C1E00
0F1C00
071C00
03B800
03F000
01F000
000000
F00000
F00000
F00000
F00000
F00000
F00000
F00000
F00000
F00000
F00F80
F01F00
F03E00
F07C00
F0F800
F1F000
F3E000
F7C000
FFC000
7FE000
FFE000
7DF000
787800
F07800
F07C00
F03E00
F01F00
F01F00
F00F80
F007C0
F007C0
F003E0
ENDCHAR
STARTCHAR Oogonek
ENCODING 490
SWIDTH 777 0
DWIDTH 33 0
BBX 30 40 2 -9
BITMAP
00010000
01FFFE00
03FFFF80
07FFFFC0
0FC007E0
0F8003E0
1F0001F0
3E0000F8
7C0000F8
3C0000F8
78000078
7C000078
7800003C
7800003C
7800003C
7800003C
7800003C
7800003C
78000078
F8000078
780000F8
78000078
7C0000F8
3E0001F0
3E0001E0
1F0007E0
0FC00FC0
0FF83FC0
07FFFF00
01FFFC00
007FF000
00078000
000F0000
001E0000
001C0000
003C0000
003C0000
007F8000
003F8000
003F8000
ENDCHAR
STARTCHAR oogonek
ENCODING 491
SWIDTH 556 0
DWIDTH 23 0
BBX 21 32 1 -9
BITMAP
002000
07FF00
0FFFC0
0FFFC0
1E01F0
3C00F0
3C00F0
780078
780078
780078
F00078
F00078
F00078
F00078
780078
7800F0
7800F0
3C00F0
3C01F0
1F03E0
1FFFC0
07FF80
03FE00
00F000
01E000
01C000
03C000
038000
078000
03F800
03F800
03F000
ENDCHAR
STARTCHAR Oogonekmacron
ENCODING 492
SWIDTH 777 0
DWIDTH 33 0
BBX 30 45 2 -9
BITMAP
00FFF800
00FFF800
00000000
00000000
00000000
00010000
01FFFE00
03FFFF80
07FFFFC0
0FC007E0
0F8003E0
1F0001F0
3E0000F8
7C0000F8
3C0000F8
78000078
7C000078
7800003C
7800003C
7800003C
7800003C
7800003C
7800003C
78000078
F8000078
780000F8
78000078
7C0000F8
3E0001F0
3E0001E0
1F0007E0
0FC00FC0
0FF83FC0
07FFFF00
01FFFC00
007FF000
00078000
000F0000
001E0000
001C0000
003C0000
003C0000
007F8000
003F8000
003F8000
ENDCHAR
STARTCHAR oogonekmacron
ENCODING 493
SWIDTH 556 0
DWIDTH 23 0
BBX 21 37 1 -9
BITMAP
0FFF80
0FFF80
000000
000000
000000
002000
07FF00
0FFFC0
0FFFC0
1E01F0
3C00F0
3C00F0
780078
780078
780078
F00078
F00078
F00078
F00078
780078
7800F0
7800F0
3C00F0
3C01F0
1F03E0
1FFFC0
07FF80
03FE00
00F000
01E000
01C000
03C000
038000
078000
03F800
03F800
03F000
ENDCHAR
STARTCHAR Ezhcaron
ENCODING 494
SWIDTH 537 0
DWIDTH 23 0
BBX 22 39 1 0
BITMAP
070780
03CE00
01CE00
00FC00
00F800
000000
000000
000000
FFFFF8
FFFFF8
FFFFF8
FFFFF8
0001F0
0003E0
0007C0
000F80
001F00
003E00
007C00
01FF80
03FFC0
000FE0
0000F0
0000F0
000078
000078
000078
00003C
00003C
00003C
F0003C
78003C
780078
3C007C
3E00F8
1FC1F0
1FFFE0
0FFFC0
007C00
ENDCHAR
STARTCHAR ezhcaron
ENCODING 495
SWIDTH 489 0
DWIDTH 21 0
BBX 20 39 1 -8
BITMAP
0E0E00
070E00
07BC00
01F800
01F800
00F000
000000
000000
000000
7FFFE0
7FFFE0
7FFFE0
0003E0
000F80
001F00
003E00
007C00
00F800
01F000
03FE00
0FFF00
1FFF80
003FC0
0003C0
0001E0
0003E0
0001E0
0001E0
0000F0
0000F0
0000F0
F000F0
7800F0
7801E0
3C01E0
3C03E0
1FFFC0
1FFF00
07FC00
ENDCHAR
STARTCHAR jcaron
ENCODING 496
SWIDTH 222 0
DWIDTH 9 0
BBX 12 39 0 -8
BITMAP
F0F0
71C0
71C0
3FC0
1F80
0F00
0000
0000
0000
1E00
1E00
1E00
1E00
1E00
1E00
1E00
1E00
1E00
1E00
1E00
1E00
1E00
1E00
1E00
1E00
1E00
1E00
1E00
1E00
1E00
1E00
1E00
1E00
1E00
1E00
1E00
FE00
FC00
F800
ENDCHAR
STARTCHAR DZ
ENCODING 497
SWIDTH 1225 0
DWIDTH 51 0
BBX 49 31 2 0
BITMAP
7FF8001FFFFF80
FFFFC01FFFFF80
7FFFF01FFFFF80
FFFFF81FFFFF80
781FFC00001F00
78007C00003E00
78003E00003E00
78001F00007C00
78000F8000FC00
78000F0001F000
7800078003E000
78000F8003E000
780007C007C000
780007800FC000
780007801F0000
780007803E0000
780007803E0000
780007807C0000
780007C0FC0000
78000781F00000
78000783E00000
78000F03E00000
78001F07C00000
78001E0F800000
78001E1F000000
78007C3E000000
7800FC3E000000
7FFFF87FFFFF80
7FFFF07FFFFF80
7FFFC07FFFFF80
7FF80000000000
ENDCHAR
STARTCHAR Dz
ENCODING 498
SWIDTH 1123 0
DWIDTH 47 0
BBX 44 31 2 0
BITMAP
7FF800000000
FFFFC0000000
7FFFF0000000
FFFFF8000000
781FFC000000
78007C000000
78003E000000
78001F000000
78000F800000
78000F1FFFF0
7800079FFFF0
78000F9FFFF0
780007C003E0
7800078007C0
780007800F80
780007800F80
780007801F00
780007803E00
780007C07C00
78000780F800
78000781F000
78000F01F000
78001F03E000
78001E07C000
78001E0F8000
78007C1F0000
7800FC3E0000
7FFFF87FFFF0
7FFFF07FFFF0
7FFFC07FFFF0
7FF8007FFFF0
ENDCHAR
STARTCHAR dz
ENCODING 499
SWIDTH 997 0
DWIDTH 42 0
BBX 40 31 1 0
BITMAP
0000F00000
0000F00000
0000F00000
0000F00000
0000F00000
0000F00000
0000F00000
0000F00000
01C0F00000
07FCF3FFFE
0FFFF3FFFE
1FFFF3FFFE
1F03F0003E
3E01F0007C
7C00F000F8
7800F001F0
7800F003E0
7800F003E0
F0007007C0
F000700F80
F000701F00
7800F03E00
7800F07C00
7800F07C00
7800F0F800
3C01F1F000
3C01F3E000
1F07F3FFFF
1FFF73FFFF
07FE73FFFF
03F873FFFF
ENDCHAR
STARTCHAR Gacute
ENCODING 500
SWIDTH 777 0
DWIDTH 33 0
BBX 28 39 2 0
BITMAP
0003C000
0003C000
00078000
00070000
000E0000
001C0000
00000000
00000000
001E0000
00FFFC00
03FFFF00
07FFFF80
07C00FC0
1F000FC0
1F0003C0
3C0001E0
7C0001E0
3C0001E0
78000000
F8000000
78000000
78000000
7801FFF0
7801FFF0
7801FFF0
7801FFF0
780000F0
F80000F0
7C0000F0
780000F0
3C0001F0
3E0001F0
3E0003F0
1F0007F0
1F800FF0
07F07F70
07FFFE70
01FFFC70
007FF870
ENDCHAR
STARTCHAR gacute
ENCODING 501
SWIDTH 556 0
DWIDTH 23 0
BBX 20 40 1 -9
BITMAP
003E00
003C00
007800
007800
00E000
01C000
000000
000000
01C000
07FC70
0FFF70
1FFF70
3E03F0
3C01F0
7800F0
7800F0
7800F0
7800F0
F00070
F00070
F000E0
F000F0
7800F0
7800F0
7800F0
7801F0
3C03F0
3F1FF0
1FFEF0
07FEF0
01F8F0
0000F0
0000F0
7801E0
7801E0
3C03C0
3F0FC0
1FFF80
0FFF00
01F800
ENDCHAR
STARTCHAR Wynn
ENCODING 503
SWIDTH 666 0
DWIDTH 28 0
BBX 23 31 4 0
BITMAP
FFFC00
7FFFE0
FFFFF0
FFFFF0
7807FC
7800FC
78003C
78001E
78001E
78001E
78001E
78001E
78003C
78003C
780078
7800F8
7801F8
780FE0
783FE0
79FF80
7FFE00
FFF000
7F8000
7C0000
780000
780000
780000
780000
780000
780000
780000
ENDCHAR
STARTCHAR Ngrave
ENCODING 504
SWIDTH 722 0
DWIDTH 30 0
BBX 25 38 3 0
BITMAP
01E00000
00F00000
00780000
003C0000
003C0000
000E0000
00000000
F8000F00
7C000F00
7E000F00
FE000F00
7F000F00
FF000F00
FF800F00
F7800F00
F3E00F00
F1E00F00
F1E00F00
F1F00F00
F0780F00
F0780F00
F07C0F00
F03C0F00
F01F0F00
F00F0F00
F00F0F00
F007CF00
F003CF00
F003CF00
F003EF00
F000FF00
F000FF00
F000FF00
F0007F00
F0003F80
F0003F00
F0001F00
F0000F80
ENDCHAR
STARTCHAR ngrave
ENCODING 505
SWIDTH 556 0
DWIDTH 23 0
BBX 18 31 3 0
BITMAP
078000
03C000
01E000
00F000
007000
003800
000000
000000
001000
71FF00
77FF80
7FFF80
FF07C0
7C03C0
7803C0
7803C0
F003C0
F003C0
F003C0
F003C0
F003C0
F003C0
F003C0
F003C0
F003C0
F003C0
F003C0
F003C0
F003C0
F003C0
F003C0
ENDCHAR
STARTCHAR Aringacute
ENCODING 506
SWIDTH 666 0
DWIDTH 28 0
BBX 28 47 1 0
BITMAP
0000F000
0001E000
0003C000
00078000
00070000
00000000
00020000
001F8000
001F8000
0030E000
00306000
00306000
0030C000
001F8000
001F8000
00000000
000F8000
000F8000
001F8000
001FC000
003FC000
003FC000
0079E000
0079E000
0079E000
00F0F000
00F1F000
00F0F000
01E07800
01E07C00
03C07800
03C03C00
03C03E00
07803C00
07FFFE00
0FFFFE00
0FFFFE00
0F001F00
0F000F00
1E000780
1E000F80
3C000780
3C0003C0
3C0003E0
780003C0
F80001E0
780001F0
ENDCHAR
STARTCHAR aringacute
ENCODING 507
SWIDTH 556 0
DWIDTH 23 0
BBX 22 39 2 0
BITMAP
001E00
001E00
003C00
003800
007000
000000
002000
01F800
01F800
030C00
030600
030600
018C00
01F800
01F800
000000
002000
0FFF00
0FFF00
3FFFC0
3C03E0
3C01E0
7801E0
0001E0
0001E0
001FE0
00FFE0
1FFFE0
3FE1E0
7F81E0
FC01E0
7801E0
F001E0
F003E0
7807E0
780FE0
7FFFF8
3FF8FC
0FF0FC
ENDCHAR
STARTCHAR AEacute
ENCODING 508
SWIDTH 1000 0
DWIDTH 42 0
BBX 39 38 1 0
BITMAP
000000F800
000001E000
000001E000
000003C000
0000038000
0000070000
0000000000
000FFFFFFE
001FFFFFFC
001FFFFFFE
001FFFFFFE
003C3C0000
003C3C0000
00783C0000
00783C0000
00F03C0000
00F03C0000
00F03C0000
01E03C0000
01E03C0000
03C03FFFF8
03C03FFFF8
03C03FFFF8
07803FFFF8
07803C0000
0FFFFC0000
0FFFFE0000
1FFFFC0000
1FFFFC0000
1E003C0000
3C003C0000
3E003C0000
3C003C0000
78003C0000
F8003FFFFE
F0003FFFFE
F8003FFFFE
F0003FFFFE
ENDCHAR
STARTCHAR aeacute
ENCODING 509
SWIDTH 889 0
DWIDTH 37 0
BBX 35 31 1 0
BITMAP
0000780000
0000780000
0000F00000
0000E00000
0001C00000
0003800000
0000000000
0000000000
0020008000
07FE0FF800
1FFFBFFE00
1FFFFFFF00
7E03F80F00
3C01F807C0
7801E003C0
0001E003C0
0001E003C0
001FE003C0
01FFFFFFC0
1FFFFFFFE0
3FE1FFFFC0
7F81C00000
7C01E00000
7801E00000
F003E003C0
F003F003C0
7807F007C0
7C1F7C0780
3FFE3FFF00
3FF81FFE00
0FF81FFC00
ENDCHAR
STARTCHAR Ostrokeacute
ENCODING 510
SWIDTH 777 0
DWIDTH 33 0
BBX 30 39 1 0
BITMAP
0001E000
0001E000
0003C000
00078000
00070000
000E0000
00000000
00000000
001F000C
01FFF81C
03FFFFB8
07FFFFE0
0FC00FE0
0F8003E0
1F0003F0
3E0003F8
3C000678
7C001C7C
3C003878
7800703C
7800703C
7C00E07C
F801807C
F803007C
F806007C
F806003C
7C0C003C
7818003C
78700078
3CE000F8
3FC00078
3F8000F8
1F8001F0
1F0003E0
0FE01FC0
1FF03FC0
3FFFFF00
70FFFE00
607FF800
ENDCHAR
STARTCHAR ostrokeacute
ENCODING 511
SWIDTH 610 0
DWIDTH 26 0
BBX 21 31 3 0
BITMAP
003C00
007800
007800
00E000
00E000
000000
000000
000000
01E010
07FE30
1FFFE0
3FFFC0
1E07C0
3C03E0
7C03F0
7806F0
F00CF0
F018F0
F030F0
F06078
F0C0F0
F0C0F0
F180F0
F300F0
7E00F0
7E01E0
7803C0
3E07C0
7FFF80
DFFF00
C7FC00
ENDCHAR
STARTCHAR Adblgrave
ENCODING 512
SWIDTH 666 0
DWIDTH 28 0
BBX 28 39 1 0
BITMAP
07DF0000
03CF0000
03C78000
01C38000
00F1C000
0071C000
00000000
00000000
000F8000
000F8000
001F8000
001FC000
003FC000
003FC000
0079E000
0079E000
0079E000
00F0F000
00F1F000
00F0F000
01E07800
01E07C00
03C07800
03C03C00
03C03E00
07803C00
07FFFE00
0FFFFE00
0FFFFE00
0F001F00
0F000F00
1E000780
1E000F80
3C000780
3C0003C0
3C0003E0
780003C0
F80001E0
780001F0
ENDCHAR
STARTCHAR adblgrave
ENCODING 513
SWIDTH 556 0
DWIDTH 23 0
BBX 22 31 2 0
BITMAP
3C7C00
1E3C00
1E3C00
071C00
070E00
038700
000000
000000
002000
0FFF00
0FFF00
3FFFC0
3C03E0
3C01E0
7801E0
0001E0
0001E0
001FE0
00FFE0
1FFFE0
3FE1E0
7F81E0
FC01E0
7801E0
F001E0
F003E0
7807E0
780FE0
7FFFF8
3FF8FC
0FF0FC
ENDCHAR
STARTCHAR Ainvertedbreve
ENCODING 514
SWIDTH 666 0
DWIDTH 28 0
BBX 28 37 1 0
BITMAP
00020000
003FE000
007FF000
00E07000
00E07000
00C03000
000F8000
000F8000
001F8000
001FC000
003FC000
003FC000
0079E000
0079E000
0079E000
00F0F000
00F1F000
00F0F000
01E07800
01E07C00
03C07800
03C03C00
03C03E00
07803C00
07FFFE00
0FFFFE00
0FFFFE00
0F001F00
0F000F00
1E000780
1E000F80
3C000780
3C0003C0
3C0003E0
780003C0
F80001E0
780001F0
ENDCHAR
STARTCHAR ainvertedbreve
ENCODING 515
SWIDTH 556 0
DWIDTH 23 0
BBX 22 31 2 0
BITMAP
002000
03FE00
07FF00
0E0700
0E0700
0C0300
000000
000000
002000
0FFF00
0FFF00
3FFFC0
3C03E0
3C01E0
7801E0
0001E0
0001E0
001FE0
00FFE0
1FFFE0
3FE1E0
7F81E0
FC01E0
7801E0
F001E0
F003E0
7807E0
780FE0
7FFFF8
3FF8FC
0FF0FC
ENDCHAR
STARTCHAR Edblgrave
ENCODING 516
SWIDTH 666 0
DWIDTH 28 0
BBX 23 39 4 0
BITMAP
1E3C00
0F1E00
078F00
078700
038700
01C380
000000
000000
FFFFFC
FFFFFC
FFFFFC
FFFFFC
F00000
F00000
F00000
F00000
F00000
F00000
F00000
F00000
F00000
FFFFF8
FFFFF8
FFFFF8
FFFFF8
F00000
F00000
F00000
F00000
F00000
F00000
F00000
F00000
F00000
F00000
7FFFFE
7FFFFE
7FFFFE
7FFFFE
ENDCHAR
STARTCHAR edblgrave
ENCODING 517
SWIDTH 556 0
DWIDTH 23 0
BBX 20 31 2 0
BITMAP
3C7800
3C7800
1E3C00
0F3C00
070E00
070E00
000000
000000
03C000
0FFC00
1FFF00
3FFF80
7C03C0
7C03C0
F001E0
F001E0
F001E0
F000F0
FFFFF0
FFFFF0
FFFFF0
F00000
F00000
F00000
F001E0
7801E0
7803C0
3E0F80
1FFF80
0FFF80
03FC00
ENDCHAR
STARTCHAR Einvertedbreve
ENCODING 518
SWIDTH 666 0
DWIDTH 28 0
BBX 23 38 4 0
BITMAP
001000
01FF00
03FFC0
0701C0
0600C0
000000
000000
FFFFFC
FFFFFC
FFFFFC
FFFFFC
F00000
F00000
F00000
F00000
F00000
F00000
F00000
F00000
F00000
FFFFF8
FFFFF8
FFFFF8
FFFFF8
F00000
F00000
F00000
F00000
F00000
F00000
F00000
F00000
F00000
F00000
7FFFFE
7FFFFE
7FFFFE
7FFFFE
ENDCHAR
STARTCHAR einvertedbreve
ENCODING 519
SWIDTH 556 0
DWIDTH 23 0
BBX 20 31 2 0
BITMAP
002000
03FE00
07FF00
0FFE00
0E0700
0C0300
000000
000000
03C000
0FFC00
1FFF00
3FFF80
7C03C0
7C03C0
F001E0
F001E0
F001E0
F000F0
FFFFF0
FFFFF0
FFFFF0
F00000
F00000
F00000
F001E0
7801E0
7803C0
3E0F80
1FFF80
0FFF80
03FC00
ENDCHAR
STARTCHAR Idblgrave
ENCODING 520
SWIDTH 277 0
DWIDTH 12 0
BBX 13 39 -2 0
BITMAP
F1E0
F1E0
78F0
3CF0
1C38
1C38
0000
0000
01E0
01E0
01E0
01E0
01E0
01E0
01E0
01E0
01E0
01E0
01E0
01E0
01E0
01E0
01E0
01E0
01E0
01E0
01E0
01E0
01E0
01E0
01E0
01E0
01E0
01E0
01E0
01E0
01E0
01E0
01E0
ENDCHAR
STARTCHAR idblgrave
ENCODING 521
SWIDTH 222 0
DWIDTH 9 0
BBX 14 31 -3 0
BITMAP
F3E0
78F0
78F0
1C70
1C38
0E1C
0000
0000
0000
03C0
03C0
03C0
03C0
03C0
03C0
03C0
03C0
03C0
03C0
03C0
03C0
03C0
03C0
03C0
03C0
03C0
03C0
03C0
03C0
03C0
03C0
ENDCHAR
STARTCHAR Iinvertedbreve
ENCODING 522
SWIDTH 277 0
DWIDTH 12 0
BBX 12 38 1 0
BITMAP
0200
7FE0
FFE0
E070
C030
0000
0000
0F00
0F00
0F00
0F00
0F00
0F00
0F00
0F00
0F00
0F00
0F00
0F00
0F00
0F00
0F00
0F00
0F00
0F00
0F00
0F00
0F00
0F00
0F00
0F00
0F00
0F00
0F00
0F00
0F00
0F00
0F00
ENDCHAR
STARTCHAR iinvertedbreve
ENCODING 523
SWIDTH 222 0
DWIDTH 9 0
BBX 12 31 -1 0
BITMAP
0200
7FE0
FFE0
E070
C030
0000
0000
0000
0000
0F00
0F00
0F00
0F00
0F00
0F00
0F00
0F00
0F00
0F00
0F00
0F00
0F00
0F00
0F00
0F00
0F00
0F00
0F00
0F00
0F00
0F00
ENDCHAR
STARTCHAR Odblgrave
ENCODING 524
SWIDTH 777 0
DWIDTH 33 0
BBX 30 40 2 0
BITMAP
03C78000
01E3C000
00F1E000
00F0E000
0070E000
00387000
00000000
00000000
00000000
00010000
01FFFE00
03FFFF80
07FFFFC0
0FC007E0
0F8003E0
1F0001F0
3E0000F8
7C0000F8
3C0000F8
78000078
7C000078
7800003C
7800003C
7800003C
7800003C
7800003C
7800003C
78000078
F8000078
780000F8
78000078
7C0000F8
3E0001F0
3E0001E0
1F0007E0
0FC00FC0
0FF83FC0
07FFFF00
01FFFC00
007FF000
ENDCHAR
STARTCHAR odblgrave
ENCODING 525
SWIDTH 556 0
DWIDTH 23 0
BBX 21 31 1 0
BITMAP
3E3C00
0F3C00
0F1E00
070E00
038700
01C700
000000
000000
002000
07FF00
0FFFC0
0FFFC0
1E01F0
3C00F0
3C00F0
780078
780078
780078
F00078
F00078
F00078
F00078
780078
7800F0
7800F0
3C00F0
3C01F0
1F03E0
1FFFC0
07FF80
03FE00
ENDCHAR
STARTCHAR Oinvertedbreve
ENCODING 526
SWIDTH 777 0
DWIDTH 33 0
BBX 30 39 2 0
BITMAP
00010000
001FF000
003FF800
00703800
00703800
00600C00
00000000
00000000
00010000
01FFFE00
03FFFF80
07FFFFC0
0FC007E0
0F8003E0
1F0001F0
3E0000F8
7C0000F8
3C0000F8
78000078
7C000078
7800003C
7800003C
7800003C
7800003C
7800003C
7800003C
78000078
F8000078
780000F8
78000078
7C0000F8
3E0001F0
3E0001E0
1F0007E0
0FC00FC0
0FF83FC0
07FFFF00
01FFFC00
007FF000
ENDCHAR
STARTCHAR oinvertedbreve
ENCODING 527
SWIDTH 556 0
DWIDTH 23 0
BBX 21 31 1 0
BITMAP
002000
03FE00
07FF00
070380
0E0380
0C0180
000000
000000
002000
07FF00
0FFFC0
0FFFC0
1E01F0
3C00F0
3C00F0
780078
780078
780078
F00078
F00078
F00078
F00078
780078
7800F0
7800F0
3C00F0
3C01F0
1F03E0
1FFFC0
07FF80
03FE00
ENDCHAR
STARTCHAR Rdblgrave
ENCODING 528
SWIDTH 722 0
DWIDTH 30 0
BBX 25 39 4 0
BITMAP
0F3C0000
0F1E0000
078F0000
07870000
03870000
01C38000
00000000
00000000
FFFC0000
FFFFF000
7FFFFC00
7FFFFE00
7803FE00
78003F00
78001F00
78000F00
78000F00
78000F00
78000F00
78000F00
78001E00
78003E00
7FFFFC00
FFFFF000
FFFFF000
7FFFFE00
78003E00
78001F00
78000F00
78000F00
78000F00
78000F00
78000F00
78000F00
78000F00
78001F00
78000F00
78000F80
78000F80
ENDCHAR
STARTCHAR rdblgrave
ENCODING 529
SWIDTH 333 0
DWIDTH 14 0
BBX 14 32 0 0
BITMAP
F1E0
F1E0
78F0
3C78
1C38
1C38
0000
0000
0000
0004
1C7C
1C7C
1DFC
1FF0
1F00
1F00
1E00
1E00
1E00
1E00
1E00
1E00
1E00
1E00
1E00
1E00
1E00
1E00
1E00
1E00
1E00
1E00
ENDCHAR
STARTCHAR Rinvertedbreve
ENCODING 530
SWIDTH 722 0
DWIDTH 30 0
BBX 25 38 4 0
BITMAP
00100000
01FF0000
03FF8000
07038000
0701C000
0600C000
00000000
FFFC0000
FFFFF000
7FFFFC00
7FFFFE00
7803FE00
78003F00
78001F00
78000F00
78000F00
78000F00
78000F00
78000F00
78001E00
78003E00
7FFFFC00
FFFFF000
FFFFF000
7FFFFE00
78003E00
78001F00
78000F00
78000F00
78000F00
78000F00
78000F00
78000F00
78000F00
78001F00
78000F00
78000F80
78000F80
ENDCHAR
STARTCHAR rinvertedbreve
ENCODING 531
SWIDTH 333 0
DWIDTH 14 0
BBX 12 31 3 0
BITMAP
0200
3FE0
7FF0
FFE0
E070
C030
0000
0000
0020
F3E0
F3E0
F7F0
FFC0
FC00
7C00
7800
7800
7800
7800
7800
7800
7800
7800
7800
7800
7800
7800
7800
7800
7800
7800
ENDCHAR
STARTCHAR Udblgrave
ENCODING 532
SWIDTH 722 0
DWIDTH 30 0
BBX 25 39 3 0
BITMAP
0F3E0000
078F0000
078F0000
01C70000
01C78000
00E1C000
00000000
00000000
78000F00
78000F00
78000F00
78000F00
78000F00
78000F00
78000F00
78000F00
78000F00
78000F00
78000F00
78000F00
78000F00
78000F00
78000F00
78000F00
78000F00
78000F00
78000F00
78000F00
78000F80
78000F00
F8000F00
78001E00
3C001E00
3E003E00
3F007E00
1FC1FC00
0FFFF800
07FFE000
01FF8000
ENDCHAR
STARTCHAR udblgrave
ENCODING 533
SWIDTH 556 0
DWIDTH 23 0
BBX 19 31 3 0
BITMAP
3CF000
3C7800
1E3C00
1E1C00
071C00
070E00
000000
000000
000000
F003C0
F003C0
F003C0
F003C0
F003C0
F003C0
F003C0
F003C0
F003C0
F003C0
F003C0
F003C0
F003C0
F003C0
F003E0
F007C0
7807C0
780FC0
7C3FC0
3FFFC0
1FFBC0
0FE3C0
ENDCHAR
STARTCHAR Uinvertedbreve
ENCODING 534
SWIDTH 722 0
DWIDTH 30 0
BBX 25 38 3 0
BITMAP
00080000
00FFC000
01FFC000
0380E000
03806000
00000000
00000000
78000F00
78000F00
78000F00
78000F00
78000F00
78000F00
78000F00
78000F00
78000F00
78000F00
78000F00
78000F00
78000F00
78000F00
78000F00
78000F00
78000F00
78000F00
78000F00
78000F00
78000F80
78000F00
F8000F00
78001E00
3C001E00
3E003E00
3F007E00
1FC1FC00
0FFFF800
07FFE000
01FF8000
ENDCHAR
STARTCHAR uinvertedbreve
ENCODING 535
SWIDTH 556 0
DWIDTH 23 0
BBX 19 31 3 0
BITMAP
004000
07FC00
0FFE00
0FFE00
1C0700
180300
000000
000000
000000
F003C0
F003C0
F003C0
F003C0
F003C0
F003C0
F003C0
F003C0
F003C0
F003C0
F003C0
F003C0
F003C0
F003C0
F003E0
F007C0
7807C0
780FC0
7C3FC0
3FFFC0
1FFBC0
0FE3C0
ENDCHAR
STARTCHAR Scommaaccent
ENCODING 536
SWIDTH 666 0
DWIDTH 28 0
BBX 25 43 2 -12
BITMAP
00080000
07FFE000
0FFFF000
1FFFFC00
3E007C00
3E003E00
3C003E00
3C001E00
78000F00
3C000000
7C000000
3F000000
3FC00000
1FFC0000
0FFF8000
07FFF800
003FFC00
0003FE00
00003F00
00001F80
00000F00
F0000F00
78000F00
78000F00
78000F00
78000F00
7E003E00
3F807E00
0FFFFC00
0FFFF800
03FFC000
00000000
00000000
00000000
003C0000
003C0000
003C0000
003C0000
000C0000
000C0000
00080000
00380000
00200000
ENDCHAR
STARTCHAR scommaaccent
ENCODING 537
SWIDTH 500 0
DWIDTH 21 0
BBX 19 35 1 -12
BITMAP
004000
1FFE00
1FFF00
3FFF80
3C0780
7803C0
7803C0
780000
7C0000
3FC000
3FE000
1FFF00
01FF00
003FC0
0003E0
0001E0
F001E0
7801E0
7803C0
7C03C0
3FFF80
1FFF80
07FE00
000000
000000
000000
01E000
01E000
01E000
01E000
006000
006000
004000
00E000
010000
ENDCHAR
STARTCHAR Tcommaaccent
ENCODING 538
SWIDTH 610 0
DWIDTH 26 0
BBX 24 42 2 -11
BITMAP
FFFFFF
FFFFFF
FFFFFF
FFFFFF
003C00
003C00
003C00
003C00
003C00
003C00
003C00
003C00
003C00
003C00
003C00
003C00
003C00
003C00
003C00
003C00
003C00
003C00
003C00
003C00
003C00
003C00
003C00
003C00
003C00
003C00
003C00
000000
000000
003C00
003C00
003C00
003C00
000C00
001800
000800
003800
002000
ENDCHAR
STARTCHAR tcommaaccent
ENCODING 539
SWIDTH 277 0
DWIDTH 12 0
BBX 10 40 1 -11
BITMAP
3C00
3C00
3C00
3C00
3C00
3C00
3C00
FFC0
FFC0
FFC0
3C00
3C00
3C00
3C00
3C00
3C00
3C00
3C00
3C00
3C00
3C00
3C00
3C00
3C00
3C00
1E00
1FC0
0FC0
0FC0
0000
0000
0000
1E00
1E00
1E00
0C00
0C00
0C00
1800
1800
ENDCHAR
STARTCHAR Yogh
ENCODING 540
SWIDTH 663 0
DWIDTH 28 0
BBX 22 33 5 -1
BITMAP
002000
07FF00
1FFFC0
3FFFC0
FFFFE0
F801F0
7000F0
2000F0
000078
000078
0000F0
0000F8
0001F0
0003E0
00FFC0
00FF80
007FE0
003FF0
0000F8
000078
000078
00003C
00003C
00003C
000078
000078
000078
2000F8
7C03F0
FFFFE0
3FFFE0
0FFE00
002000
ENDCHAR
STARTCHAR yogh
ENCODING 541
SWIDTH 663 0
DWIDTH 28 0
BBX 22 32 5 -9
BITMAP
002000
07FF80
3FFFC0
7FFFC0
7E01F0
F803F0
3000F0
200078
000078
000078
0000F0
0001F0
0001F0
0003E0
007FC0
00FF80
00FFE0
003FF0
0000F8
00007C
000078
00003C
00003C
00003C
000078
00007C
0000F8
4001F0
FC07E0
FFFFE0
3FFF80
07FE00
ENDCHAR
STARTCHAR Hcaron
ENCODING 542
SWIDTH 722 0
DWIDTH 30 0
BBX 24 38 3 0
BITMAP
03C0E0
00E3C0
00E3C0
007F00
003F00
003E00
000000
78000F
78000F
78000F
78000F
78000F
78000F
78000F
78000F
78000F
78000F
78000F
78000F
78000F
FFFFFF
FFFFFF
FFFFFF
78000F
78000F
78000F
78000F
78000F
78000F
78000F
78000F
78000F
78000F
78000F
78000F
78000F
78000F
78000F
ENDCHAR
STARTCHAR hcaron
ENCODING 543
SWIDTH 556 0
DWIDTH 23 0
BBX 19 38 3 0
BITMAP
0E0700
0F1E00
039C00
039C00
01F800
01F000
000000
F00000
F00000
F00000
F00000
F00000
F00000
F00000
F00000
F02000
F1FF00
F7FF80
FFFF80
7E03C0
FC03E0
7803C0
7803C0
F003C0
F003C0
F003C0
F003C0
F003C0
F003C0
F003C0
F003C0
F003C0
F003C0
F003C0
F003C0
F003C0
F003C0
F003C0
ENDCHAR
STARTCHAR uni0220
ENCODING 544
SWIDTH 722 0
DWIDTH 30 0
BBX 25 39 3 -8
BITMAP
78080000
7FFFE000
7FFFF800
7FFFFC00
7F007C00
FC003E00
7C001F00
7C001E00
78000F00
78000F00
78000F80
78000F00
78000F00
78000F00
78000F00
78000F00
78000F00
78000F00
78000F00
78000F00
78000F00
78000F00
78000F00
78000F00
78000F00
78000F00
78000F00
78000F00
78000F00
78000F00
78000F00
00000F00
00000F00
00000F00
00000F00
00000F00
00000F00
00000F00
00000F00
ENDCHAR
STARTCHAR uni0226
ENCODING 550
SWIDTH 666 0
DWIDTH 28 0
BBX 28 37 1 0
BITMAP
000F0000
000F0000
000F0000
000F0000
00000000
00000000
000F8000
000F8000
001F8000
001FC000
003FC000
003FC000
0079E000
0079E000
0079E000
00F0F000
00F1F000
00F0F000
01E07800
01E07C00
03C07800
03C03C00
03C03E00
07803C00
07FFFE00
0FFFFE00
0FFFFE00
0F001F00
0F000F00
1E000780
1E000F80
3C000780
3C0003C0
3C0003E0
780003C0
F80001E0
780001F0
ENDCHAR
STARTCHAR uni0227
ENCODING 551
SWIDTH 556 0
DWIDTH 23 0
BBX 22 31 2 0
BITMAP
00F000
00F000
00F000
00F000
000000
000000
000000
000000
002000
0FFF00
0FFF00
3FFFC0
3C03E0
3C01E0
7801E0
0001E0
0001E0
001FE0
00FFE0
1FFFE0
3FE1E0
7F81E0
FC01E0
7801E0
F001E0
F003E0
7807E0
780FE0
7FFFF8
3FF8FC
0FF0FC
ENDCHAR
STARTCHAR uni0228
ENCODING 552
SWIDTH 666 0
DWIDTH 28 0
BBX 23 40 4 -9
BITMAP
FFFFFC
FFFFFC
FFFFFC
FFFFFC
F00000
F00000
F00000
F00000
F00000
F00000
F00000
F00000
F00000
FFFFF8
FFFFF8
FFFFF8
FFFFF8
F00000
F00000
F00000
F00000
F00000
F00000
F00000
F00000
F00000
F00000
7FFFFE
7FFFFE
7FFFFE
7FFFFE
001800
003000
003C00
003F00
000780
000380
008700
00FF00
00FF00
ENDCHAR
STARTCHAR uni0229
ENCODING 553
SWIDTH 556 0
DWIDTH 23 0
BBX 20 32 2 -9
BITMAP
03C000
0FFC00
1FFF00
3FFF80
7C03C0
7C03C0
F001E0
F001E0
F001E0
F000F0
FFFFF0
FFFFF0
FFFFF0
F00000
F00000
F00000
F001E0
7801E0
7803C0
3E0F80
1FFF80
0FFF80
03FC00
006000
006000
00D000
00FC00
00BE00
001E00
000E00
023C00
03FC00
ENDCHAR
STARTCHAR uni022A
ENCODING 554
SWIDTH 777 0
DWIDTH 33 0
BBX 30 45 2 0
BITMAP
00FFFC00
00FFFC00
00000000
00000000
00000000
00000000
00000000
003C7800
003C7800
003C7800
003C7800
00000000
00000000
00000000
00010000
01FFFE00
03FFFF80
07FFFFC0
0FC007E0
0F8003E0
1F0001F0
3E0000F8
7C0000F8
3C0000F8
78000078
7C000078
7800003C
7800003C
7800003C
7800003C
7800003C
7800003C
78000078
F8000078
780000F8
78000078
7C0000F8
3E0001F0
3E0001E0
1F0007E0
0FC00FC0
0FF83FC0
07FFFF00
01FFFC00
007FF000
ENDCHAR
STARTCHAR uni022B
ENCODING 555
SWIDTH 556 0
DWIDTH 23 0
BBX 21 34 1 0
BITMAP
07FFC0
07FFC0
000000
000000
000000
03CF00
03CF00
03CF00
03CF00
000000
000000
002000
07FF00
0FFFC0
0FFFC0
1E01F0
3C00F0
3C00F0
780078
780078
780078
F00078
F00078
F00078
F00078
780078
7800F0
7800F0
3C00F0
3C01F0
1F03E0
1FFFC0
07FF80
03FE00
ENDCHAR
STARTCHAR uni022C
ENCODING 556
SWIDTH 777 0
DWIDTH 33 0
BBX 30 42 2 0
BITMAP
00FFF800
00FFF800
00FFF800
00000000
00000C00
000C1C00
007FFC00
007FF800
00E0F800
00000000
00000000
00010000
01FFFE00
03FFFF80
07FFFFC0
0FC007E0
0F8003E0
1F0001F0
3E0000F8
7C0000F8
3C0000F8
78000078
7C000078
7800003C
7800003C
7800003C
7800003C
7800003C
7800003C
78000078
F8000078
780000F8
78000078
7C0000F8
3E0001F0
3E0001E0
1F0007E0
0FC00FC0
0FF83FC0
07FFFF00
01FFFC00
007FF000
ENDCHAR
STARTCHAR uni022D
ENCODING 557
SWIDTH 556 0
DWIDTH 23 0
BBX 21 34 1 0
BITMAP
0FFF80
0FFF80
000000
000000
0000C0
00C180
0FFF80
0F7F80
1C1F00
000000
000000
002000
07FF00
0FFFC0
0FFFC0
1E01F0
3C00F0
3C00F0
780078
780078
780078
F00078
F00078
F00078
F00078
780078
7800F0
7800F0
3C00F0
3C01F0
1F03E0
1FFFC0
07FF80
03FE00
ENDCHAR
STARTCHAR uni022E
ENCODING 558
SWIDTH 777 0
DWIDTH 33 0
BBX 30 39 2 0
BITMAP
00078000
00078000
00078000
00078000
00078000
00000000
00000000
00000000
00010000
01FFFE00
03FFFF80
07FFFFC0
0FC007E0
0F8003E0
1F0001F0
3E0000F8
7C0000F8
3C0000F8
78000078
7C000078
7800003C
7800003C
7800003C
7800003C
7800003C
7800003C
78000078
F8000078
780000F8
78000078
7C0000F8
3E0001F0
3E0001E0
1F0007E0
0FC00FC0
0FF83FC0
07FFFF00
01FFFC00
007FF000
ENDCHAR
STARTCHAR uni022F
ENCODING 559
SWIDTH 556 0
DWIDTH 23 0
BBX 21 31 1 0
BITMAP
007800
007800
007800
007800
007800
000000
000000
000000
002000
07FF00
0FFFC0
0FFFC0
1E01F0
3C00F0
3C00F0
780078
780078
780078
F00078
F00078
F00078
F00078
780078
7800F0
7800F0
3C00F0
3C01F0
1F03E0
1FFFC0
07FF80
03FE00
ENDCHAR
STARTCHAR uni0230
ENCODING 560
SWIDTH 777 0
DWIDTH 33 0
BBX 30 43 2 0
BITMAP
00FFF800
00FFF800
00FFF800
00000000
00000000
00078000
00078000
00078000
00078000
00000000
00000000
00000000
00010000
01FFFE00
03FFFF80
07FFFFC0
0FC007E0
0F8003E0
1F0001F0
3E0000F8
7C0000F8
3C0000F8
78000078
7C000078
7800003C
7800003C
7800003C
7800003C
7800003C
7800003C
78000078
F8000078
780000F8
78000078
7C0000F8
3E0001F0
3E0001E0
1F0007E0
0FC00FC0
0FF83FC0
07FFFF00
01FFFC00
007FF000
ENDCHAR
STARTCHAR uni0231
ENCODING 561
SWIDTH 556 0
DWIDTH 23 0
BBX 21 33 1 0
BITMAP
07FFC0
07FFC0
000000
000000
007800
007800
007800
007800
000000
000000
002000
07FF00
0FFFC0
0FFFC0
1E01F0
3C00F0
3C00F0
780078
780078
780078
F00078
F00078
F00078
F00078
780078
7800F0
7800F0
3C00F0
3C01F0
1F03E0
1FFFC0
07FF80
03FE00
ENDCHAR
STARTCHAR uni0232
ENCODING 562
SWIDTH 666 0
DWIDTH 28 0
BBX 27 34 1 0
BITMAP
00FFF800
00FFF800
00000000
F80003E0
7C0003E0
3E0007C0
3E0007C0
1F000F80
1F001F00
0F801F00
07C03E00
07C07C00
03C07800
01F07800
00F0F800
00F1E000
00FBE000
003FC000
003FC000
003F8000
001F0000
000F0000
000F0000
000F0000
000F0000
000F0000
000F0000
000F0000
000F0000
000F0000
000F0000
000F0000
000F0000
000F0000
ENDCHAR
STARTCHAR uni0233
ENCODING 563
SWIDTH 500 0
DWIDTH 21 0
BBX 19 36 1 -8
BITMAP
1FFF00
1FFF00
1FFF00
000000
000000
000000
F001E0
F001E0
7803C0
7803C0
7803C0
3C0780
3C0780
3C0780
1E0F00
1E0F00
1E0F00
0F1E00
0F1E00
0F1E00
07BC00
07BC00
07BC00
07F800
01F800
03F000
01F000
01E000
01E000
01E000
03C000
03C000
03C000
3F8000
7F0000
7F0000
ENDCHAR
STARTCHAR dotlessj
ENCODING 567
SWIDTH 222 0
DWIDTH 9 0
BBX 8 30 -1 -8
BITMAP
0F
0F
0F
0F
0F
0F
0F
0F
0F
0F
0F
0F
0F
0F
0F
0F
0F
0F
0F
0F
0F
0F
0F
0F
0F
0F
0F
FE
7E
7C
ENDCHAR
STARTCHAR uni0238
ENCODING 568
SWIDTH 930 0
DWIDTH 39 0
BBX 36 31 2 0
BITMAP
0000F00000
0000F00000
0000F00000
0000F00000
0000F00000
0000F00000
0000F00000
0000F00000
01C0F02000
07FCF1FF00
0FFFF7FF80
1FFFFFFF80
1F03FE07C0
3E01FC01E0
7C00F803E0
7800F801E0
7800F000F0
7800F000F0
F0007000F0
F0007000F0
F0007000F0
78007000F0
7800F000F0
7800F001E0
7800F801E0
3C01F801E0
3C03FC03C0
1F07FF0F80
1FFF7FFFC0
07FE73FF00
03F873FC00
ENDCHAR
STARTCHAR uni0239
ENCODING 569
SWIDTH 902 0
DWIDTH 38 0
BBX 36 31 1 -8
BITMAP
01C0002000
07FCF3FE00
0FFFF7FF80
1FFFFFFF80
3E03FE07C0
7C01FC03C0
7800F801E0
7801F001F0
7800F001E0
7800F000F0
F000F000F0
F000F000F0
F000F000F0
F000F001E0
7800F001E0
7801F001E0
7801F001E0
7801F803C0
3E03FC03C0
1F0FFE0F80
1FFFFFFF80
07FEF7FF00
03F8F3FC00
0000F00000
0000F00000
0000F00000
0000F00000
0000F00000
0000F00000
0000F00000
0000F00000
ENDCHAR
STARTCHAR uni023A
ENCODING 570
SWIDTH 666 0
DWIDTH 28 0
BBX 28 39 1 -4
BITMAP
00003800
00007000
00007000
00007000
000FF000
001FE000
001FE000
001FE000
003FC000
003FC000
0079E000
0079E000
007BE000
00F3F000
00F7F000
00F3F800
01E77800
01E77C00
03C77800
03C73C00
03CE3E00
078E3C00
07FFFE00
0FFFFE00
0FFFFE00
0F1E1F00
0F1C0F00
1E380780
1E380F80
3C780780
3C3803C0
3C7003E0
787003C0
F87001E0
787001F0
00E00000
00E00000
00E00000
00E00000
ENDCHAR
STARTCHAR uni023B
ENCODING 571
SWIDTH 722 0
DWIDTH 30 0
BBX 27 39 2 -4
BITMAP
0000E000
0000E000
0000E000
0000E000
0001E000
01FFFC00
07FFFE00
07FFFF00
0F83FF80
1F038F80
3E0387C0
3E0383C0
3C0701E0
78070000
7C070000
F8070000
780E0000
780E0000
780E0000
780E0000
781C0000
781C0000
781C0000
781C01E0
783803E0
783801E0
3C3803C0
3E3807C0
3E7003C0
1FF00F80
0FF03F00
07F07F00
07FFFC00
01FFF800
00FFE000
00E00000
01C00000
01C00000
03C00000
ENDCHAR
STARTCHAR uni023C
ENCODING 572
SWIDTH 500 0
DWIDTH 21 0
BBX 19 30 1 -4
BITMAP
000380
000700
000700
00FF00
07FE00
0FFF80
1FCFC0
3E1FC0
7C1DE0
781DE0
781DE0
783800
783800
783800
F07000
F07000
787000
78E000
79E1E0
78E1E0
3DC1E0
3DE3E0
1FC3C0
1FFF80
0FFF00
03FC00
070000
070000
070000
0E0000
ENDCHAR
STARTCHAR uni023D
ENCODING 573
SWIDTH 556 0
DWIDTH 23 0
BBX 22 31 1 0
BITMAP
1E0000
1E0000
1E0000
1E0000
1E0000
1E0000
1E0000
1E0000
1E0000
1E0000
1E0000
1E0000
1E0000
FFFC00
FFFC00
FFFC00
1E0000
1E0000
1E0000
1E0000
1E0000
1E0000
1E0000
1E0000
1E0000
1E0000
1E0000
1FFFFC
1FFFFC
1FFFFC
1FFFFC
ENDCHAR
STARTCHAR uni023E
ENCODING 574
SWIDTH 610 0
DWIDTH 26 0
BBX 24 39 2 -4
BITMAP
000070
000070
000070
0000E0
FFFFFF
FFFFFF
FFFFFF
FFFFFF
003DC0
003F80
003F80
003F80
007F00
003F00
003F00
007E00
003E00
003E00
007C00
003C00
003C00
003C00
003C00
003C00
007C00
007C00
007C00
00FC00
00FC00
01FC00
01FC00
01FC00
03BC00
03BC00
03BC00
070000
070000
0E0000
0E0000
ENDCHAR
STARTCHAR uni0241
ENCODING 577
SWIDTH 556 0
DWIDTH 23 0
BBX 19 31 3 0
BITMAP
004000
0FFE00
1FFF00
1FFFC0
3C03C0
7807C0
7801E0
7801E0
F001E0
F001E0
0003C0
0003C0
0007C0
000F80
001E00
003E00
007C00
007800
00F000
00F000
00F000
00F000
01E000
01E000
01E000
01E000
01E000
01E000
01E000
01E000
01E000
ENDCHAR
STARTCHAR uni0242
ENCODING 578
SWIDTH 556 0
DWIDTH 23 0
BBX 19 23 3 0
BITMAP
004000
0FFE00
1FFF00
1FFFC0
3C03C0
7803E0
7801E0
7801E0
F001E0
F001E0
0003C0
0003C0
0007C0
001F00
001E00
003E00
007C00
00F000
00F000
00F000
01E000
01E000
01E000
ENDCHAR
STARTCHAR uni0243
ENCODING 579
SWIDTH 723 0
DWIDTH 30 0
BBX 28 31 2 0
BITMAP
0FFF8000
0FFFFC00
0FFFFE00
0FFFFF00
0F000F80
0F0007C0
0F0003C0
0F0003C0
0F0003C0
0F0003C0
0F000780
0F000F80
0F001F00
0FFFFF00
0FFFFC00
0FFFFF00
0F00FF80
0F000FC0
0F0001E0
0F0001F0
FFF801E0
FFF801E0
FFF801E0
0F0001E0
0F0001E0
0F0003C0
0F000FC0
0FFFFF80
0FFFFF00
0FFFFC00
0FFF8000
ENDCHAR
STARTCHAR uni0244
ENCODING 580
SWIDTH 846 0
DWIDTH 36 0
BBX 34 31 1 0
BITMAP
03C0007800
03C0007800
03C0007800
03C0007800
03C0007800
03C0007800
03C0007800
03C0007800
03C0007800
03C0007800
03C0007800
03C0007800
FFFFFFFFC0
FFFFFFFFC0
FFFFFFFFC0
03C0007800
03C0007800
03C0007800
03C0007800
03C0007800
03C0007800
03C000F800
03C0007800
03C0007800
01E000F000
01F001F000
01F803F000
00FE0FE000
007FFFC000
003FFF0000
000FFC0000
ENDCHAR
STARTCHAR uni0245
ENCODING 581
SWIDTH 666 0
DWIDTH 28 0
BBX 27 31 1 0
BITMAP
000F0000
001F0000
001F8000
003F8000
003FC000
003FC000
007BC000
007BC000
00F1E000
00F1E000
00F1E000
01E0F000
01E0F000
01E07800
03C07800
03E07800
03C03C00
07803C00
0F803C00
07801E00
0F003E00
1F001E00
0F000F00
1E000F80
3E000F00
1E000780
3E0007C0
7C000780
780003C0
7C0003E0
F80003E0
ENDCHAR
STARTCHAR uni0246
ENCODING 582
SWIDTH 666 0
DWIDTH 28 0
BBX 23 39 4 -4
BITMAP
0001C0
000380
000380
000380
FFFFFC
FFFFFC
FFFFFC
FFFFFC
F00700
F00E00
F00E00
F00E00
F00E00
F01C00
F01C00
F01C00
F01C00
FFFFF8
FFFFF8
FFFFF8
FFFFF8
F07000
F07000
F07000
F07000
F0E000
F0E000
F1E000
F0E000
F1C000
F1C000
7FFFFE
7FFFFE
7FFFFE
7FFFFE
078000
038000
070000
070000
ENDCHAR
STARTCHAR uni0247
ENCODING 583
SWIDTH 556 0
DWIDTH 23 0
BBX 20 30 2 -4
BITMAP
000E00
000E00
000E00
01FE00
0FFC00
1FFF00
3FBF80
7C3F80
7C3BC0
F039E0
F071E0
F071E0
F070F0
FFFFF0
FFFFF0
FFFFF0
F1C000
F1E000
F1C000
F381E0
7B81E0
7B83C0
3F8F80
1FFF80
0FFF80
07FC00
0E0000
0E0000
0E0000
1C0000
ENDCHAR
STARTCHAR uni0248
ENCODING 584
SWIDTH 541 0
DWIDTH 23 0
BBX 21 31 1 0
BITMAP
0003C0
0003C0
0003C0
0003C0
0003C0
0003C0
0003C0
0003C0
0003C0
001FF8
001FF8
001FF8
0003C0
0003C0
0003C0
0003C0
0003C0
0003C0
0003C0
0003C0
0003C0
F003C0
F003C0
F003C0
780780
780780
7C0F80
781F00
3FFF00
1FFE00
0FF800
ENDCHAR
STARTCHAR uni0249
ENCODING 585
SWIDTH 222 0
DWIDTH 9 0
BBX 12 39 -1 -8
BITMAP
0F00
0F00
0F00
0F00
0F00
0000
0000
0000
0000
0F00
0F00
0F00
0F00
0F00
0F00
0F00
0F00
0F00
0F00
7FF0
7FF0
7FF0
0F00
0F00
0F00
0F00
0F00
0F00
0F00
0F00
0F00
0F00
0F00
0F00
0F00
0F00
FE00
7E00
7C00
ENDCHAR
STARTCHAR uni024A
ENCODING 586
SWIDTH 859 0
DWIDTH 36 0
BBX 35 40 1 -9
BITMAP
0001003C00
01FFFE3C00
07FFFF3C00
0FFFFFBC00
0FC00FF800
1F0003FC00
3E0001FC00
3E0000FC00
7C0000FC00
7800007C00
7C00007C00
F800007800
7800007800
7800003C00
7800003C00
7800003C00
7800003C00
7800003C00
7800007800
7C00007800
7800007C00
3C00007C00
3E0000F800
3E0000FC00
3E0001FC00
1F0003FC00
0FC007FC00
07F03FFC00
03FFFFBC00
01FFFE3C00
003FF83C00
0000003C00
0000003C00
0000003C00
0000003C00
0000003E00
0000001FE0
0000000FE0
00000007E0
00000001C0
ENDCHAR
STARTCHAR uni024B
ENCODING 587
SWIDTH 613 0
DWIDTH 26 0
BBX 25 31 1 -8
BITMAP
00200000
07FF7800
0FFFF800
0FFFF800
3E01F800
3C00F800
7800F800
78007800
78007800
F0007800
F0007800
F0007800
F0007800
78007800
78007800
78007800
7800F800
3C00F800
3C00F800
1F03F800
1FFFF800
0FFFF800
03FE7800
00007800
00007800
00007800
00007800
00007800
00007F00
00003F80
00001F00
ENDCHAR
STARTCHAR uni024C
ENCODING 588
SWIDTH 780 0
DWIDTH 33 0
BBX 31 31 1 0
BITMAP
03FFF000
03FFFFC0
07FFFFE0
07FFFFF0
03C00FF8
03C001F8
03C00078
03C00078
03C0003C
03C0003C
03C00078
03C00078
03C00078
03C000F8
FFFFFFE0
7FFFFFC0
FFFFFF80
7FFFFFF0
03C003F0
03C000F8
03C00078
03C000F8
03C00078
03C00078
03C00078
03C00078
03C00078
03C00078
03C00078
03C0007C
03C0003E
ENDCHAR
STARTCHAR uni024D
ENCODING 589
SWIDTH 390 0
DWIDTH 16 0
BBX 15 23 2 0
BITMAP
0004
0F3E
0F3E
0FFE
0FFC
0FC0
0FC0
1F00
0F00
0F00
0F00
0F00
FFF8
FFF8
FFF8
0F00
0F00
0F00
0F00
0F00
0F00
0F00
0F00
ENDCHAR
STARTCHAR uni024E
ENCODING 590
SWIDTH 772 0
DWIDTH 32 0
BBX 31 31 2 0
BITMAP
3E0000F8
3E0001F0
1F0001F0
0F8003E0
0F8007C0
07C007C0
FFFFFFFE
FFFFFFFE
FFFFFFFE
01F03E00
00783E00
007C3C00
003CF800
003CF000
003EF000
001FE000
000FC000
0007C000
00078000
00078000
00078000
00078000
00078000
00078000
00078000
00078000
00078000
00078000
00078000
00078000
00078000
ENDCHAR
STARTCHAR uni024F
ENCODING 591
SWIDTH 613 0
DWIDTH 26 0
BBX 24 30 2 -8
BITMAP
7C0078
3C0078
1E0078
3E00F0
1E00F0
FFFFFF
FFFFFF
FFFFFF
0781E0
0783C0
0783C0
03C780
03C780
03C780
01EF00
01EF00
01EF00
00FF00
007E00
007E00
007C00
007800
007800
007800
007800
00F000
00F000
0FE000
1FC000
1FC000
ENDCHAR
STARTCHAR aturned
ENCODING 592
SWIDTH 556 0
DWIDTH 23 0
BBX 20 23 3 0
BITMAP
C00400
F9FFC0
FBFFC0
7FFFF0
3F81F0
3E00F0
3E00F0
3C00F0
3C00F0
3C01F0
3C03E0
3DFFC0
3FFF80
3FF800
3F0000
3C0000
3C01E0
3C01E0
3C01E0
3E01E0
1FFFC0
0FFF80
0FFF00
ENDCHAR
STARTCHAR ascript
ENCODING 593
SWIDTH 586 0
DWIDTH 25 0
BBX 23 23 1 0
BITMAP
01E000
07FC70
1FFF70
1FFFF0
3C01F8
3C01F0
7800F8
780078
780078
F00078
F00078
F00078
F00078
F00078
780078
780078
7800F8
3C00F8
3C01F0
1F07F8
1FFF3E
07FF3E
03FC3E
ENDCHAR
STARTCHAR ascriptturned
ENCODING 594
SWIDTH 586 0
DWIDTH 25 0
BBX 23 23 1 0
BITMAP
000400
F87FC0
7DFFE0
7FFFF8
3F80F8
3F003C
1F003C
3E001E
1E001E
1E001E
1E001E
1E001E
1E001E
1E001E
1E001E
1E001E
1F003C
1F003C
3F0078
3FC0F8
3DFFF8
3CFFE0
3C7F80
ENDCHAR
STARTCHAR uni0253
ENCODING 595
SWIDTH 556 0
DWIDTH 23 0
BBX 20 31 2 0
BITMAP
020000
7E0000
7E0000
780000
F00000
F00000
F00000
F00000
F02000
F1FF00
FFFF80
FFFF80
7E03E0
7C01E0
7803E0
7800F0
F000F0
F000F0
7000F0
7000F0
7000F0
F000F0
F000F0
7801E0
7801E0
F801E0
FC03C0
7F0F80
7FFFC0
73FF00
73FC00
ENDCHAR
STARTCHAR oopen
ENCODING 596
SWIDTH 500 0
DWIDTH 21 0
BBX 19 23 1 0
BITMAP
004000
0FFE00
1FFF00
3FBF80
3C0780
7C03E0
7801E0
F001E0
0001E0
0001E0
0001E0
0001E0
0001E0
0001E0
0001E0
F001E0
7803C0
7807C0
7807C0
3C0F80
3FFF00
0FFE00
07F800
ENDCHAR
STARTCHAR uni0256
ENCODING 598
SWIDTH 607 0
DWIDTH 26 0
BBX 24 39 1 -8
BITMAP
0000F0
0000F0
0000F0
0000F0
0000F0
0000F0
0000F0
0000F0
01C0F0
07FCF0
0FFFF0
1FFFF0
1F03F0
3E01F0
7C00F0
7800F0
7800F0
7800F0
F00070
F00070
F00070
7800F0
7800F0
7800F0
7800F0
3C01F0
3C01F0
1F07F0
1FFFF0
07FEF0
03F8F0
0000F0
0000F0
0000F0
0000F0
0000F0
0000FE
00007F
00003E
ENDCHAR
STARTCHAR uni0257
ENCODING 599
SWIDTH 592 0
DWIDTH 25 0
BBX 24 31 1 0
BITMAP
000003
00007E
00007E
0000F0
0000F0
0000F0
0000F0
0000F0
01C0F0
07FCF0
0FFFF0
1FFFF0
1F03F0
3E01F0
7C00F0
7800F0
7800F0
7800F0
F00070
F00070
F00070
7800F0
7800F0
7800F0
7800F0
3C01F0
3C01F0
1F07F0
1FFF70
07FE70
03F870
ENDCHAR
STARTCHAR ereversed
ENCODING 600
SWIDTH 556 0
DWIDTH 23 0
BBX 21 23 1 0
BITMAP
002000
03FF00
0FFF80
1FFFC0
3C03E0
3C03E0
7800F0
7800F0
7800F0
F000F0
FFFFF0
7FFFF8
7FFFF8
000078
0000F0
0000F0
7800F0
7801E0
3C03E0
1F07C0
1FFF80
1FFF00
03FC00
ENDCHAR
STARTCHAR schwa
ENCODING 601
SWIDTH 556 0
DWIDTH 23 0
BBX 21 23 1 0
BITMAP
00E000
07FF00
1FFF80
1FDFC0
3C03E0
3C01F0
7800F0
7800F0
0000F0
0000F0
000078
7FFFF8
7FFFF8
FFFFF0
F000F0
7800F0
7800F0
7801E0
7C01E0
3E07E0
1FFF80
0FFF00
07FC00
ENDCHAR
STARTCHAR schwahook
ENCODING 602
SWIDTH 824 0
DWIDTH 35 0
BBX 33 23 1 0
BITMAP
00E0000000
07FE000000
07FE000000
1FFFC00000
3F83E00000
3C03E00000
7800F02000
7800F9E000
F000FFE000
7007FFE000
007FFCE100
00FFF8E180
0FFF78FF80
7FF0787F00
7F00787E00
3C00780000
3C00780000
3C00F00000
3E01F00000
1E03E00000
0FFFC00000
07FF800000
01FF000000
ENDCHAR
STARTCHAR eopen
ENCODING 603
SWIDTH 520 0
DWIDTH 22 0
BBX 19 23 2 0
BITMAP
004000
0FFF00
1FFF00
3FFF80
7C07C0
7803C0
7803C0
3C0000
3C0000
1FF000
07F000
1FF000
3F8000
3C0000
780000
F00000
F000E0
F001E0
7803E0
3C03C0
3FFF80
1FFF80
03F800
ENDCHAR
STARTCHAR eopenreversed
ENCODING 604
SWIDTH 520 0
DWIDTH 22 0
BBX 18 23 3 0
BITMAP
008000
1FFC00
3FFC00
7FFF00
7C0F00
F00780
F00780
000780
000F00
01FF00
01FC00
03F800
007F00
000780
0003C0
0003C0
E003C0
F003C0
F00780
780F80
7FFF00
3FFE00
03F800
ENDCHAR
STARTCHAR eopenreversedhook
ENCODING 605
SWIDTH 791 0
DWIDTH 33 0
BBX 31 23 2 0
BITMAP
00800000
1FFC0080
3FFC1F00
7FFFFF00
7C0FF700
F007838C
F007839E
000783FC
000F01FC
01FF0000
01FC0000
03F80000
007F0000
00078000
0003C000
0003C000
E003C000
F003C000
F0078000
780F8000
7FFF0000
3FFE0000
03F80000
ENDCHAR
STARTCHAR eopenreversedclosed
ENCODING 606
SWIDTH 499 0
DWIDTH 21 0
BBX 19 23 1 0
BITMAP
01C000
0FFE00
1FFE00
3FFF80
3C03C0
3C03C0
7803C0
7803C0
780780
F03F80
F03E00
F03C00
F03F80
F003C0
F001E0
7801E0
7801E0
7801E0
3801E0
1F07C0
0FFFC0
07FF00
00FC00
ENDCHAR
STARTCHAR jdotlessstroke
ENCODING 607
SWIDTH 277 0
DWIDTH 12 0
BBX 11 30 1 -8
BITMAP
0F00
0F00
0F00
0F00
0F00
0F00
0F00
0F00
0F00
0F00
0F00
0F00
0F00
0F00
0F00
0F00
0F00
0F00
0F00
7FE0
7FE0
7FE0
0F00
0F00
0F00
0F00
0F00
FE00
FE00
7C00
ENDCHAR
STARTCHAR uni0260
ENCODING 608
SWIDTH 604 0
DWIDTH 25 0
BBX 23 36 1 -9
BITMAP
000006
00007E
0000FE
0000FE
01C0F0
07FCF0
0FFFF0
1FDFF0
3E03F0
3C01F0
7800F0
7800F0
7800F0
7800F0
F00070
F00070
F000E0
F000F0
7800F0
7800F0
7800F0
7801F0
3C03F0
3F1FF0
1FFEF0
07FEF0
01F8F0
0000F0
0000F0
7801E0
7801E0
3C03C0
3F0FC0
1FFF80
0FFF00
01F800
ENDCHAR
STARTCHAR gscript
ENCODING 609
SWIDTH 556 0
DWIDTH 23 0
BBX 20 32 1 -9
BITMAP
01C000
07FC70
0FFF70
1FFF70
3E03F0
3C01F0
7800F0
7800F0
7800F0
7800F0
F00070
F00070
F000E0
F000F0
7800F0
7800F0
7800F0
7801F0
3C03F0
3F1FF0
1FFEF0
07FEF0
01F8F0
0000F0
0000F0
7801E0
7801E0
3C03C0
3F0FC0
1FFF80
0FFF00
01F800
ENDCHAR
STARTCHAR hturned
ENCODING 613
SWIDTH 556 0
DWIDTH 23 0
BBX 19 30 3 -8
BITMAP
F001E0
F001E0
F001E0
F001E0
F001E0
F001E0
F001E0
F001E0
F001E0
F001E0
F001E0
F001E0
F001E0
F003C0
F003C0
F003C0
7803E0
7807E0
7C07E0
3FFFE0
3FF9E0
1FF1E0
0101E0
0001E0
0001E0
0001E0
0001E0
0001E0
0001E0
0001E0
ENDCHAR
STARTCHAR uni0266
ENCODING 614
SWIDTH 556 0
DWIDTH 23 0
BBX 19 32 3 0
BITMAP
020000
3F0000
7E0000
7F0000
780000
F00000
F00000
F00000
F00000
F01000
F1FF00
F7FF80
FFFF80
7E03C0
FC03C0
7803C0
7803C0
F001E0
F001E0
F001E0
F001E0
F001E0
F001E0
F001E0
F001E0
F001E0
F001E0
F001E0
F001E0
F001E0
F001E0
F001E0
ENDCHAR
STARTCHAR uni0267
ENCODING 615
SWIDTH 604 0
DWIDTH 25 0
BBX 22 40 3 -8
BITMAP
020000
3F0000
7E0000
7F0000
780000
F00000
F00000
F00000
F00000
F01000
F1FF00
F7FF80
FFFF80
7E03C0
FC03C0
7803C0
7803C0
F001E0
F001E0
F001E0
F001E0
F001E0
F001E0
F001E0
F001E0
F001E0
F001E0
F001E0
F001E0
F001E0
F001E0
F001E0
0003C0
0003C0
0003C0
0001E0
0001E0
0001FC
0000FC
00007C
ENDCHAR
STARTCHAR istroke
ENCODING 616
SWIDTH 341 0
DWIDTH 14 0
BBX 13 31 2 0
BITMAP
0F00
0F00
0F00
0F00
0F00
0000
0000
0000
0000
0F00
0F00
0F00
0F00
0F00
0F00
FFF8
FFF8
0F00
0F00
0F00
0F00
0F00
0F00
0F00
0F00
0F00
0F00
0F00
0F00
0F00
0F00
ENDCHAR
STARTCHAR iotalatin
ENCODING 617
SWIDTH 250 0
DWIDTH 11 0
BBX 8 22 3 0
BITMAP
70
70
70
70
70
70
70
70
70
70
70
70
70
70
70
70
70
70
F0
7F
7E
7E
ENDCHAR
STARTCHAR Ismallipa
ENCODING 618
SWIDTH 281 0
DWIDTH 12 0
BBX 10 22 2 0
BITMAP
FFC0
FFC0
FFC0
FFC0
1E00
1E00
1E00
1E00
1E00
1E00
1E00
1E00
1E00
1E00
1E00
1E00
1E00
1E00
FFC0
FFC0
FFC0
FFC0
ENDCHAR
STARTCHAR lmiddletilde
ENCODING 619
SWIDTH 368 0
DWIDTH 15 0
BBX 15 31 1 0
BITMAP
03C0
03C0
03C0
03C0
03C0
03C0
03C0
03C0
03C0
03C0
03C0
03C6
1FC6
7FFC
7FFC
E7F8
03C0
03C0
03C0
03C0
03C0
03C0
03C0
03C0
03C0
03C0
03C0
03C0
03C0
03C0
03C0
ENDCHAR
STARTCHAR uni026D
ENCODING 621
SWIDTH 266 0
DWIDTH 11 0
BBX 8 39 3 -8
BITMAP
F0
F0
F0
F0
F0
F0
F0
F0
F0
F0
F0
F0
F0
F0
F0
F0
F0
F0
F0
F0
F0
F0
F0
F0
F0
F0
F0
F0
F0
F0
F0
F0
F0
F0
F0
78
7F
7E
1F
ENDCHAR
STARTCHAR mturned
ENCODING 623
SWIDTH 833 0
DWIDTH 35 0
BBX 30 23 3 0
BITMAP
F007803C
F007803C
F007803C
F007803C
F007803C
F007803C
F007803C
F007803C
F007803C
F007803C
F007803C
F007803C
F007803C
F007803C
F007803C
F007803C
7807C07C
780FC07C
780FC07C
7FFFFFFC
3FF9FFBC
1FE0FF3C
03E01000
ENDCHAR
STARTCHAR mlonglegturned
ENCODING 624
SWIDTH 833 0
DWIDTH 35 0
BBX 30 31 3 -8
BITMAP
F007803C
F007803C
F007803C
F007803C
F007803C
F007803C
F007803C
F007803C
F007803C
F007803C
F007803C
F007803C
F007803C
F007803C
F007803C
F007803C
7807C07C
780FC07C
780FC07C
7FFFFFFC
3FF9FFBC
1FE0FF3C
03E0103C
0000003C
0000003C
0000003C
0000003C
0000003C
0000003C
0000003C
0000003C
ENDCHAR
STARTCHAR mhook
ENCODING 625
SWIDTH 833 0
DWIDTH 35 0
BBX 30 31 3 -8
BITMAP
00200100
F1FE0FF0
F7FF7FF0
FFBFFFF8
7E0FE07C
7C07E03C
7807803C
7807803C
F007803C
F007803C
F007803C
F007803C
F007803C
F007803C
F007803C
F007803C
F007803C
F007803C
F007803C
F007803C
F007803C
F007803C
F007803C
0000003C
0000003C
0000003C
0000003C
0000003C
000001FC
000001FC
000003F0
ENDCHAR
STARTCHAR nhookleft
ENCODING 626
SWIDTH 556 0
DWIDTH 23 0
BBX 22 31 -1 -8
BITMAP
000200
0F1FF0
0FFFF8
0FFFF8
0FF07C
0FC03C
0F803C
0F803C
1F003C
0F003C
0F003C
0F003C
0F003C
0F003C
0F003C
0F003C
0F003C
0F003C
0F003C
0F003C
0F003C
0F003C
0F003C
0F0000
0F0000
0F0000
0F0000
0F0000
FE0000
7E0000
7C0000
ENDCHAR
STARTCHAR uni0273
ENCODING 627
SWIDTH 602 0
DWIDTH 25 0
BBX 22 31 3 -8
BITMAP
001000
71FF00
77FF80
7FFF80
FF07C0
7C03C0
7803C0
7803C0
F003C0
F003C0
F003C0
F003C0
F003C0
F003C0
F003C0
F003C0
F003C0
F003C0
F003C0
F003C0
F003C0
F003C0
F003C0
0003C0
0003C0
0003C0
0003C0
0001E0
0001FC
0000FC
00007C
ENDCHAR
STARTCHAR Nsmallipa
ENCODING 628
SWIDTH 545 0
DWIDTH 23 0
BBX 20 22 2 0
BITMAP
7C00F0
7E00F0
FE00F0
7F00F0
7F80F0
FF80F0
F7C0F0
F3E0F0
F3E0F0
F1F0F0
F0F8F0
F0F8F0
F07CF0
F03EF0
F03EF0
F01FF0
F00FF0
F007F0
F007F0
F003F0
F001F0
F001F0
ENDCHAR
STARTCHAR uni0275
ENCODING 629
SWIDTH 556 0
DWIDTH 23 0
BBX 21 23 1 0
BITMAP
002000
07FF00
0FFFC0
0FFFC0
1E01F0
3C00F0
3C00F0
780078
780078
780078
F00078
7FFFF8
7FFFF8
F00078
780078
7800F0
7800F0
3C00F0
3C01F0
1F03E0
1FFFC0
07FF80
03FE00
ENDCHAR
STARTCHAR uni0276
ENCODING 630
SWIDTH 943 0
DWIDTH 40 0
BBX 37 23 1 0
BITMAP
0020001000
07FF03FE00
0FFF87FFC0
1FFFEFFFE0
3E01FF01E0
3E01FC00F0
7800F800F8
7800F800F0
7800780078
7800780078
F0007FFFF8
F0007FFFF8
F0007FFFF8
F000780000
7800780000
7800780000
7800F80078
3C00FC00F0
3E01FC01E0
1F03FF03E0
1FFF9FFFC0
07FF87FFC0
03FE03FE00
ENDCHAR
STARTCHAR philatin
ENCODING 632
SWIDTH 722 0
DWIDTH 30 0
BBX 28 38 2 -8
BITMAP
000F0000
000F0000
000F0000
000F0000
000F0000
000F0000
000F0000
000F0000
03FFFE00
0FFFFF00
1FFFFF80
3E0F07C0
3E0F07C0
780F03C0
780F01E0
780F01E0
780F01E0
780F01E0
780F01E0
780F01E0
780F01E0
F80F01F0
780F01E0
7C0F03E0
3C0F03C0
1F8F1F80
0FFFFF80
07FFFE00
01FFF800
000F0000
000F0000
000F0000
000F0000
000F0000
000F0000
000F0000
000F0000
000F0000
ENDCHAR
STARTCHAR rturned
ENCODING 633
SWIDTH 333 0
DWIDTH 14 0
BBX 11 23 4 0
BITMAP
03C0
03C0
03C0
03C0
03C0
03C0
03C0
03C0
03C0
03C0
03C0
03C0
03C0
03C0
03C0
03E0
07C0
07E0
3FC0
FFC0
FBC0
FBC0
8000
ENDCHAR
STARTCHAR rlonglegturned
ENCODING 634
SWIDTH 333 0
DWIDTH 14 0
BBX 11 31 4 0
BITMAP
03C0
03C0
03C0
03C0
03C0
03C0
03C0
03C0
03C0
03C0
03C0
03C0
03C0
03C0
03C0
03C0
03C0
03C0
03C0
03C0
03C0
03C0
03C0
03E0
07C0
07E0
3FC0
FFC0
FBC0
FBC0
8000
ENDCHAR
STARTCHAR uni027B
ENCODING 635
SWIDTH 440 0
DWIDTH 19 0
BBX 15 31 3 -8
BITMAP
01E0
01E0
01E0
01E0
01E0
01E0
01E0
01E0
01E0
01E0
01E0
01E0
01E0
01E0
01E0
01F0
03E0
03F0
1FE0
FFE0
FDE0
7DE0
41E0
01E0
01E0
01E0
01E0
00F0
00FE
00FC
003E
ENDCHAR
STARTCHAR rlongleg
ENCODING 636
SWIDTH 333 0
DWIDTH 14 0
BBX 12 29 3 -6
BITMAP
0030
73E0
73E0
7FE0
7FC0
7C00
7C00
7800
F000
F000
F000
F000
F000
F000
F000
F000
F000
F000
F000
F000
F000
F000
F000
F000
F000
F000
F000
F000
F000
ENDCHAR
STARTCHAR uni027D
ENCODING 637
SWIDTH 333 0
DWIDTH 14 0
BBX 11 31 3 -8
BITMAP
0020
F3E0
F3E0
FFE0
FFC0
7C00
7C00
7800
F000
F000
F000
F000
F000
F000
F000
F000
F000
F000
F000
F000
F000
F000
F000
F000
F000
F000
F000
7800
7F00
7E00
1F00
ENDCHAR
STARTCHAR rfishhook
ENCODING 638
SWIDTH 222 0
DWIDTH 9 0
BBX 9 22 1 0
BITMAP
0700
7F00
7F00
7B80
F000
F000
F000
F000
F000
F000
F000
F000
F000
F000
F000
F000
F000
F000
F000
F000
F000
F000
ENDCHAR
STARTCHAR rfishhookreversed
ENCODING 639
SWIDTH 222 0
DWIDTH 9 0
BBX 9 22 1 0
BITMAP
7000
7F00
7F00
EF00
0780
0780
0780
0780
0780
0780
0780
0780
0780
0780
0780
0780
0780
0780
0780
0780
0780
0780
ENDCHAR
STARTCHAR Rsmallipa
ENCODING 640
SWIDTH 526 0
DWIDTH 22 0
BBX 19 22 3 0
BITMAP
7FFE00
FFFF00
FFFF80
783FC0
780FC0
7803C0
7803C0
7803C0
7807C0
780F80
FFFE00
7FFE00
7FFF80
780F80
780780
780780
780780
780780
7803C0
7803C0
7803C0
7803E0
ENDCHAR
STARTCHAR Rsmallinverted
ENCODING 641
SWIDTH 526 0
DWIDTH 22 0
BBX 19 22 3 0
BITMAP
7803E0
7803C0
7803C0
780780
780780
780780
780780
780F80
7FFF80
7FFF00
7FFE00
787F00
780F80
7803C0
7803C0
7803C0
7807C0
780FC0
FFFF80
7FFF80
FFFE00
7FE000
ENDCHAR
STARTCHAR esh
ENCODING 643
SWIDTH 403 0
DWIDTH 17 0
BBX 18 40 0 -8
BITMAP
0001C0
003F80
007F80
007EC0
007800
00F000
00F000
00F000
00F000
00F000
00F000
00F000
00F000
01E000
01E000
01E000
01E000
01E000
01E000
01E000
01E000
01E000
01E000
01E000
01E000
01E000
01E000
01E000
01E000
01E000
03C000
03C000
03C000
03C000
03C000
078000
8F8000
FF0000
7F0000
FC0000
ENDCHAR
STARTCHAR dotlessjstrokehook
ENCODING 644
SWIDTH 403 0
DWIDTH 17 0
BBX 18 40 0 -8
BITMAP
0001C0
003F80
007F80
007EC0
007800
00F000
00F000
00F000
00F000
00F000
00F000
00F000
00F000
01E000
01E000
01E000
01E000
01E000
01E000
01E000
01E000
01E000
01E000
01E000
01E000
01E000
01E000
01E000
01E000
3FFE00
3FFE00
3FFE00
03C000
03C000
03C000
078000
8F8000
FF0000
7F0000
FC0000
ENDCHAR
STARTCHAR eshsquatreversed
ENCODING 645
SWIDTH 426 0
DWIDTH 18 0
BBX 18 22 0 0
BITMAP
700000
DF8000
078000
03C000
03C000
03C000
01E000
01E000
01E000
01E000
01E000
01E000
01E000
01E000
01E000
01E000
00F000
00F000
00F000
007800
007F80
0007C0
ENDCHAR
STARTCHAR tturned
ENCODING 647
SWIDTH 277 0
DWIDTH 12 0
BBX 10 29 1 0
BITMAP
2000
FC00
FC00
FE00
3C00
1E00
1E00
1E00
1E00
1E00
1E00
1E00
1E00
1E00
1E00
1E00
1E00
1E00
1E00
1E00
FFC0
FFC0
FFC0
1E00
1E00
1E00
1E00
1E00
1E00
ENDCHAR
STARTCHAR tretroflexhook
ENCODING 648
SWIDTH 277 0
DWIDTH 12 0
BBX 10 38 1 -9
BITMAP
3C00
3C00
3C00
3C00
3C00
3C00
3C00
FFC0
FFC0
FFC0
3C00
3C00
3C00
3C00
3C00
3C00
3C00
3C00
3C00
3C00
3C00
3C00
3C00
3C00
3C00
3C00
3C00
3C00
3C00
3C00
3C00
3C00
3C00
3C00
1FC0
1FC0
0FC0
03C0
ENDCHAR
STARTCHAR ubar
ENCODING 649
SWIDTH 645 0
DWIDTH 27 0
BBX 25 22 2 0
BITMAP
1E007800
1E007800
1E007800
1E007800
1E007800
1E007800
FFFFFF80
FFFFFF80
FFFFFF80
1E007800
1E007800
1E007800
1E007800
1E007800
1E007800
1E00F000
1E00F800
1E01F800
0F87F000
0FFFF000
07FE7000
01FC7000
ENDCHAR
STARTCHAR upsilonlatin
ENCODING 650
SWIDTH 550 0
DWIDTH 23 0
BBX 21 22 1 0
BITMAP
7F8FF8
7F8FF8
038700
0E0380
1C01C0
3800E0
380070
700070
F00038
700038
700038
700078
700038
700038
780070
780078
3C00F0
3E03E0
1FFFE0
1FFFC0
03FF00
003000
ENDCHAR
STARTCHAR vturned
ENCODING 652
SWIDTH 500 0
DWIDTH 21 0
BBX 20 22 1 0
BITMAP
01F000
01F000
01F800
03F800
03FC00
07BC00
07BC00
079E00
0F1E00
0F1E00
1E0F00
1E0F00
1E0F00
3C0780
3C0780
3C03C0
7803C0
7803C0
7801E0
F003E0
F001E0
F000F0
ENDCHAR
STARTCHAR wturned
ENCODING 653
SWIDTH 722 0
DWIDTH 30 0
BBX 30 22 0 0
BITMAP
01E01E00
03E01F00
03E03F00
03F03F00
03F03B80
07783F80
0F703BC0
07383B80
0E7871C0
0F3C7BC0
1E3871E0
0E1C71E0
1C3CE1E0
1E1EF1E0
3C1CE0F0
3C0EE0F0
3C1FC0F0
780FE078
780FC078
7807C078
7807C078
F007C03C
ENDCHAR
STARTCHAR yturned
ENCODING 654
SWIDTH 500 0
DWIDTH 21 0
BBX 19 31 1 0
BITMAP
000180
001FC0
003F80
003C00
007800
007800
00F000
00F000
00F000
01F000
01F800
01F800
03F800
07BC00
07BC00
07BC00
0F1E00
0F1E00
0F1E00
1E0F00
1E0F00
1E0F00
3C0780
3C0780
3C0780
7803C0
7803C0
7803C0
F001E0
F001E0
F001E0
ENDCHAR
STARTCHAR Ysmallipa
ENCODING 655
SWIDTH 495 0
DWIDTH 21 0
BBX 19 22 2 0
BITMAP
F803E0
F807C0
7807C0
7C0780
3C0F80
1F0F00
0F1E00
0F3C00
07BC00
07F800
03F800
01F000
01E000
01E000
01E000
01E000
01E000
01E000
01E000
01E000
01E000
01E000
ENDCHAR
STARTCHAR ezh
ENCODING 658
SWIDTH 500 0
DWIDTH 21 0
BBX 20 30 1 -8
BITMAP
7FFFE0
7FFFE0
7FFFE0
0003E0
000F80
001F00
003E00
007C00
00F800
01F000
03FE00
0FFF00
1FFF80
003FC0
0003C0
0001E0
0003E0
0001E0
0001E0
0000F0
0000F0
0000F0
F000F0
7800F0
7801E0
3C01E0
3C03E0
1FFFC0
1FFF00
07FC00
ENDCHAR
STARTCHAR glottalstop
ENCODING 660
SWIDTH 556 0
DWIDTH 23 0
BBX 19 31 3 0
BITMAP
004000
0FFE00
1FFF00
1FFFC0
3C03C0
7807C0
7801E0
7801E0
F001E0
F001E0
0003C0
0003C0
0007C0
000F80
001E00
003E00
007C00
007800
00F000
00F000
00F000
00F000
01E000
01E000
01E000
01E000
01E000
01E000
01E000
01E000
01E000
ENDCHAR
STARTCHAR glottalstopreversed
ENCODING 661
SWIDTH 556 0
DWIDTH 23 0
BBX 19 31 3 0
BITMAP
004000
0FFE00
1FFF00
3FFF00
3C0780
7C03C0
7803C0
F001E0
F001E0
7801E0
780000
780000
7C0000
1F0000
1F0000
07C000
07E000
01E000
01E000
01E000
00F000
00F000
00F000
00F000
00F000
00F000
00F000
00F000
00F000
00F000
00F000
ENDCHAR
STARTCHAR glottalstopinverted
ENCODING 662
SWIDTH 556 0
DWIDTH 23 0
BBX 19 31 3 0
BITMAP
01E000
01E000
01E000
01E000
01E000
01E000
01E000
01E000
01E000
00F000
00F000
00F000
00F000
007800
007C00
003C00
001F00
000F80
0007C0
0003C0
0003C0
F001E0
F001E0
7801E0
7803C0
7803E0
3E03C0
1FFF80
1FFF80
07FC00
004000
ENDCHAR
STARTCHAR cstretched
ENCODING 663
SWIDTH 501 0
DWIDTH 21 0
BBX 19 31 1 -8
BITMAP
002000
07FF00
07FF80
0FFFC0
1E03C0
1E03E0
3C01E0
3C01E0
3C0000
780000
7C0000
780000
780000
780000
780000
F00000
F00000
F00000
780000
780000
780000
7C0000
780000
3C01E0
3C01E0
3C01E0
3E03E0
1F03C0
0FFF80
07FF00
01FC00
ENDCHAR
STARTCHAR bilabialclick
ENCODING 664
SWIDTH 777 0
DWIDTH 33 0
BBX 30 31 2 0
BITMAP
00010000
01FFFE00
03FFFF80
07FFFFC0
0FC007E0
0F8003E0
1F0001F0
3E0000F8
7C0000F8
3C0000F8
78000078
7C000078
7800003C
7807C03C
7807C03C
7807C03C
7807C03C
7807C03C
78000078
F8000078
780000F8
78000078
7C0000F8
3E0001F0
3E0001E0
1F0007E0
0FC00FC0
0FF83FC0
07FFFF00
01FFFC00
007FF000
ENDCHAR
STARTCHAR eopenclosed
ENCODING 666
SWIDTH 499 0
DWIDTH 21 0
BBX 19 23 1 0
BITMAP
007000
0FFF00
1FFF00
3FFF80
7C07C0
7803C0
7803C0
3C03C0
3C01E0
1FC1E0
07C1E0
1F81E0
3F81E0
3C01E0
7801E0
F001E0
F001E0
F003C0
780380
3C0F00
3FFE00
1FFE00
03F000
ENDCHAR
STARTCHAR Hsmallipa
ENCODING 668
SWIDTH 595 0
DWIDTH 25 0
BBX 18 22 4 0
BITMAP
F003C0
F003C0
F003C0
F003C0
F003C0
F003C0
F003C0
F003C0
FFFFC0
FFFFC0
FFFFC0
F003C0
F003C0
F003C0
F003C0
F003C0
F003C0
F003C0
F003C0
F003C0
F003C0
F003C0
ENDCHAR
STARTCHAR kturned
ENCODING 670
SWIDTH 500 0
DWIDTH 21 0
BBX 18 30 4 -8
BITMAP
F803C0
7C03C0
7C03C0
3E03C0
3E03C0
1F03C0
0F83C0
0F83C0
0783C0
03EF80
01FF80
01FF80
00FFC0
00FBC0
01F3C0
03E3C0
07C3C0
0F83C0
1F03C0
3E03C0
7C03C0
F803C0
0003C0
0003C0
0003C0
0003C0
0003C0
0003C0
0003C0
0003C0
ENDCHAR
STARTCHAR Lsmallipa
ENCODING 671
SWIDTH 492 0
DWIDTH 21 0
BBX 15 22 4 0
BITMAP
F000
F000
F000
F000
F000
F000
F000
F000
F000
F000
F000
F000
F000
F000
F000
F000
F000
F000
FFFE
FFFE
FFFE
FFFE
ENDCHAR
STARTCHAR uni02A0
ENCODING 672
SWIDTH 602 0
DWIDTH 25 0
BBX 24 36 1 -8
BITMAP
000003
00007F
00007F
0000F0
0000F0
01C0F0
07FCF0
0FFFF0
1FFFF0
3E03F0
7C01F0
7800F0
7800F0
7800F0
7800F0
F000F0
F000F0
F000F0
F000F0
7800F0
7800F0
7800F0
7801F0
3E03F0
1F07F0
1FFFF0
07FEF0
03F8F0
0000F0
0000F0
0000F0
0000F0
0000F0
0000F0
0000F0
0000F0
ENDCHAR
STARTCHAR glottalstopstroke
ENCODING 673
SWIDTH 556 0
DWIDTH 23 0
BBX 19 31 3 0
BITMAP
004000
0FFE00
1FFF00
1FFFC0
3C03C0
7807C0
7801E0
7801E0
F001E0
F001E0
0003C0
0003C0
0007C0
000F80
001E00
003E00
007C00
007800
00F000
00F000
00F000
00F000
01E000
1FFF00
1FFF00
01E000
01E000
01E000
01E000
01E000
01E000
ENDCHAR
STARTCHAR glottalstopstrokereversed
ENCODING 674
SWIDTH 556 0
DWIDTH 23 0
BBX 19 31 3 0
BITMAP
004000
0FFE00
1FFF00
3FFF00
3C0780
7C03C0
7803C0
F001E0
F001E0
7801E0
780000
780000
7C0000
1F0000
1F0000
07C000
07E000
01E000
01E000
01E000
00F000
00F000
00F000
1FFF00
1FFF00
00F000
00F000
00F000
00F000
00F000
00F000
ENDCHAR
STARTCHAR uni02A3
ENCODING 675
SWIDTH 930 0
DWIDTH 39 0
BBX 37 31 1 0
BITMAP
0000F00000
0000F00000
0000F00000
0000F00000
0000F00000
0000F00000
0000F00000
0000F00000
01C0F00000
07FCFFFFF0
0FFFFFFFF0
1FFFFFFFF8
1F03F001F0
3E01F003E0
7C00F007C0
7800F00F80
7800F00F80
7800F01F00
F000703E00
F000707C00
F00070F800
7800F0F800
7800F1F000
7800F3E000
7800F7C000
3C01FF8000
3C03FF8000
1F07FFFFF8
1FFF7FFFF8
07FE7FFFF8
03F87FFFF8
ENDCHAR
STARTCHAR dezh
ENCODING 676
SWIDTH 932 0
DWIDTH 39 0
BBX 38 39 0 -8
BITMAP
0000F00000
0000F00000
0000F00000
0000F00000
0000F00000
0000F00000
0000F00000
0000F00000
01C0F00000
07FC7FFFFC
0FFF7FFFFC
1FFFFFFFFC
1F03F000F8
3E01F001F0
7C00F003E0
7800F007C0
7800F00F80
7800F03E00
F000707C00
F00070FF80
F00071FFC0
7800F3FFF0
7800F00FF0
7800F00078
7800F00078
3C01F0003C
3C01F0003C
1F07F0003C
1FFF70003C
07FE70003C
03F870003C
00001E003C
00001E003C
00000F003C
00000F0078
00000780F8
000007FFF0
000003FFF0
000000FF80
ENDCHAR
STARTCHAR uni02A6
ENCODING 678
SWIDTH 671 0
DWIDTH 28 0
BBX 26 29 1 0
BITMAP
3C000000
3C000000
3C000000
3C000000
3C000000
3C000000
3C008000
FFDFFC00
FFFFFE00
FFFFFF00
3C780780
3CF00780
3CF00780
3CF00000
3C7C0000
3C7F8000
3C3FE000
3C1FFF00
3C03FE00
3C003FC0
3C0007C0
3C0003C0
3DE003C0
3CF003C0
3CF00780
1E7C0780
1FFFFF80
0FFFFF00
0FCFFC00
ENDCHAR
STARTCHAR uni02A7
ENCODING 679
SWIDTH 528 0
DWIDTH 22 0
BBX 21 40 0 -8
BITMAP
000038
0003F8
0007F8
1E07F8
1E0F00
1E0F00
1E0F00
1E0F00
1E0F00
1E1E00
FFFE00
FFFE00
FFFE00
1E1E00
1E1E00
1E1E00
1E1E00
1E1E00
1E1E00
1E1E00
1E1E00
1E1E00
1E1E00
1E1E00
1E1E00
1E1E00
1E3C00
1E3C00
0F3C00
0FFE00
0FFC00
0FFC00
003C00
003C00
007800
007800
08F800
0FF000
0FE000
0FC000
ENDCHAR
STARTCHAR uni02A9
ENCODING 681
SWIDTH 725 0
DWIDTH 30 0
BBX 29 39 1 -8
BITMAP
00600000
07E00000
0FE00000
0FC00000
0F000000
1E000000
1E000000
1E000000
1E000400
FFFC7FC0
FFFDFFE0
FFFFFFE0
1E3FC1F0
1E1F00F0
1E3E00F0
1E1E0078
1E1E0078
1E3C0078
1E3C0078
1E3C0078
1E3C0078
1E3C0078
1E3C0078
1E3C0078
1E3C0078
1E3C0078
1E3C0078
1E3C0078
1E3C0078
1E3C0078
1E3C0078
00000078
00000078
00000078
00000078
000000F0
000007F0
000007E0
000007C0
ENDCHAR
STARTCHAR uni02AA
ENCODING 682
SWIDTH 594 0
DWIDTH 25 0
BBX 21 31 3 0
BITMAP
F00000
F00000
F00000
F00000
F00000
F00000
F00000
F00000
F01000
F1FFC0
F7FFE0
FFFFE0
FF00F0
FE00F0
FE0078
7F0000
7F8000
FFF000
F7F800
F3FFE0
F03FE0
F007F0
F000F8
F00078
7E0078
7E0078
FE0078
7F80F8
FFFFE0
F7FFE0
F1FF80
ENDCHAR
STARTCHAR uni02AB
ENCODING 683
SWIDTH 589 0
DWIDTH 25 0
BBX 21 31 3 0
BITMAP
F00000
F00000
F00000
F00000
F00000
F00000
F00000
F00000
F00000
FFFFF0
FFFFF0
FFFFF0
F001F0
F003E0
F007C0
F00F80
F00F80
F01F00
F03E00
F07C00
F0F800
F1F000
F1F000
F3E000
F7C000
FF8000
FF0000
7FFFF8
7FFFF8
7FFFF8
7FFFF8
ENDCHAR
STARTCHAR uni02AC
ENCODING 684
SWIDTH 429 0
DWIDTH 18 0
BBX 18 31 0 0
BITMAP
60E0C0
E0E180
60E180
31E180
31E180
39B300
333300
1B3300
1B3600
1B1E00
1E1E00
1E1C00
0E1C00
000000
000000
000000
000000
60E0C0
E0E180
60E180
31E180
31E180
39B300
333300
1B3300
1B3600
1B1E00
1E1E00
1E1C00
0E1C00
0C1C00
ENDCHAR
STARTCHAR uni02AD
ENCODING 685
SWIDTH 665 0
DWIDTH 28 0
BBX 23 30 3 0
BITMAP
FFFFFE
FFFFFE
FFFFFE
C00006
C00006
C00006
C00006
C00006
C00006
C00006
C00006
C00006
C00006
000000
000000
000000
000000
FFFFFE
FFFFFE
FFFFFE
C00006
C00006
C00006
C00006
C00006
C00006
C00006
C00006
C00006
C00006
ENDCHAR
STARTCHAR uni02AE
ENCODING 686
SWIDTH 589 0
DWIDTH 25 0
BBX 22 36 1 -8
BITMAP
400000
FC0000
7E0000
FE0000
0F0000
0F0000
0F003C
0F003C
0F003C
0F003C
0F003C
0F003C
0F003C
0F003C
0F003C
0F003C
0F003C
0F003C
0F003C
0F003C
0F003C
0F003C
0F007C
0F007C
0F80FC
07FFFC
03FFBC
01FF3C
00303C
00003C
00003C
00003C
00003C
00003C
00003C
00003C
ENDCHAR
STARTCHAR uni02AF
ENCODING 687
SWIDTH 645 0
DWIDTH 27 0
BBX 26 36 1 -8
BITMAP
40000000
FC000000
7E000000
FE000000
0F000000
0F000000
0F003C00
0F003C00
0F003C00
0F003C00
0F003C00
0F003C00
0F003C00
0F003C00
0F003C00
0F003C00
0F003C00
0F003C00
0F003C00
0F003C00
0F003C00
0F003C00
0F007C00
0F007C00
0F80FC00
07FFFC00
03FFBC00
01FF3C00
00303C00
00003C00
00003C00
00003C00
00003C00
00003F80
00001FC0
00000F80
ENDCHAR
STARTCHAR uni02B0
ENCODING 688
SWIDTH 278 0
DWIDTH 12 0
BBX 9 16 1 15
BITMAP
C000
C000
C000
C000
C400
CF80
7F80
E180
C180
C180
C180
C180
C180
C180
C180
C180
ENDCHAR
STARTCHAR uni02B1
ENCODING 689
SWIDTH 278 0
DWIDTH 12 0
BBX 10 16 1 15
BITMAP
1000
F000
6000
C000
C400
CF80
7F80
E180
C0C0
C0C0
C0C0
C0C0
C0C0
C0C0
C0C0
C0C0
ENDCHAR
STARTCHAR uni02B2
ENCODING 690
SWIDTH 111 0
DWIDTH 5 0
BBX 3 19 1 11
BITMAP
60
60
00
00
60
60
60
60
60
60
60
60
60
60
60
60
60
E0
E0
ENDCHAR
STARTCHAR uni02B3
ENCODING 691
SWIDTH 166 0
DWIDTH 7 0
BBX 6 12 1 15
BITMAP
04
DC
F8
E0
C0
C0
C0
C0
C0
C0
C0
C0
ENDCHAR
STARTCHAR uni02B4
ENCODING 692
SWIDTH 166 0
DWIDTH 7 0
BBX 6 12 1 15
BITMAP
0C
0C
0C
0C
0C
0C
0C
0C
0C
1C
EC
E0
ENDCHAR
STARTCHAR uni02B5
ENCODING 693
SWIDTH 220 0
DWIDTH 9 0
BBX 7 16 1 11
BITMAP
0C
0C
0C
0C
0C
0C
0C
0C
0C
1C
7C
EC
0C
0C
0E
0E
ENDCHAR
STARTCHAR Rsmallinvertedsuperior
ENCODING 694
SWIDTH 373 0
DWIDTH 16 0
BBX 14 16 2 15
BITMAP
E038
E03C
E038
E038
E038
E038
E0F0
FFF0
7FE0
E070
E070
E038
E038
7FF8
7FF0
7FE0
ENDCHAR
STARTCHAR uni02B7
ENCODING 695
SWIDTH 361 0
DWIDTH 15 0
BBX 14 11 1 15
BITMAP
C70C
C70C
C798
6798
6D98
6D98
6CF0
3CF0
38E0
18E0
1860
ENDCHAR
STARTCHAR uni02B8
ENCODING 696
SWIDTH 250 0
DWIDTH 10 0
BBX 9 15 1 11
BITMAP
C180
C180
6300
6300
6300
3600
3600
3600
1C00
1C00
1800
1800
1800
F000
7000
ENDCHAR
STARTCHAR primemod
ENCODING 697
SWIDTH 166 0
DWIDTH 7 0
BBX 4 11 2 19
BITMAP
30
30
30
30
30
60
60
60
60
60
C0
ENDCHAR
STARTCHAR dblprimemod
ENCODING 698
SWIDTH 310 0
DWIDTH 13 0
BBX 9 11 2 19
BITMAP
3180
3180
3180
3180
3180
6300
6300
6300
6300
6300
C600
ENDCHAR
STARTCHAR commaturnedmod
ENCODING 699
SWIDTH 222 0
DWIDTH 9 0
BBX 4 11 4 20
BITMAP
10
70
70
C0
C0
C0
F0
F0
F0
F0
F0
ENDCHAR
STARTCHAR apostrophemod
ENCODING 700
SWIDTH 222 0
DWIDTH 9 0
BBX 5 11 3 20
BITMAP
78
78
78
78
78
18
18
30
30
70
C0
ENDCHAR
STARTCHAR afii64937
ENCODING 701
SWIDTH 222 0
DWIDTH 9 0
BBX 4 11 4 20
BITMAP
F0
F0
F0
F0
F0
C0
C0
C0
C0
70
30
ENDCHAR
STARTCHAR uni02BE
ENCODING 702
SWIDTH 207 0
DWIDTH 9 0
BBX 5 9 3 25
BITMAP
80
70
F0
30
18
18
30
70
70
ENDCHAR
STARTCHAR uni02BF
ENCODING 703
SWIDTH 207 0
DWIDTH 9 0
BBX 5 9 3 25
BITMAP
08
38
78
60
C0
C0
60
38
38
ENDCHAR
STARTCHAR uni02C0
ENCODING 704
SWIDTH 278 0
DWIDTH 12 0
BBX 10 16 2 15
BITMAP
1C00
3F80
7F80
6180
C0C0
0180
0180
0700
0700
0C00
0C00
0C00
0C00
0C00
0C00
0C00
ENDCHAR
STARTCHAR uni02C1
ENCODING 705
SWIDTH 278 0
DWIDTH 12 0
BBX 10 16 2 15
BITMAP
0800
7F00
7F80
E180
C0C0
6000
6000
3000
1C00
0C00
0C00
0C00
0C00
0C00
0C00
0C00
ENDCHAR
STARTCHAR uni02C2
ENCODING 706
SWIDTH 291 0
DWIDTH 12 0
BBX 13 11 0 15
BITMAP
0030
03F8
07C0
3E00
7800
E000
7C00
0F80
01F0
0070
0008
ENDCHAR
STARTCHAR uni02C3
ENCODING 707
SWIDTH 291 0
DWIDTH 12 0
BBX 12 11 0 15
BITMAP
6000
F800
1F00
03E0
00F0
00F0
01F0
0F80
7C00
7000
8000
ENDCHAR
STARTCHAR uni02C4
ENCODING 708
SWIDTH 291 0
DWIDTH 12 0
BBX 10 12 2 15
BITMAP
0C00
0E00
1E00
1E00
3300
3300
3300
6180
6180
C0C0
C0C0
C0C0
ENDCHAR
STARTCHAR uni02C5
ENCODING 709
SWIDTH 291 0
DWIDTH 12 0
BBX 11 12 2 15
BITMAP
C060
C0C0
C0C0
6180
6180
6180
3300
3300
1E00
1E00
0E00
0E00
ENDCHAR
STARTCHAR circumflex
ENCODING 710
SWIDTH 333 0
DWIDTH 14 0
BBX 11 6 2 25
BITMAP
1F00
1F80
7B80
73C0
E0E0
E0E0
ENDCHAR
STARTCHAR caron
ENCODING 711
SWIDTH 333 0
DWIDTH 14 0
BBX 12 6 2 25
BITMAP
E0F0
F1C0
39C0
3F80
1F80
0F00
ENDCHAR
STARTCHAR uni02C8
ENCODING 712
SWIDTH 190 0
DWIDTH 8 0
BBX 2 6 3 24
BITMAP
C0
C0
C0
C0
C0
C0
ENDCHAR
STARTCHAR uni02C9
ENCODING 713
SWIDTH 333 0
DWIDTH 14 0
BBX 13 2 1 27
BITMAP
FFF8
FFF8
ENDCHAR
STARTCHAR uni02CA
ENCODING 714
SWIDTH 333 0
DWIDTH 14 0
BBX 7 6 5 25
BITMAP
3E
3C
78
78
E0
E0
ENDCHAR
STARTCHAR uni02CB
ENCODING 715
SWIDTH 333 0
DWIDTH 14 0
BBX 8 6 2 25
BITMAP
F0
78
3C
1E
1E
07
ENDCHAR
STARTCHAR uni02CC
ENCODING 716
SWIDTH 190 0
DWIDTH 8 0
BBX 2 7 3 -9
BITMAP
C0
C0
C0
C0
C0
C0
C0
ENDCHAR
STARTCHAR uni02CD
ENCODING 717
SWIDTH 333 0
DWIDTH 14 0
BBX 13 2 1 -6
BITMAP
FFF8
FFF8
ENDCHAR
STARTCHAR uni02CE
ENCODING 718
SWIDTH 333 0
DWIDTH 14 0
BBX 6 5 3 -7
BITMAP
F0
F0
78
38
1C
ENDCHAR
STARTCHAR uni02CF
ENCODING 719
SWIDTH 333 0
DWIDTH 14 0
BBX 7 5 5 -7
BITMAP
1E
3C
78
F0
E0
ENDCHAR
STARTCHAR colontriangularmod
ENCODING 720
SWIDTH 207 0
DWIDTH 9 0
BBX 8 20 1 0
BITMAP
FF
7F
7E
3E
3C
1C
18
08
00
00
00
00
18
18
3C
3C
7E
7E
FF
FF
ENDCHAR
STARTCHAR colontriangularhalfmod
ENCODING 721
SWIDTH 207 0
DWIDTH 9 0
BBX 8 8 1 6
BITMAP
FF
7F
7E
3E
3C
1C
18
18
ENDCHAR
STARTCHAR uni02D2
ENCODING 722
SWIDTH 207 0
DWIDTH 9 0
BBX 5 8 3 9
BITMAP
80
70
30
18
18
30
70
70
ENDCHAR
STARTCHAR uni02D3
ENCODING 723
SWIDTH 207 0
DWIDTH 9 0
BBX 5 8 3 9
BITMAP
08
38
60
C0
C0
60
38
38
ENDCHAR
STARTCHAR uni02D4
ENCODING 724
SWIDTH 291 0
DWIDTH 12 0
BBX 11 11 1 0
BITMAP
0600
0600
0600
0600
0600
0600
0600
0600
0600
FFE0
7BE0
ENDCHAR
STARTCHAR uni02D5
ENCODING 725
SWIDTH 291 0
DWIDTH 12 0
BBX 11 11 1 0
BITMAP
FFE0
FFE0
0600
0600
0600
0600
0600
0600
0600
0600
0600
ENDCHAR
STARTCHAR uni02D6
ENCODING 726
SWIDTH 291 0
DWIDTH 12 0
BBX 11 11 1 0
BITMAP
0600
0600
0600
0600
FFE0
FFE0
0600
0600
0600
0600
0600
ENDCHAR
STARTCHAR uni02D7
ENCODING 727
SWIDTH 333 0
DWIDTH 14 0
BBX 10 2 3 9
BITMAP
FFC0
FFC0
ENDCHAR
STARTCHAR breve
ENCODING 728
SWIDTH 333 0
DWIDTH 14 0
BBX 12 5 2 26
BITMAP
C030
E070
C030
7FE0
3FE0
ENDCHAR
STARTCHAR dotaccent
ENCODING 729
SWIDTH 333 0
DWIDTH 14 0
BBX 4 4 5 26
BITMAP
F0
F0
F0
F0
ENDCHAR
STARTCHAR ring
ENCODING 730
SWIDTH 333 0
DWIDTH 14 0
BBX 9 9 3 25
BITMAP
0800
3F00
7F80
6180
C180
C180
6180
3F00
3F00
ENDCHAR
STARTCHAR ogonek
ENCODING 731
SWIDTH 333 0
DWIDTH 14 0
BBX 8 10 3 -9
BITMAP
0F
1C
38
38
F0
F0
79
7F
3F
0E
ENDCHAR
STARTCHAR tilde
ENCODING 732
SWIDTH 333 0
DWIDTH 14 0
BBX 15 5 0 26
BITMAP
0006
1E0C
7FFC
7FFC
E0F8
ENDCHAR
STARTCHAR hungarumlaut
ENCODING 733
SWIDTH 333 0
DWIDTH 14 0
BBX 14 6 0 25
BITMAP
1F3C
3C78
3C78
38E0
70E0
E1C0
ENDCHAR
STARTCHAR rhotichookmod
ENCODING 734
SWIDTH 413 0
DWIDTH 17 0
BBX 17 9 0 8
BITMAP
002000
07C000
07C000
FFC000
7DC100
00E380
00FF80
007F00
003E00
ENDCHAR
STARTCHAR uni02DF
ENCODING 735
SWIDTH 291 0
DWIDTH 12 0
BBX 10 10 1 16
BITMAP
4040
E0C0
7180
3B00
0F00
0E00
1F00
3380
61C0
60C0
ENDCHAR
STARTCHAR uni02E0
ENCODING 736
SWIDTH 278 0
DWIDTH 12 0
BBX 11 16 0 11
BITMAP
4000
E060
3060
30C0
18C0
18C0
1980
0D80
0F00
0700
0600
0600
0600
0600
0600
0600
ENDCHAR
STARTCHAR uni02E1
ENCODING 737
SWIDTH 110 0
DWIDTH 5 0
BBX 2 15 1 15
BITMAP
C0
C0
C0
C0
C0
C0
C0
C0
C0
C0
C0
C0
C0
C0
C0
ENDCHAR
STARTCHAR uni02E2
ENCODING 738
SWIDTH 250 0
DWIDTH 10 0
BBX 10 12 1 15
BITMAP
0800
3F80
6780
6180
7000
3C00
3F80
0780
C180
60C0
7F80
3F80
ENDCHAR
STARTCHAR uni02E3
ENCODING 739
SWIDTH 250 0
DWIDTH 10 0
BBX 9 11 1 15
BITMAP
C180
7700
3600
1E00
1C00
1E00
3600
3600
7700
C180
C180
ENDCHAR
STARTCHAR uni02E4
ENCODING 740
SWIDTH 278 0
DWIDTH 12 0
BBX 10 16 2 15
BITMAP
0800
7F00
7F80
E180
C0C0
6000
6000
3000
1C00
0C00
0C00
0C00
0C00
0C00
0C00
0C00
ENDCHAR
STARTCHAR tonebarextrahighmod
ENCODING 741
SWIDTH 411 0
DWIDTH 17 0
BBX 16 31 1 0
BITMAP
FFFF
FFFF
FFFF
000E
000E
000E
000E
000E
000E
000E
000E
000E
000E
000E
000E
000E
000E
000E
000E
000E
000E
000E
000E
000E
000E
000E
000E
000E
000E
000E
000E
ENDCHAR
STARTCHAR tonebarhighmod
ENCODING 742
SWIDTH 411 0
DWIDTH 17 0
BBX 16 31 1 0
BITMAP
000E
000E
000E
000E
000E
000E
000E
FFFF
FFFF
FFFF
000E
000E
000E
000E
000E
000E
000E
000E
000E
000E
000E
000E
000E
000E
000E
000E
000E
000E
000E
000E
000E
ENDCHAR
STARTCHAR tonebarmidmod
ENCODING 743
SWIDTH 411 0
DWIDTH 17 0
BBX 16 31 1 0
BITMAP
000E
000E
000E
000E
000E
000E
000E
000E
000E
000E
000E
000E
000E
000E
FFFF
FFFF
FFFF
000E
000E
000E
000E
000E
000E
000E
000E
000E
000E
000E
000E
000E
000E
ENDCHAR
STARTCHAR tonebarlowmod
ENCODING 744
SWIDTH 411 0
DWIDTH 17 0
BBX 16 31 1 0
BITMAP
000E
000E
000E
000E
000E
000E
000E
000E
000E
000E
000E
000E
000E
000E
000E
000E
000E
000E
000E
000E
000E
FFFF
FFFF
FFFF
000E
000E
000E
000E
000E
000E
000E
ENDCHAR
STARTCHAR tonebarextralowmod
ENCODING 745
SWIDTH 411 0
DWIDTH 17 0
BBX 16 31 1 0
BITMAP
000E
000E
000E
000E
000E
000E
000E
000E
000E
000E
000E
000E
000E
000E
000E
000E
000E
000E
000E
000E
000E
000E
000E
000E
000E
000E
000E
FFFF
FFFF
FFFF
FFFF
ENDCHAR
STARTCHAR uni02EA
ENCODING 746
SWIDTH 308 0
DWIDTH 13 0
BBX 12 22 1 0
BITMAP
C000
C000
C000
C000
C000
C000
C000
C000
C000
C000
C000
C000
C000
C000
C000
C000
C000
C000
C000
C000
FFF0
FFF0
ENDCHAR
STARTCHAR uni02EB
ENCODING 747
SWIDTH 308 0
DWIDTH 13 0
BBX 12 22 1 0
BITMAP
C000
C000
C000
C000
C000
C000
C000
C000
C000
C000
FFF0
C000
C000
C000
C000
C000
C000
C000
C000
C000
C000
C000
ENDCHAR
STARTCHAR uni02EC
ENCODING 748
SWIDTH 333 0
DWIDTH 14 0
BBX 11 5 2 -7
BITMAP
E1E0
79E0
3B80
3F80
1F00
ENDCHAR
STARTCHAR uni02ED
ENCODING 749
SWIDTH 333 0
DWIDTH 14 0
BBX 14 7 1 22
BITMAP
FFFC
FFFC
0000
0000
0000
FFFC
FFFC
ENDCHAR
STARTCHAR uni02EE
ENCODING 750
SWIDTH 333 0
DWIDTH 14 0
BBX 12 11 2 20
BITMAP
78F0
78F0
78F0
78F0
78F0
1830
1830
3060
7060
70E0
C180
ENDCHAR
STARTCHAR uni02EF
ENCODING 751
SWIDTH 291 0
DWIDTH 12 0
BBX 10 12 2 -10
BITMAP
C0C0
C0C0
C0C0
6180
6180
3300
3300
3300
1E00
1E00
0E00
0C00
ENDCHAR
STARTCHAR uni02F0
ENCODING 752
SWIDTH 291 0
DWIDTH 12 0
BBX 11 12 2 -10
BITMAP
0E00
0E00
1E00
1B00
3300
3300
6180
6180
6180
C0C0
C0C0
C060
ENDCHAR
STARTCHAR uni02F1
ENCODING 753
SWIDTH 291 0
DWIDTH 12 0
BBX 13 11 0 -9
BITMAP
0008
00F0
01F0
0F80
7C00
E000
7800
1F00
07C0
00F8
0030
ENDCHAR
STARTCHAR uni02F2
ENCODING 754
SWIDTH 291 0
DWIDTH 12 0
BBX 13 11 0 -9
BITMAP
8000
7000
7C00
0F80
01F0
0038
03F0
07C0
1F00
F800
6000
ENDCHAR
STARTCHAR uni02F3
ENCODING 755
SWIDTH 333 0
DWIDTH 14 0
BBX 9 9 2 -8
BITMAP
0800
3F00
6180
C180
C180
6180
6300
3F00
0800
ENDCHAR
STARTCHAR uni02F4
ENCODING 756
SWIDTH 333 0
DWIDTH 14 0
BBX 8 6 1 13
BITMAP
F8
3C
3C
1E
0E
07
ENDCHAR
STARTCHAR uni02F5
ENCODING 757
SWIDTH 333 0
DWIDTH 14 0
BBX 13 6 2 13
BITMAP
F1E0
F1E0
78F0
3CF0
1C38
1C38
ENDCHAR
STARTCHAR uni02F6
ENCODING 758
SWIDTH 333 0
DWIDTH 14 0
BBX 13 6 2 13
BITMAP
3C78
3C78
78F0
79E0
E1C0
E1C0
ENDCHAR
STARTCHAR uni02F7
ENCODING 759
SWIDTH 333 0
DWIDTH 14 0
BBX 15 5 0 0
BITMAP
1E06
3FCC
7FFC
E1F8
6000
ENDCHAR
STARTCHAR uni02F8
ENCODING 760
SWIDTH 277 0
DWIDTH 12 0
BBX 4 22 6 9
BITMAP
F0
F0
F0
F0
F0
00
00
00
00
00
00
00
00
00
00
00
00
00
F0
F0
F0
F0
ENDCHAR
STARTCHAR uni02F9
ENCODING 761
SWIDTH 333 0
DWIDTH 14 0
BBX 7 12 4 19
BITMAP
7E
7E
C0
C0
C0
C0
C0
C0
C0
C0
C0
C0
ENDCHAR
STARTCHAR uni02FA
ENCODING 762
SWIDTH 333 0
DWIDTH 14 0
BBX 6 12 5 19
BITMAP
FC
FC
0C
0C
0C
0C
0C
0C
0C
0C
0C
0C
ENDCHAR
STARTCHAR uni02FB
ENCODING 763
SWIDTH 333 0
DWIDTH 14 0
BBX 7 12 4 0
BITMAP
C0
C0
C0
C0
C0
C0
C0
C0
C0
C0
7E
7E
ENDCHAR
STARTCHAR uni02FC
ENCODING 764
SWIDTH 333 0
DWIDTH 14 0
BBX 6 12 5 0
BITMAP
0C
0C
0C
0C
0C
0C
0C
0C
0C
0C
FC
FC
ENDCHAR
STARTCHAR uni02FD
ENCODING 765
SWIDTH 333 0
DWIDTH 14 0
BBX 12 6 1 0
BITMAP
C030
C030
C030
C030
7FF0
7FF0
ENDCHAR
STARTCHAR uni02FE
ENCODING 766
SWIDTH 333 0
DWIDTH 14 0
BBX 12 6 1 0
BITMAP
C000
C000
C000
C000
7FF0
7FF0
ENDCHAR
STARTCHAR uni02FF
ENCODING 767
SWIDTH 565 0
DWIDTH 24 0
BBX 23 10 1 0
BITMAP
002000
00F000
07E000
7FF000
FFFFFE
7FFFFC
0FF000
03E000
007000
001000
ENDCHAR
STARTCHAR gravecmb
ENCODING 768
SWIDTH 0 0
DWIDTH 0 0
BBX 8 6 -15 25
BITMAP
F0
78
3C
1E
1E
07
ENDCHAR
STARTCHAR acutecmb
ENCODING 769
SWIDTH 0 0
DWIDTH 0 0
BBX 7 6 -15 25
BITMAP
3E
3C
78
78
E0
E0
ENDCHAR
STARTCHAR circumflexcmb
ENCODING 770
SWIDTH 0 0
DWIDTH 0 0
BBX 11 6 -17 25
BITMAP
1F00
1F80
7B80
73C0
E0E0
E0E0
ENDCHAR
STARTCHAR tildecmb
ENCODING 771
SWIDTH 0 0
DWIDTH 0 0
BBX 15 5 -19 26
BITMAP
0006
1E0C
7FFC
7FFC
E0F8
ENDCHAR
STARTCHAR macroncmb
ENCODING 772
SWIDTH 0 0
DWIDTH 0 0
BBX 13 2 -17 27
BITMAP
FFF8
FFF8
ENDCHAR
STARTCHAR overlinecmb
ENCODING 773
SWIDTH 0 0
DWIDTH 0 0
BBX 14 2 -18 27
BITMAP
FFFC
FFFC
ENDCHAR
STARTCHAR brevecmb
ENCODING 774
SWIDTH 0 0
DWIDTH 0 0
BBX 12 5 -17 26
BITMAP
C030
E070
C030
7FE0
3FE0
ENDCHAR
STARTCHAR dotaccentcmb
ENCODING 775
SWIDTH 0 0
DWIDTH 0 0
BBX 4 4 -14 26
BITMAP
F0
F0
F0
F0
ENDCHAR
STARTCHAR dieresiscmb
ENCODING 776
SWIDTH 0 0
DWIDTH 0 0
BBX 11 4 -17 26
BITMAP
F1E0
F1E0
F1E0
F1E0
ENDCHAR
STARTCHAR hookcmb
ENCODING 777
SWIDTH 0 0
DWIDTH 0 0
BBX 6 7 -14 27
BITMAP
C0
F0
0C
1C
0C
0C
30
ENDCHAR
STARTCHAR ringcmb
ENCODING 778
SWIDTH 0 0
DWIDTH 0 0
BBX 9 9 -16 25
BITMAP
0800
3F00
7F80
6180
C180
C180
6180
3F00
3F00
ENDCHAR
STARTCHAR hungarumlautcmb
ENCODING 779
SWIDTH 0 0
DWIDTH 0 0
BBX 14 6 -19 25
BITMAP
1F3C
3C78
3C78
38E0
70E0
E1C0
ENDCHAR
STARTCHAR caroncmb
ENCODING 780
SWIDTH 0 0
DWIDTH 0 0
BBX 12 6 -17 25
BITMAP
E0F0
F1C0
39C0
3F80
1F80
0F00
ENDCHAR
STARTCHAR verticallineabovecmb
ENCODING 781
SWIDTH 0 0
DWIDTH 0 0
BBX 2 6 -12 24
BITMAP
C0
C0
C0
C0
C0
C0
ENDCHAR
STARTCHAR dblverticallineabovecmb
ENCODING 782
SWIDTH 0 0
DWIDTH 0 0
BBX 6 6 -14 24
BITMAP
CC
CC
CC
CC
CC
CC
ENDCHAR
STARTCHAR dblgravecmb
ENCODING 783
SWIDTH 0 0
DWIDTH 0 0
BBX 14 6 -18 25
BITMAP
F3E0
78F0
78F0
1C70
1C38
0E1C
ENDCHAR
STARTCHAR candrabinducmb
ENCODING 784
SWIDTH 0 0
DWIDTH 0 0
BBX 12 9 -17 26
BITMAP
0F00
0F00
0F00
0F00
C030
E070
C030
7FE0
3FE0
ENDCHAR
STARTCHAR breveinvertedcmb
ENCODING 785
SWIDTH 0 0
DWIDTH 0 0
BBX 12 5 -17 26
BITMAP
0200
7FE0
FFE0
E070
C030
ENDCHAR
STARTCHAR commaturnedabovecmb
ENCODING 786
SWIDTH 0 0
DWIDTH 0 0
BBX 4 11 -13 20
BITMAP
10
70
70
C0
C0
C0
F0
F0
F0
F0
F0
ENDCHAR
STARTCHAR commaabovecmb
ENCODING 787
SWIDTH 0 0
DWIDTH 0 0
BBX 5 11 -14 20
BITMAP
78
78
78
78
78
18
18
30
30
70
C0
ENDCHAR
STARTCHAR commareversedabovecmb
ENCODING 788
SWIDTH 0 0
DWIDTH 0 0
BBX 4 11 -13 20
BITMAP
F0
F0
F0
F0
F0
C0
C0
C0
C0
70
30
ENDCHAR
STARTCHAR commaaboverightcmb
ENCODING 789
SWIDTH 0 0
DWIDTH 0 0
BBX 5 11 -14 20
BITMAP
78
78
78
78
78
18
18
30
30
70
C0
ENDCHAR
STARTCHAR gravebelowcmb
ENCODING 790
SWIDTH 0 0
DWIDTH 0 0
BBX 6 5 -14 -7
BITMAP
F0
F0
78
38
1C
ENDCHAR
STARTCHAR acutebelowcmb
ENCODING 791
SWIDTH 0 0
DWIDTH 0 0
BBX 7 5 -15 -7
BITMAP
1E
3C
78
F0
E0
ENDCHAR
STARTCHAR lefttackbelowcmb
ENCODING 792
SWIDTH 0 0
DWIDTH 0 0
BBX 11 11 -17 -12
BITMAP
0060
0060
0060
0060
0060
FFE0
0060
0060
0060
0060
0060
ENDCHAR
STARTCHAR righttackbelowcmb
ENCODING 793
SWIDTH 0 0
DWIDTH 0 0
BBX 11 11 -17 -12
BITMAP
C000
C000
C000
C000
C000
FFE0
C000
C000
C000
C000
C000
ENDCHAR
STARTCHAR uni031A
ENCODING 794
SWIDTH 0 0
DWIDTH 0 0
BBX 11 6 -17 23
BITMAP
FFE0
FFE0
0060
0060
0060
0060
ENDCHAR
STARTCHAR horncmb
ENCODING 795
SWIDTH 0 0
DWIDTH 0 0
BBX 11 6 -17 21
BITMAP
00C0
07C0
03E0
43E0
7FC0
FE00
ENDCHAR
STARTCHAR ringhalfleftbelowcmb
ENCODING 796
SWIDTH 0 0
DWIDTH 0 0
BBX 5 9 -14 -8
BITMAP
08
38
60
C0
C0
60
60
38
08
ENDCHAR
STARTCHAR uptackbelowcmb
ENCODING 797
SWIDTH 0 0
DWIDTH 0 0
BBX 11 11 -17 -12
BITMAP
0600
0600
0600
0600
0600
0600
0600
0600
0600
FFE0
FFE0
ENDCHAR
STARTCHAR downtackbelowcmb
ENCODING 798
SWIDTH 0 0
DWIDTH 0 0
BBX 11 11 -17 -12
BITMAP
FFE0
FFE0
0600
0600
0600
0600
0600
0600
0600
0600
0600
ENDCHAR
STARTCHAR plusbelowcmb
ENCODING 799
SWIDTH 0 0
DWIDTH 0 0
BBX 11 11 -17 -12
BITMAP
0600
0600
0600
0600
0600
FFE0
0600
0600
0600
0600
0600
ENDCHAR
STARTCHAR minusbelowcmb
ENCODING 800
SWIDTH 0 0
DWIDTH 0 0
BBX 13 2 -17 -6
BITMAP
FFF8
FFF8
ENDCHAR
STARTCHAR uni0321
ENCODING 801
SWIDTH 0 0
DWIDTH 0 0
BBX 3 11 -12 -10
BITMAP
60
60
60
60
60
60
60
60
60
E0
E0
ENDCHAR
STARTCHAR uni0322
ENCODING 802
SWIDTH 0 0
DWIDTH 0 0
BBX 4 11 -13 -10
BITMAP
C0
C0
C0
C0
C0
C0
C0
C0
C0
F0
F0
ENDCHAR
STARTCHAR dotbelowcmb
ENCODING 803
SWIDTH 0 0
DWIDTH 0 0
BBX 4 4 -14 -7
BITMAP
F0
F0
F0
F0
ENDCHAR
STARTCHAR dieresisbelowcmb
ENCODING 804
SWIDTH 0 0
DWIDTH 0 0
BBX 11 4 -17 -7
BITMAP
F1E0
F1E0
F1E0
F1E0
ENDCHAR
STARTCHAR ringbelowcmb
ENCODING 805
SWIDTH 0 0
DWIDTH 0 0
BBX 9 9 -16 -8
BITMAP
0800
3F00
6180
C180
C180
6180
6300
3F00
0800
ENDCHAR
STARTCHAR commaaccent
ENCODING 806
SWIDTH 0 0
DWIDTH 0 0
BBX 4 11 -13 -13
BITMAP
F0
F0
F0
F0
F0
30
30
60
60
E0
80
ENDCHAR
STARTCHAR cedillacmb
ENCODING 807
SWIDTH 0 0
DWIDTH 0 0
BBX 10 10 -16 -9
BITMAP
0600
0C00
1800
3C00
3F00
03C0
0380
4780
7F80
FF00
ENDCHAR
STARTCHAR ogonekcmb
ENCODING 808
SWIDTH 0 0
DWIDTH 0 0
BBX 8 10 -15 -9
BITMAP
0F
1C
38
38
F0
F0
79
7F
3F
0E
ENDCHAR
STARTCHAR verticallinebelowcmb
ENCODING 809
SWIDTH 0 0
DWIDTH 0 0
BBX 2 7 -12 -9
BITMAP
C0
C0
C0
C0
C0
C0
C0
ENDCHAR
STARTCHAR uni032A
ENCODING 810
SWIDTH 0 0
DWIDTH 0 0
BBX 16 6 -19 -6
BITMAP
FFFF
FFFF
C003
C003
C003
C003
ENDCHAR
STARTCHAR dblarchinvertedbelowcmb
ENCODING 811
SWIDTH 0 0
DWIDTH 0 0
BBX 23 5 -23 -7
BITMAP
C03006
E07806
C0780C
7FFFFC
3FC7F8
ENDCHAR
STARTCHAR caronbelowcmb
ENCODING 812
SWIDTH 0 0
DWIDTH 0 0
BBX 11 5 -17 -7
BITMAP
E1E0
79E0
3B80
3F80
1F00
ENDCHAR
STARTCHAR circumflexbelowcmb
ENCODING 813
SWIDTH 0 0
DWIDTH 0 0
BBX 11 5 -17 -7
BITMAP
1F80
3B80
3B80
79C0
E1E0
ENDCHAR
STARTCHAR brevebelowcmb
ENCODING 814
SWIDTH 0 0
DWIDTH 0 0
BBX 12 5 -17 -7
BITMAP
C030
E030
C060
7FE0
3FC0
ENDCHAR
STARTCHAR breveinvertedbelowcmb
ENCODING 815
SWIDTH 0 0
DWIDTH 0 0
BBX 12 5 -17 -7
BITMAP
0200
7FE0
FFE0
E070
C030
ENDCHAR
STARTCHAR tildebelowcmb
ENCODING 816
SWIDTH 0 0
DWIDTH 0 0
BBX 15 5 -19 -7
BITMAP
0006
060C
7FFC
7FF8
E0F8
ENDCHAR
ENDFONT
